<?xml version="1.0" encoding="UTF-8"?>
<svg id="Layer_1" data-name="Layer 1" xmlns="http://www.w3.org/2000/svg" version="1.1" viewBox="0 0 80 80">
  <defs>
    <style>
      .cls-1 {
        fill: none;
        stroke: #ae892b;
        stroke-linecap: round;
        stroke-linejoin: round;
        stroke-width: 1.8px;
      }
    </style>
  </defs>
  <path class="cls-1" d="M21.7,9.2h36.7v23.9H21.7V9.2Z"/>
  <path class="cls-1" d="M58.3,15.3l4.8-.8v-6.8l-4.8,1.6v6.1Z"/>
  <path class="cls-1" d="M58.3,21.2h4.8v-6.8l-4.8.8v5.9Z"/>
  <path class="cls-1" d="M58.3,27.2l4.8.8v-6.8h-4.8v5.9Z"/>
  <path class="cls-1" d="M58.3,33.1l4.8,1.6v-6.7l-4.8-.8v5.9Z"/>
  <path class="cls-1" d="M63.2,14.4l6.2-1.1v-7.8l-6.2,2.1v6.8Z"/>
  <path class="cls-1" d="M63.2,21.2h6.2v-7.9l-6.2,1.1v6.8Z"/>
  <path class="cls-1" d="M63.2,28l6.2,1v-7.8h-6.2v6.8Z"/>
  <path class="cls-1" d="M63.2,34.7l6.2,2.2v-7.9l-6.2-1v6.7Z"/>
  <path class="cls-1" d="M77.9,2.8l-8.6,2.8v7.8l8.6-1.3"/>
  <path class="cls-1" d="M77.9,12l-8.6,1.3v7.9h8.6"/>
  <path class="cls-1" d="M77.9,21.2h-8.6v7.8l8.6,1.5"/>
  <path class="cls-1" d="M77.9,30.4l-8.6-1.5v7.9l8.6,2.8"/>
  <path class="cls-1" d="M21.7,15.3l-4.8-.8v-6.8l4.8,1.6v6.1Z"/>
  <path class="cls-1" d="M21.7,21.2h-4.8v-6.8l4.8.8v5.9Z"/>
  <path class="cls-1" d="M21.7,27.2l-4.8.8v-6.8h4.8v5.9Z"/>
  <path class="cls-1" d="M21.7,33.1l-4.8,1.6v-6.7l4.8-.8v5.9Z"/>
  <path class="cls-1" d="M16.8,14.4l-6.2-1.1v-7.8l6.2,2.1v6.8Z"/>
  <path class="cls-1" d="M16.8,21.2h-6.2v-7.9l6.2,1.1v6.8Z"/>
  <path class="cls-1" d="M16.8,28l-6.2,1v-7.8h6.2v6.8Z"/>
  <path class="cls-1" d="M16.8,34.7l-6.2,2.2v-7.9l6.2-1v6.7Z"/>
  <path class="cls-1" d="M2.2,2.8l8.5,2.8v7.8l-8.5-1.3"/>
  <path class="cls-1" d="M2.2,12l8.5,1.3v7.9H2.2"/>
  <path class="cls-1" d="M2.2,21.2h8.5v7.8l-8.5,1.5"/>
  <path class="cls-1" d="M2.2,30.4l8.5-1.5v7.9l-8.5,2.8"/>
  <path class="cls-1" d="M60.2,60.8c-1.9,9.3-10.3,16.4-20.2,16.4s-18.3-7-20.2-16.4"/>
  <path class="cls-1" d="M19.8,37.6c1.9-9.3,10.3-16.4,20.2-16.4s18.3,7,20.2,16.4"/>
  <path class="cls-1" d="M20.1,37.6h39.8c1.8,0,3.4,1.7,3.4,3.8v15.6c0,2.1-1.6,3.8-3.4,3.8H20.1c-1.8,0-3.4-1.7-3.4-3.8v-15.6c0-2.1,1.5-3.8,3.4-3.8Z"/>
  <path class="cls-1" d="M21.5,42.4h37.1v13.6H21.5v-13.6Z"/>
  <path class="cls-1" d="M63.3,45.3h3.8c1,0,1.7.7,1.7,1.7v4.4c0,1-.7,1.7-1.7,1.7h-3.8"/>
  <path class="cls-1" d="M34.5,37.6v-3.8c0-1,.7-1.7,1.7-1.7h7.6c1,0,1.7.7,1.7,1.7v3.8"/>
  <path class="cls-1" d="M16.7,53.1h-3.8c-1,0-1.7-.7-1.7-1.7v-4.4c0-1,.7-1.7,1.7-1.7h3.8"/>
  <path class="cls-1" d="M45.3,68.8c-2.9,3-7.8,3-10.8,0"/>
</svg>