<?xml version="1.0" encoding="UTF-8"?>
<svg id="Layer_1" data-name="Layer 1" xmlns="http://www.w3.org/2000/svg" xmlns:xlink="http://www.w3.org/1999/xlink" version="1.1" viewBox="0 0 80 80">
  <defs>
    <style>
      .cls-1 {
        clip-path: url(#clippath);
      }

      .cls-2 {
        fill: none;
      }

      .cls-2, .cls-3 {
        stroke-width: 0px;
      }

      .cls-3 {
        fill: #b69121;
      }
    </style>
    <clipPath id="clippath">
      <rect class="cls-2" width="80" height="80"/>
    </clipPath>
  </defs>
  <g class="cls-1">
    <g>
      <path class="cls-3" d="M79.1.5h-46.8c-.5,0-.9.4-.9.9v34.5h-14.6v-14.7h7.3c.5,0,.9-.4.9-.9,0,0,0,0,0-.2l-1.8-12.6c0-.4-.5-.8-.9-.8h-12.8c-.5,0-.8.3-.9.8l-1.8,12.6c0,.5.3,1,.8,1,0,0,0,0,.2,0h7.3v14.7h-6.1c-1.7,0-3.3.7-4.3,1.8-.9.9-1.3,2.2-1.1,3.4l1.2,10.9c-2.8,1-4.6,3.6-4.6,6.5v2.2c0,.7.3,1.4.8,2-.5.5-.8,1.2-.8,2v6.2c0,1.6,1.3,2.9,2.9,2.9h.7v4.7c0,.5.4.9.9.9h4c.4,0,.8-.3.9-.6l1.5-4.9h4.1v3.8h-2.9v1.8h8v-1.8h-3.3v-3.8h14.6v4.9c0,.5.4.9.9.9h46.8c.5,0,.9-.4.9-.9V1.4c0-.5-.4-.9-.9-.9ZM10.3,8.5h11.2l1.6,10.8h-14.3l1.6-10.8ZM50.9,64.2c0-.6-.4-1.1-.7-1.5.5-.5.8-1.2.8-2v-2.2c0-.8-.2-1.6-.4-2.4h10v-1.8h-10.5v.8c-.9-1.5-2.3-2.7-4-3.2v-.5h32.1v12.8h-27.3ZM78.2,10v39.6h-21.6V10h21.6ZM78.2,2.3v5.9h-44.9V2.3h44.9ZM33.2,10h21.6v39.6h-8.5l.9-8.4c.1-1.3-.3-2.5-1.1-3.4-1-1.2-2.6-1.8-4.3-1.8h-8.6V10ZM6.4,51.6l-1.2-10.7c0-.7.2-1.5.7-2,.7-.8,1.8-1.2,2.9-1.2h32.9c1.2,0,2.2.4,2.9,1.2.5.5.8,1.3.7,2l-1.2,10.7H6.4ZM1.8,58.5c0-2.8,2.3-5.1,5.1-5.1h37.1c2.8,0,5.1,2.3,5.1,5.1v2.2c0,.6-.5,1.1-1.1,1.1H2.9c-.6,0-1.1-.5-1.1-1.1v-2.2ZM1.8,70.9v-6.2c0-.6.5-1.1,1.1-1.1h45.1c.6,0,1.1.5,1.1,1h0v6.2c0,.6-.5,1.1-1.1,1.1H2.9c-.6,0-1.1-.5-1.1-1.1ZM46.1,77.5h-2.4l-1.2-3.8h3.6v3.8ZM7.8,77.5h-2.4v-3.8h3.6l-1.2,3.8ZM33.2,73.8h7.4l1.2,4h-8.6v-4ZM78.2,77.7h-30.2v-4h0c1.3,0,2.4-.8,2.8-2h9.7v-1.8h-9.6v-3.9h27.3v11.7Z"/>
      <path class="cls-3" d="M60.9,24.4h1.8v6.7h-1.8v-6.7Z"/>
      <path class="cls-3" d="M49.1,24.4h1.8v6.7h-1.8v-6.7Z"/>
    </g>
  </g>
</svg>