<?xml version="1.0" encoding="UTF-8"?>
<svg id="Layer_1" data-name="Layer 1" xmlns="http://www.w3.org/2000/svg" version="1.1" viewBox="0 0 80 80">
  <defs>
    <style>
      .cls-1 {
        fill: #ae892b;
        stroke-width: 0px;
      }
    </style>
  </defs>
  <path class="cls-1" d="M21.2,62.3c-.5,0-.9-.4-.9-.9v-30c0-.3.1-.6.4-.7l24.1-17.9c.3-.2.7-.2,1.1,0l24.1,17.9c.2.2.4.4.4.7v4.2c0,.5-.4.9-.9.9s-.9-.4-.9-.9v-3.8l-23.2-17.3-23.2,17.3v29.5c0,.5-.4.9-.9.9Z"/>
  <path class="cls-1" d="M64.2,24.2c-.5,0-.9-.4-.9-.9v-8.1c0-.5.4-.9.9-.9s.9.4.9.9v8.1c0,.5-.4.9-.9.9Z"/>
  <path class="cls-1" d="M59.4,20.7c-.5,0-.9-.4-.9-.9v-4.7c0-.5.4-.9.9-.9s.9.4.9.9v4.7c0,.5-.4.9-.9.9Z"/>
  <path class="cls-1" d="M65.9,16h-8.2c-.5,0-.9-.4-.9-.9v-3.1c0-.5.4-.9.9-.9h8.2c.5,0,.9.4.9.9v3.1c0,.5-.4.9-.9.9ZM58.6,14.2h6.5v-1.3h-6.5v1.3Z"/>
  <path class="cls-1" d="M48.1,53.4c0,0-.1,0-.2,0,0,0-.1,0-.2,0,0,0-.1,0-.2,0,0,0,0,0-.1-.1-.2-.2-.3-.4-.3-.6s0-.5.3-.6c0,0,0,0,.1-.1,0,0,.1,0,.2,0,0,0,.1,0,.2,0,.1,0,.2,0,.4,0h.2c0,0,.1.1.2.1,0,0,0,0,.1.1.2.2.3.4.3.6s0,.5-.3.6c0,0,0,0-.1.1,0,0-.1,0-.2,0,0,0-.1,0-.2,0,0,0-.1,0-.2,0Z"/>
  <path class="cls-1" d="M39.5,62.3c-.5,0-.9-.4-.9-.9v-17.9c0-.5.4-.9.9-.9h11.5c.5,0,.9.4.9.9v10.3c0,.5-.4.9-.9.9s-.9-.4-.9-.9v-9.4h-9.7v17c0,.5-.4.9-.9.9Z"/>
  <path class="cls-1" d="M75.5,32.3h-6.2c-.5,0-.9-.4-.9-.9s.4-.9.9-.9h3.4l-27.5-19.9-27.5,19.9h3.4c.5,0,.9.4.9.9s-.4.9-.9.9h-6.2c-.4,0-.7-.2-.9-.6-.1-.4,0-.8.3-1l30.2-21.9c.3-.2.7-.2,1,0l30.2,21.9c.3.2.4.6.3,1-.1.4-.4.6-.8.6Z"/>
  <path class="cls-1" d="M60.5,41.2h-9.2c-.5,0-.9-.4-.9-.9v-9.2c0-.5.4-.9.9-.9h9.2c.5,0,.9.4.9.9v9.2c0,.5-.4.9-.9.9ZM52.2,39.4h7.4v-7.4h-7.4v7.4Z"/>
  <path class="cls-1" d="M55.9,41.2c-.5,0-.9-.4-.9-.9v-9.2c0-.5.4-.9.9-.9s.9.4.9.9v9.2c0,.5-.4.9-.9.9Z"/>
  <path class="cls-1" d="M39.2,41.2h-9.2c-.5,0-.9-.4-.9-.9v-9.2c0-.5.4-.9.9-.9h9.2c.5,0,.9.4.9.9v9.2c0,.5-.4.9-.9.9ZM31,39.4h7.4v-7.4h-7.4v7.4Z"/>
  <path class="cls-1" d="M34.6,41.2c-.5,0-.9-.4-.9-.9v-9.2c0-.5.4-.9.9-.9s.9.4.9.9v9.2c0,.5-.4.9-.9.9Z"/>
  <path class="cls-1" d="M39.2,36.6h-9.2c-.5,0-.9-.4-.9-.9s.4-.9.9-.9h9.2c.5,0,.9.4.9.9s-.4.9-.9.9Z"/>
  <path class="cls-1" d="M60.5,36.6h-9.2c-.5,0-.9-.4-.9-.9s.4-.9.9-.9h9.2c.5,0,.9.4.9.9s-.4.9-.9.9Z"/>
  <path class="cls-1" d="M45.3,28.7c-2.7,0-4.9-2.2-4.9-4.9s2.2-4.9,4.9-4.9,4.9,2.2,4.9,4.9-2.2,4.9-4.9,4.9ZM45.3,20.7c-1.7,0-3.1,1.4-3.1,3.1s1.4,3.1,3.1,3.1,3.1-1.4,3.1-3.1-1.4-3.1-3.1-3.1Z"/>
  <path class="cls-1" d="M43.5,65.7h-24.6c-.5,0-.9-.4-.9-.9v-3.4c0-.5.4-.9.9-.9h26.4c.5,0,.9.4.9.9s-.4.9-.9.9h-25.5v1.6h23.7c.5,0,.9.4.9.9s-.4.9-.9.9Z"/>
  <path class="cls-1" d="M78.2,71.2h-30.1c-.4,0-.7-.2-.8-.6-.1-.3,0-.7.2-1l30.1-30.1c.2-.2.6-.3,1-.2.3.1.6.5.6.8v30.1c0,.5-.4.9-.9.9ZM50.3,69.4h27v-27l-27,27Z"/>
  <path class="cls-1" d="M72.8,65.7h-11.4c-.4,0-.7-.2-.8-.6-.1-.3,0-.7.2-1l11.4-11.4c.2-.2.6-.3,1-.2.3.1.6.5.6.8v11.4c0,.5-.4.9-.9.9ZM63.5,63.9h8.4v-8.4l-8.4,8.4Z"/>
  <path class="cls-1" d="M43.1,66.5c-.2,0-.5,0-.6-.3-.3-.3-.3-.7-.2-1l4.3-8.1c0,0,0-.2.2-.2l21.4-21.4c1.4-1.4,3.7-1.4,5.1,0,1.4,1.4,1.4,3.7,0,5.1l-21.4,21.4c0,0-.1.1-.2.2l-8.1,4.3c-.1,0-.3.1-.4.1ZM48.2,58l-2.9,5.5,5.5-2.9,21.3-21.3c.7-.7.7-1.9,0-2.6-.7-.7-1.9-.7-2.6,0l-21.3,21.3Z"/>
  <path class="cls-1" d="M51.3,62.2c-.2,0-.5,0-.6-.3l-3.9-3.9c-.4-.4-.4-.9,0-1.3s.9-.4,1.3,0l3.9,3.9c.4.4.4.9,0,1.3s-.4.3-.6.3Z"/>
  <path class="cls-1" d="M70.6,42.9c-.2,0-.5,0-.6-.3l-3.9-3.9c-.4-.4-.4-.9,0-1.3.4-.4.9-.4,1.3,0l3.9,3.9c.4.4.4.9,0,1.3-.2.2-.4.3-.6.3Z"/>
  <path class="cls-1" d="M12.7,65.5H1.8c-.5,0-.9-.4-.9-.9V9.9c0-.5.4-.9.9-.9h11c.5,0,.9.4.9.9v54.8c0,.5-.4.9-.9.9ZM2.7,63.8h9.2V10.8H2.7v53Z"/>
  <path class="cls-1" d="M12.7,15.4h-4.3c-.5,0-.9-.4-.9-.9s.4-.9.9-.9h4.3c.5,0,.9.4.9.9s-.4.9-.9.9Z"/>
  <path class="cls-1" d="M12.7,20.5h-2.2c-.5,0-.9-.4-.9-.9s.4-.9.9-.9h2.2c.5,0,.9.4.9.9s-.4.9-.9.9Z"/>
  <path class="cls-1" d="M12.7,25.5h-4.3c-.5,0-.9-.4-.9-.9s.4-.9.9-.9h4.3c.5,0,.9.4.9.9s-.4.9-.9.9Z"/>
  <path class="cls-1" d="M12.7,30.6h-2.2c-.5,0-.9-.4-.9-.9s.4-.9.9-.9h2.2c.5,0,.9.4.9.9s-.4.9-.9.9Z"/>
  <path class="cls-1" d="M12.7,35.6h-4.3c-.5,0-.9-.4-.9-.9s.4-.9.9-.9h4.3c.5,0,.9.4.9.9s-.4.9-.9.9Z"/>
  <path class="cls-1" d="M12.7,40.7h-2.2c-.5,0-.9-.4-.9-.9s.4-.9.9-.9h2.2c.5,0,.9.4.9.9,0,.5-.4.9-.9.9Z"/>
  <path class="cls-1" d="M12.7,45.7h-4.3c-.5,0-.9-.4-.9-.9s.4-.9.9-.9h4.3c.5,0,.9.4.9.9s-.4.9-.9.9Z"/>
  <path class="cls-1" d="M12.7,50.8h-2.2c-.5,0-.9-.4-.9-.9s.4-.9.9-.9h2.2c.5,0,.9.4.9.9s-.4.9-.9.9Z"/>
  <path class="cls-1" d="M12.7,55.8h-4.3c-.5,0-.9-.4-.9-.9s.4-.9.9-.9h4.3c.5,0,.9.4.9.9s-.4.9-.9.9Z"/>
  <path class="cls-1" d="M12.7,60.9h-2.2c-.5,0-.9-.4-.9-.9s.4-.9.9-.9h2.2c.5,0,.9.4.9.9s-.4.9-.9.9Z"/>
</svg>