<?xml version="1.0" encoding="UTF-8"?>
<svg id="Layer_1" data-name="Layer 1" xmlns="http://www.w3.org/2000/svg" version="1.1" viewBox="0 0 80 80">
  <defs>
    <style>
      .cls-1 {
        fill: #b69121;
        fill-rule: evenodd;
        stroke-width: 0px;
      }
    </style>
  </defs>
  <path class="cls-1" d="M71.5,51.5H8.5c-.5,0-.9-.4-.9-.9v-6.7c0-.5.4-.9.9-.9h63.1c.5,0,.9.4.9.9v6.7c0,.5-.4.9-.9.9ZM9.4,49.6h61.2v-4.9H9.4v4.9Z"/>
  <path class="cls-1" d="M71.5,80h-21.1c-.5,0-.9-.4-.9-.9v-28.5c0-.5.4-.9.9-.9h21.1c.5,0,.9.4.9.9v28.5c0,.5-.4.9-.9.9ZM51.4,78.1h19.2v-26.6h-19.2v26.6Z"/>
  <path class="cls-1" d="M29.6,80H8.5c-.5,0-.9-.4-.9-.9v-28.5c0-.5.4-.9.9-.9h21.1c.5,0,.9.4.9.9v28.5c0,.5-.4.9-.9.9ZM9.4,78.1h19.2v-26.6H9.4v26.6Z"/>
  <path class="cls-1" d="M50.4,58.4h-20.9c-.5,0-.9-.4-.9-.9v-6.9c0-1.2,1.9-1.2,1.9,0v5.9h19v-5.9c0-1.2,1.9-1.2,1.9,0v6.9c0,.5-.4.9-.9.9Z"/>
  <path class="cls-1" d="M24.8,69.7c-1.8,0-3.8.4-3.8-.9s1.6-.9,2.8-.9v-6c-1.2,0-2.8.3-2.8-.9s1.9-.9,3.8-.9.9.4.9.9v7.9c0,.5-.4.9-.9.9Z"/>
  <path class="cls-1" d="M58,69.7c-1.8,0-3.8.4-3.8-.9v-7.9c0-1.3,1.9-.9,3.8-.9s1.2,1.9,0,1.9h-1.9v6c1.2,0,2.8-.3,2.8.9s-.4.9-.9.9Z"/>
  <path class="cls-1" d="M71.5,75.1h-21.1c-.5,0-.9-.4-.9-.9v-18.8c0-.5.4-.9.9-.9h21.1c.5,0,.9.4.9.9v18.8c0,.5-.4.9-.9.9ZM51.4,73.3h19.2v-16.9h-19.2v16.9Z"/>
  <path class="cls-1" d="M29.6,75.1H8.5c-.5,0-.9-.4-.9-.9v-18.8c0-.5.4-.9.9-.9h21.1c.5,0,.9.4.9.9v18.8c0,.5-.4.9-.9.9ZM9.4,73.3h19.2v-16.9H9.4v16.9Z"/>
  <path class="cls-1" d="M42.6,55.6c-6.6,0-6.2.5-6.2-2.2s1.9-1.6,1.9.3h3.4c0-1.9,1.9-1.4,1.9-.3s.2,2.2-.9,2.2Z"/>
  <path class="cls-1" d="M64.1,44.7H15.9c-.5,0-.9-.4-.9-.9V8.2c0-.5.4-.9.9-.9h48.2c.5,0,.9.4.9.9v35.6c0,.5-.4.9-.9.9ZM16.8,42.9h46.3V9.1H16.8v33.7Z"/>
  <path class="cls-1" d="M59.9,44.7H20.1c-.5,0-.9-.4-.9-.9V8.2c0-.5.4-.9.9-.9h39.7c.5,0,.9.4.9.9v35.6c0,.5-.4.9-.9.9ZM21.1,42.9h37.9V9.1H21.1v33.7Z"/>
  <path class="cls-1" d="M67.4,9.1H12.6c-.5,0-.9-.4-.9-.9V.9C11.7.4,12.1,0,12.6,0h54.7c.5,0,.9.4.9.9v7.2c0,.5-.4.9-.9.9ZM13.6,7.2h52.9V1.9H13.6v5.4Z"/>
  <path class="cls-1" d="M32.2,32.1c-.8,0-1.3-1-.7-1.6l15.7-15.7c.9-.9,2.2.5,1.3,1.3l-15.7,15.7c-.2.2-.4.3-.7.3Z"/>
  <path class="cls-1" d="M38.9,33.1c-.8,0-1.3-1-.7-1.6l9.9-9.9c.9-.9,2.2.5,1.3,1.3l-9.9,9.9c-.2.2-.4.3-.7.3Z"/>
  <path class="cls-1" d="M31.2,25.3c-.8,0-1.3-1-.7-1.6l9.9-9.9c.9-.9,2.2.5,1.3,1.3l-9.9,9.9c-.2.2-.4.3-.7.3Z"/>
  <path class="cls-1" d="M76.8,80H3.2c-1.2,0-1.2-1.9,0-1.9h73.6c1.2,0,1.2,1.9,0,1.9Z"/>
  <path class="cls-1" d="M50.4,65.3h-20.9c-.5,0-.9-.4-.9-.9v-6.9c0-1.2,1.9-1.2,1.9,0v5.9h19v-5.9c0-1.2,1.9-1.2,1.9,0v6.9c0,.5-.4.9-.9.9Z"/>
  <path class="cls-1" d="M42.6,62.5c-6.6,0-6.2.5-6.2-2.2s1.9-1.6,1.9.3h3.4c0-1.9,1.9-1.4,1.9-.3s.2,2.2-.9,2.2Z"/>
  <path class="cls-1" d="M59.9,39.4H20.1c-1.2,0-1.2-1.9,0-1.9h39.7c1.2,0,1.2,1.9,0,1.9Z"/>
</svg>