<?xml version="1.0" encoding="UTF-8"?>
<svg id="Layer_1" data-name="Layer 1" xmlns="http://www.w3.org/2000/svg" xmlns:xlink="http://www.w3.org/1999/xlink" version="1.1" viewBox="0 0 80 80">
  <defs>
    <style>
      .cls-1 {
        clip-path: url(#clippath);
      }

      .cls-2 {
        fill: none;
      }

      .cls-2, .cls-3 {
        stroke-width: 0px;
      }

      .cls-3 {
        fill: #ae892b;
        fill-rule: evenodd;
      }
    </style>
    <clipPath id="clippath">
      <rect class="cls-2" width="80" height="80"/>
    </clipPath>
  </defs>
  <g class="cls-1">
    <g id="project_1" data-name="project 1">
      <g id="Layer_1-2" data-name="Layer_1">
        <g id="_224859792" data-name=" 224859792">
          <path id="_224862528" data-name=" 224862528" class="cls-3" d="M1.7,22.5v48.9c0,3.5,2.6,6.4,6,6.8V23.5h-3c-1.1,0-2.2-.4-3-1.1ZM8.6,80c-4.8,0-8.6-3.9-8.6-8.6V18.8c0-.5.4-.9.9-.9s.9.4.9.9c0,1.7,1.3,3,3,3h3.9c.5,0,.9.4.9.9v56.5c0,.5-.4.9-.9.9Z"/>
          <path id="_224862072" data-name=" 224862072" class="cls-3" d="M75.2,72H8.6c-.5,0-.9-.4-.9-.9s.4-.9.9-.9h66.6c1.7,0,3-1.3,3-3V11c0-.5.4-.9.9-.9s.9.4.9.9v56.2c0,2.6-2.1,4.8-4.8,4.8Z"/>
          <path id="_224862288" data-name=" 224862288" class="cls-3" d="M72.2,14h3c1.7,0,3-1.3,3-3,0-1.7-1.3-3-3-3h-3v6ZM75.3,15.8h-3.9c-.5,0-.9-.4-.9-.9v-7.8c0-.5.4-.9.9-.9h3.9c2.6,0,4.8,2.1,4.8,4.8s-2.1,4.8-4.8,4.8Z"/>
          <path id="_224861928" data-name=" 224861928" class="cls-3" d="M55.8,15.8h-23.8c-.5,0-.9-.4-.9-.9,0-.5.4-.9.9-.9h23.8c.5,0,.9.4.9.9,0,.5-.4.9-.9.9ZM71.4,15.8h-6.4c-.5,0-.9-.4-.9-.9,0-.5.4-.9.9-.9h6.4c.5,0,.9.4.9.9,0,.5-.4.9-.9.9ZM8.6,23.5h-3.9c-2.6,0-4.8-2.1-4.8-4.8,0-2.6,2.1-4.7,4.8-4.7h18.1c.5,0,.9.4.9.9,0,.5-.4.9-.9.9H4.8c-1.7,0-3,1.3-3,3,0,1.7,1.3,3,3,3h3.9c.5,0,.9.4.9.9,0,.5-.4.9-.9.9Z"/>
          <path id="_224862432" data-name=" 224862432" class="cls-3" d="M55.8,23.5h-17.6c-.5,0-.9-.4-.9-.9s.4-.9.9-.9h17.6c.5,0,.9.4.9.9,0,.5-.4.9-.9.9ZM71.4,64.3H16.4c-.5,0-.9-.4-.9-.9V22.7c0-.5.4-.9.9-.9h6.4c.5,0,.9.4.9.9,0,.5-.4.9-.9.9h-5.6v39h53.2V23.5h-5.6c-.5,0-.9-.4-.9-.9,0-.5.4-.9.9-.9h6.4c.5,0,.9.4.9.9v40.7c0,.5-.4.9-.9.9Z"/>
          <path id="_224861904" data-name=" 224861904" class="cls-3" d="M29.5,64.3c-.5,0-.9-.4-.9-.9v-13.7h-4.9v13.7c0,.5-.4.9-.9.9s-.9-.4-.9-.9v-14.6c0-.5.4-.9.9-.9h6.7c.5,0,.9.4.9.9v14.6c0,.5-.4.9-.9.9Z"/>
          <path id="_224862480" data-name=" 224862480" class="cls-3" d="M46,64.3c-.5,0-.9-.4-.9-.9v-8.7s-4.9,0-4.9,0v8.7c0,.5-.4.9-.9.9s-.9-.4-.9-.9v-9.5c0-.5.4-.9.9-.9h6.7c.5,0,.9.4.9.9v9.5c0,.5-.4.9-.9.9Z"/>
          <path id="_224862384" data-name=" 224862384" class="cls-3" d="M34.4,64.3c-.5,0-.9-.4-.9-.9v-19.1c0-.5.4-.9.9-.9s.9.4.9.9v19.1c0,.5-.4.9-.9.9Z"/>
          <path id="_224861952" data-name=" 224861952" class="cls-3" d="M50.3,50.8h-11.5c-.5,0-.9-.4-.9-.9,0-.5.4-.9.9-.9h11.5c.5,0,.9.4.9.9s-.4.9-.9.9Z"/>
          <path id="_224861064" data-name=" 224861064" class="cls-3" d="M43.3,50.8c-.5,0-.9-.4-.9-.9v-4.4c0-.5.4-.9.9-.9s.9.4.9.9v4.4c0,.5-.4.9-.9.9Z"/>
          <path id="_224861784" data-name=" 224861784" class="cls-3" d="M39.4,45.2h-14.2c-.5,0-.9-.4-.9-.9,0-.5.4-.9.9-.9h14.2c.5,0,.9.4.9.9,0,.5-.4.9-.9.9Z"/>
          <path id="_224861568" data-name=" 224861568" class="cls-3" d="M55.8,47.5c-.2,0-.4,0-.5-.2-.4-.3-.4-.9-.1-1.2l1.5-1.9c.2-.2.4-.3.7-.3s.5.1.7.3l.8,1,.8-1c.2-.2.4-.3.7-.3s.5.1.7.3l.8,1,.8-1c.2-.2.4-.3.7-.3s.5.1.7.3l1.5,1.9c.3.4.2.9-.1,1.2-.4.3-.9.2-1.2-.1l-.8-1-.8,1c-.2.2-.4.3-.7.3s-.5-.1-.7-.3l-.8-1-.8,1c-.2.2-.4.3-.7.3s-.5-.1-.7-.3l-.8-1-.8,1c-.2.2-.4.3-.7.3Z"/>
          <path id="_224861760" data-name=" 224861760" class="cls-3" d="M64.9,12.2h-9.1c-.5,0-.9-.4-.9-.9,0-.5.4-.9.9-.9h9.1c.5,0,.9.4.9.9,0,.5-.4.9-.9.9Z"/>
          <path id="_224861592" data-name=" 224861592" class="cls-3" d="M56.7,46.4l3.7,7.9,3.7-7.9V3.7c0-1.1-.9-1.9-1.9-1.9h-3.5c-1.1,0-1.9.9-1.9,1.9v42.8ZM60.4,57.3c-.3,0-.6-.2-.8-.5l-4.5-9.8c0-.1,0-.2,0-.4V3.7c0-2,1.6-3.7,3.7-3.7h3.5c2,0,3.7,1.6,3.7,3.7v43c0,.1,0,.3,0,.4l-4.5,9.8c-.1.3-.5.5-.8.5Z"/>
          <path id="_224861136" data-name=" 224861136" class="cls-3" d="M62.3,53.1c-.2,0-.4,0-.5-.2-.4-.3-.9-.5-1.4-.5s-1,.2-1.4.5c-.4.3-.9.2-1.2-.2-.3-.4-.2-.9.2-1.2.7-.6,1.6-.9,2.5-.9.9,0,1.7.3,2.5.9.4.3.5.8.2,1.2-.2.2-.4.3-.7.3Z"/>
          <path id="_224861424" data-name=" 224861424" class="cls-3" d="M60.4,45.6c-.5,0-.9-.4-.9-.9V11.4c0-.5.4-.9.9-.9.5,0,.9.4.9.9v33.4c0,.5-.4.9-.9.9Z"/>
          <path id="_224861088" data-name=" 224861088" class="cls-3" d="M64.9,12.2h-9.1c-.5,0-.9-.4-.9-.9,0-.5.4-.9.9-.9h9.1c.5,0,.9.4.9.9,0,.5-.4.9-.9.9Z"/>
          <path id="_224861184" data-name=" 224861184" class="cls-3" d="M23.7,38.9h26.5L23.7,5.8v33.1ZM52,40.7h-29.2c-.5,0-.9-.4-.9-.9V3.3c0-.4.2-.7.6-.8.4-.1.7,0,1,.3l29.2,36.4c.2.3.3.6.1.9-.1.3-.5.5-.8.5Z"/>
          <path id="_224861112" data-name=" 224861112" class="cls-3" d="M28.9,33.7h10.3l-10.3-12.9v12.9ZM41.1,35.4h-13c-.5,0-.9-.4-.9-.9v-16.3c0-.4.2-.7.6-.8.3-.1.7,0,1,.3l13,16.3c.2.3.3.6.1.9-.1.3-.5.5-.8.5Z"/>
          <path id="_224861448" data-name=" 224861448" class="cls-3" d="M26.3,40.7c0,0-.1,0-.2,0-.5-.1-.8-.6-.7-1,.1-.7,0-1.4-.6-1.9-.5-.5-1.2-.7-1.9-.6-.5,0-.9-.2-1-.7,0-.5.2-.9.7-1,1.3-.3,2.6.1,3.5,1,.9.9,1.3,2.2,1,3.5,0,.4-.4.7-.9.7Z"/>
          <path id="_224860560" data-name=" 224860560" class="cls-3" d="M29.4,40.7c-.5,0-.9-.4-.9-.9v-2.1c0-.5.4-.9.9-.9s.9.4.9.9v2.1c0,.5-.4.9-.9.9Z"/>
          <path id="_224860800" data-name=" 224860800" class="cls-3" d="M32.7,40.7c-.5,0-.9-.4-.9-.9v-2.1c0-.5.4-.9.9-.9s.9.4.9.9v2.1c0,.5-.4.9-.9.9Z"/>
          <path id="_224860464" data-name=" 224860464" class="cls-3" d="M36.1,40.7c-.5,0-.9-.4-.9-.9v-2.1c0-.5.4-.9.9-.9s.9.4.9.9v2.1c0,.5-.4.9-.9.9Z"/>
          <path id="_224860680" data-name=" 224860680" class="cls-3" d="M39.5,40.7c-.5,0-.9-.4-.9-.9v-2.1c0-.5.4-.9.9-.9s.9.4.9.9v2.1c0,.5-.4.9-.9.9Z"/>
          <path id="_224860344" data-name=" 224860344" class="cls-3" d="M42.9,40.7c-.5,0-.9-.4-.9-.9v-2.1c0-.5.4-.9.9-.9s.9.4.9.9v2.1c0,.5-.4.9-.9.9Z"/>
          <path id="_224860992" data-name=" 224860992" class="cls-3" d="M46.2,40.7c-.5,0-.9-.4-.9-.9v-2.1c0-.5.4-.9.9-.9s.9.4.9.9v2.1c0,.5-.4.9-.9.9Z"/>
          <path id="_224860416" data-name=" 224860416" class="cls-3" d="M24.9,17.2h-2.1c-.5,0-.9-.4-.9-.9,0-.5.4-.9.9-.9h2.1c.5,0,.9.4.9.9,0,.5-.4.9-.9.9Z"/>
          <path id="_224860848" data-name=" 224860848" class="cls-3" d="M24.9,20.6h-2.1c-.5,0-.9-.4-.9-.9,0-.5.4-.9.9-.9h2.1c.5,0,.9.4.9.9,0,.5-.4.9-.9.9Z"/>
          <path id="_224860896" data-name=" 224860896" class="cls-3" d="M24.9,24h-2.1c-.5,0-.9-.4-.9-.9,0-.5.4-.9.9-.9h2.1c.5,0,.9.4.9.9,0,.5-.4.9-.9.9Z"/>
          <path id="_224860752" data-name=" 224860752" class="cls-3" d="M24.9,27.4h-2.1c-.5,0-.9-.4-.9-.9,0-.5.4-.9.9-.9h2.1c.5,0,.9.4.9.9,0,.5-.4.9-.9.9Z"/>
          <path id="_224859912" data-name=" 224859912" class="cls-3" d="M24.9,30.7h-2.1c-.5,0-.9-.4-.9-.9,0-.5.4-.9.9-.9h2.1c.5,0,.9.4.9.9,0,.5-.4.9-.9.9Z"/>
          <path id="_224859600" data-name=" 224859600" class="cls-3" d="M24.9,34.1h-2.1c-.5,0-.9-.4-.9-.9,0-.5.4-.9.9-.9h2.1c.5,0,.9.4.9.9,0,.5-.4.9-.9.9Z"/>
          <path id="_224859840" data-name=" 224859840" class="cls-3" d="M24.9,13.9h-2.1c-.5,0-.9-.4-.9-.9,0-.5.4-.9.9-.9h2.1c.5,0,.9.4.9.9,0,.5-.4.9-.9.9Z"/>
          <path id="_224859888" data-name=" 224859888" class="cls-3" d="M50.3,55.7c-.5,0-.9-.4-.9-.9v-10c0-.5.4-.9.9-.9s.9.4.9.9v10c0,.5-.4.9-.9.9Z"/>
        </g>
      </g>
    </g>
  </g>
</svg>