<?xml version="1.0" encoding="UTF-8"?>
<svg id="Layer_1" data-name="Layer 1" xmlns="http://www.w3.org/2000/svg" version="1.1" viewBox="0 0 80 80">
  <defs>
    <style>
      .cls-1 {
        fill: #b69121;
        stroke-width: 0px;
      }
    </style>
  </defs>
  <g id="tool-box_1" data-name="tool-box 1">
    <g id="Group">
      <g id="Group_2" data-name="Group 2">
        <path id="Vector" class="cls-1" d="M77.3,79.4H2.7c-.5,0-.9-.4-.9-.9v-31.6c0-.5.4-.9.9-.9h74.7c.5,0,.9.4.9.9v31.6c0,.5-.4.9-.9.9ZM3.5,77.6h72.9v-29.8H3.5v29.8Z"/>
        <path id="Vector_2" data-name="Vector 2" class="cls-1" d="M22.4,61.5h-8.8c-.5,0-.9-.4-.9-.9v-13.7c0-.5.4-.9.9-.9h8.8c.5,0,.9.4.9.9v13.7c0,.5-.4.9-.9.9ZM14.5,59.8h7v-11.9h-7v11.9Z"/>
        <path id="Vector_3" data-name="Vector 3" class="cls-1" d="M66.4,61.5h-8.8c-.5,0-.9-.4-.9-.9v-13.7c0-.5.4-.9.9-.9h8.8c.5,0,.9.4.9.9v13.7c0,.5-.4.9-.9.9ZM58.5,59.8h7v-11.9h-7v11.9Z"/>
        <path id="Vector_4" data-name="Vector 4" class="cls-1" d="M27.8,47.8h-8.6c-.5,0-.9-.4-.9-.9v-10.3c0-.5.4-.9.9-.9h8.6c.5,0,.9.4.9.9v10.3c0,.5-.4.9-.9.9ZM20.1,46.1h6.8v-8.5h-6.8v8.5Z"/>
        <path id="Vector_5" data-name="Vector 5" class="cls-1" d="M25.8,37.5h-4.7c-.5,0-.9-.4-.9-.9V13.1h-1c-.5,0-.9-.4-.9-.9h0c-.7-1.2-2.2-2.1-4-2.2-1.7-.2-4.1.3-5.3,2-.2.3-.6.4-1,.3-.4-.1-.6-.5-.6-.8C7.5,5.5,12.4.6,18.4.6h9.3c.5,0,.9.4.9.9v.3c0,.2,0,.5.3.6.2.2.4.2.7.2.4,0,.8-.4.8-.9v-.2c0-.5.4-.9.9-.9h2.6c1.5,0,2.7,1.2,2.7,2.7v6.5c0,1.5-1.2,2.7-2.7,2.7h-2.6c-.5,0-.9-.4-.9-.9v-.3c0-.2,0-.5-.3-.6-.2-.2-.4-.2-.7-.2-.4,0-.8.4-.8.9v.9c0,.5-.4.9-.9.9h-1.1v23.5c0,.5-.4.9-.9.9ZM22,35.8h2.9V12.3c0-.5.4-.9.9-.9h1.1c0-1.4,1-2.6,2.3-2.7.7,0,1.5.2,2,.7.4.3.7.8.8,1.3h1.8c.5,0,.9-.4.9-.9V3.3c0-.5-.4-.9-.9-.9h-1.8c-.3,1-1.2,1.9-2.3,2-.7,0-1.5-.2-2-.7-.4-.4-.7-.8-.8-1.3h-8.5c-4.3,0-7.9,3-8.9,7,1.4-.8,3.2-1.2,5.1-1.1,2.4.2,4.4,1.4,5.4,3.1h1.2c.5,0,.9.4.9.9v23.5h0Z"/>
        <path id="Vector_6" data-name="Vector 6" class="cls-1" d="M43.7,47.8h-6.8c-.5,0-.9-.4-.9-.9v-13.3c-3.3-1.6-5.3-4.9-5.3-8.6s2-6.9,5.3-8.6c.3-.1.6-.1.9,0,.3.2.4.4.4.7v5.8c0,1.7,1.4,3,3,3s3-1.4,3-3v-5.8c0-.3.2-.6.4-.7.3-.2.6-.2.9,0,3.3,1.6,5.3,4.9,5.3,8.6s-2.1,7-5.3,8.6v13.3c0,.5-.4.9-.9.9ZM37.8,46.1h5v-13c0-.4.2-.7.5-.8,2.9-1.2,4.8-4.1,4.8-7.2s-1.1-4.7-3.1-6.2v4.3c0,2.6-2.1,4.8-4.8,4.8s-4.8-2.1-4.8-4.8v-4.3c-1.9,1.5-3.1,3.7-3.1,6.2s1.9,6,4.8,7.2c.3.1.5.5.5.8v13Z"/>
        <path id="Vector_7" data-name="Vector 7" class="cls-1" d="M58.9,47.8h-5.3c-.5,0-.9-.4-.9-.9v-23.5l-1.5-2.9c-.1-.2-.1-.5,0-.7l2.6-7.7c.1-.4.5-.6.8-.6h3.3c.4,0,.7.2.8.6l2.6,7.7c0,.2,0,.5,0,.7l-1.5,2.9v23.5c0,.5-.4.9-.9.9ZM54.5,46.1h3.6v-22.9c0-.1,0-.3,0-.4l1.4-2.8-2.3-6.7h-2l-2.3,6.7,1.4,2.8c0,.1,0,.3,0,.4v22.9Z"/>
        <path id="Vector_8" data-name="Vector 8" class="cls-1" d="M14.8,47.8h-7c-.4,0-.7-.3-.8-.6L2.1,30.1c-.3-1.1-.2-2.2.4-3.2.6-1,1.5-1.7,2.6-2,1.1-.3,2.2-.2,3.2.4,1,.6,1.7,1.5,2,2.6l5.4,18.9c0,.3,0,.5-.1.8-.2.2-.4.3-.7.3ZM8.4,46.1h5.2l-5.1-17.8c-.2-.6-.6-1.2-1.2-1.5-.6-.3-1.3-.4-1.9-.2-.6.2-1.2.6-1.5,1.2-.3.6-.4,1.3-.2,1.9l4.7,16.4Z"/>
        <path id="Vector_9" data-name="Vector 9" class="cls-1" d="M6.5,30.9c-.4,0-.7-.3-.8-.6l-.2-.8c-.1-.5.1-.9.6-1.1.5-.1.9.1,1.1.6l.2.8c.1.5-.1.9-.6,1.1,0,0-.2,0-.2,0Z"/>
        <path id="Vector_10" data-name="Vector 10" class="cls-1" d="M69.7,47.8h-7c-.3,0-.5-.1-.7-.3-.2-.2-.2-.5-.2-.7l2.5-10.3c-1.9-2-2.7-4.7-2-7.4.5-2.1,1.8-3.8,3.6-4.9,1.8-1.1,4-1.4,6-.9,4.3,1,6.9,5.3,5.9,9.6-.6,2.7-2.6,4.8-5.2,5.7l-2.1,8.7c0,.4-.4.7-.9.7ZM63.9,46.1h5.2l2.1-8.5c0-.3.3-.6.6-.6,2.2-.6,3.9-2.3,4.4-4.5.8-3.3-1.2-6.7-4.6-7.5-1.6-.4-3.3-.1-4.7.7-1.4.9-2.4,2.2-2.8,3.8-.5,2.2.2,4.5,1.9,6.1.2.2.3.5.3.9l-2.3,9.7Z"/>
        <path id="Vector_11" data-name="Vector 11" class="cls-1" d="M70.1,34.9c-.3,0-.6,0-.9-.1-1-.2-1.9-.9-2.4-1.8-.5-.9-.7-2-.5-3,.2-1,.9-1.9,1.8-2.4.9-.5,2-.7,3-.5,1,.2,1.9.9,2.4,1.8.5.9.7,2,.5,3-.2,1-.9,1.9-1.8,2.4-.6.4-1.3.6-2,.6ZM70.1,28.8c-.4,0-.8.1-1.1.3-.5.3-.9.8-1,1.4-.1.6,0,1.2.3,1.7.3.5.8.9,1.4,1,.6.1,1.2,0,1.7-.3.5-.3.9-.8,1-1.4.1-.6,0-1.2-.3-1.7-.3-.5-.8-.9-1.4-1-.2,0-.3,0-.5,0Z"/>
      </g>
    </g>
  </g>
</svg>