<?xml version="1.0" encoding="UTF-8"?>
<svg id="Layer_1" data-name="Layer 1" xmlns="http://www.w3.org/2000/svg" xmlns:xlink="http://www.w3.org/1999/xlink" version="1.1" viewBox="0 0 80 80">
  <defs>
    <style>
      .cls-1 {
        clip-path: url(#clippath);
      }

      .cls-2 {
        fill: none;
      }

      .cls-2, .cls-3 {
        stroke-width: 0px;
      }

      .cls-3 {
        fill: #b69121;
        fill-rule: evenodd;
      }
    </style>
    <clipPath id="clippath">
      <rect class="cls-2" width="80" height="80"/>
    </clipPath>
  </defs>
  <g class="cls-1">
    <g>
      <path class="cls-3" d="M17.9,65h52.9V7.8H17.9v57.3ZM71.7,66.8H17c-.5,0-.9-.4-.9-.9V6.9c0-.5.4-.9.9-.9h54.7c.5,0,.9.4.9.9v59c0,.5-.4.9-.9.9Z"/>
      <path class="cls-3" d="M39.1,66.8c-.5,0-.9-.4-.9-.9v-20.2c0-.5.4-.9.9-.9h10.7c.5,0,.9.4.9.9,0,.5-.4.9-.9.9h-9.8s0,19.4,0,19.4c0,.5-.4.9-.9.9Z"/>
      <path class="cls-3" d="M39.1,60.1h-14c-.5,0-.9-.4-.9-.9v-6.4c0-.5.4-.9.9-.9h14c.5,0,.9.4.9.9,0,.5-.4.9-.9.9h-13.2s0,4.6,0,4.6h13.2c.5,0,.9.4.9.9,0,.5-.4.9-.9.9Z"/>
      <path class="cls-3" d="M57.1,66.8c-.5,0-.9-.4-.9-.9v-15c0-.5.4-.9.9-.9h14.5c.5,0,.9.4.9.9s-.4.9-.9.9h-13.7s0,14.2,0,14.2c0,.5-.4.9-.9.9Z"/>
      <path class="cls-3" d="M64.4,66.8c-.5,0-.9-.4-.9-.9v-15c0-.5.4-.9.9-.9.5,0,.9.4.9.9v15c0,.5-.4.9-.9.9Z"/>
      <path class="cls-3" d="M71.7,21.4h-22.3c-.5,0-.9-.4-.9-.9V6.9c0-.5.4-.9.9-.9.5,0,.9.4.9.9v12.8h21.4c.5,0,.9.4.9.9s-.4.9-.9.9Z"/>
      <path class="cls-3" d="M71.7,14.6h-22.3c-.5,0-.9-.4-.9-.9,0-.5.4-.9.9-.9h22.3c.5,0,.9.4.9.9s-.4.9-.9.9Z"/>
      <path class="cls-3" d="M24.8,27.3h-7.8c-.5,0-.9-.4-.9-.9s.4-.9.9-.9h7.8c.5,0,.9.4.9.9s-.4.9-.9.9ZM36.7,27.3h-5.9c-.5,0-.9-.4-.9-.9,0-.5.4-.9.9-.9h5V6.9c0-.5.4-.9.9-.9.5,0,.9.4.9.9v19.5c0,.5-.4.9-.9.9Z"/>
      <path class="cls-3" d="M25.7,32.1h4.3v-10.6h-4.3v10.6ZM30.8,33.8h-6c-.5,0-.9-.4-.9-.9v-12.4c0-.5.4-.9.9-.9h6c.5,0,.9.4.9.9v12.4c0,.5-.4.9-.9.9Z"/>
      <path class="cls-3" d="M71.7,44.6h-10.7c-.5,0-.9-.4-.9-.9v-14.5c0-.5.4-.9.9-.9h10.7c.5,0,.9.4.9.9s-.4.9-.9.9h-9.9s0,12.8,0,12.8h9.9c.5,0,.9.4.9.9s-.4.9-.9.9Z"/>
      <path class="cls-3" d="M42.2,39.8h-25.2c-.5,0-.9-.4-.9-.9s.4-.9.9-.9h25.2c.5,0,.9.4.9.9s-.4.9-.9.9Z"/>
      <path class="cls-3" d="M45.6,32.4h9v-4.6h-9v4.6ZM55.4,34.1h-10.7c-.5,0-.9-.4-.9-.9v-6.4c0-.5.4-.9.9-.9h10.7c.5,0,.9.4.9.9v6.4c0,.5-.4.9-.9.9Z"/>
      <path class="cls-3" d="M77.7,72.8H10.5c-.5,0-.9-.4-.9-.9,0-.5.4-.9.9-.9h66.4V1.7H8.5c-3,0-5.3,2.4-5.3,5.5s2.3,5.5,5.1,5.5c.6,0,1.2-.1,1.8-.4.4-.2,1,0,1.1.5.2.4,0,1-.5,1.1-.8.3-1.6.5-2.5.5-3.8,0-6.9-3.3-6.9-7.2S4.5,0,8.5,0h69.2c.5,0,.9.4.9.9v71.1c0,.5-.4.9-.9.9Z"/>
      <path class="cls-3" d="M8.2,80c-3.7,0-6.7-3-6.7-6.8V7.2c0-.5.4-.9.9-.9.5,0,.9.4.9.9v66c0,2.8,2.2,5,5,5,.6,0,.9-.1,1.4-.4V13.2c0-.5.4-.9.9-.9.5,0,.9.4.9.9v65.2c0,.3-.2.6-.5.8h0c-.8.5-1.4.8-2.7.8Z"/>
    </g>
  </g>
</svg>