<?xml version="1.0" encoding="UTF-8"?>
<svg id="Layer_1" data-name="Layer 1" xmlns="http://www.w3.org/2000/svg" version="1.1" viewBox="0 0 80 80">
  <defs>
    <style>
      .cls-1 {
        fill: #f6d261;
        stroke-width: 0px;
      }
    </style>
  </defs>
  <g id="quote_1" data-name="quote 1">
    <path id="Vector" class="cls-1" d="M15.7,59c-3.3-3.7-5.3-7.7-5.3-14.3,0-11.7,8.3-22,20-27.3l3,4.3c-11,6-13.3,13.7-14,18.7,1.7-1,4-1.3,6.3-1,6,.7,10.7,5.3,10.7,11.7s-1.3,6-3.3,8.3c-2.3,2.3-5,3.3-8.3,3.3s-7-1.7-9-3.7h-.1ZM49,59c-3.3-3.7-5.3-7.7-5.3-14.3,0-11.7,8.3-22,20-27.3l3,4.3c-11,6-13.3,13.7-14,18.7,1.7-1,4-1.3,6.3-1,6,.7,10.7,5.3,10.7,11.7s-1.3,6-3.3,8.3-5,3.3-8.3,3.3-7-1.7-9-3.7h0Z"/>
  </g>
</svg>