<?xml version="1.0" encoding="UTF-8"?>
<svg id="Layer_1" data-name="Layer 1" xmlns="http://www.w3.org/2000/svg" xmlns:xlink="http://www.w3.org/1999/xlink" version="1.1" viewBox="0 0 172 30">
  <defs>
    <style>
      .cls-1 {
        fill: url(#Degradado_sin_nombre_75);
      }

      .cls-1, .cls-2, .cls-3, .cls-4, .cls-5, .cls-6, .cls-7, .cls-8, .cls-9, .cls-10, .cls-11, .cls-12, .cls-13, .cls-14, .cls-15, .cls-16, .cls-17, .cls-18, .cls-19, .cls-20, .cls-21, .cls-22, .cls-23, .cls-24, .cls-25, .cls-26, .cls-27, .cls-28, .cls-29, .cls-30, .cls-31, .cls-32, .cls-33, .cls-34, .cls-35, .cls-36, .cls-37, .cls-38, .cls-39, .cls-40, .cls-41, .cls-42, .cls-43, .cls-44, .cls-45, .cls-46, .cls-47, .cls-48, .cls-49, .cls-50, .cls-51, .cls-52, .cls-53, .cls-54, .cls-55, .cls-56, .cls-57, .cls-58, .cls-59, .cls-60, .cls-61, .cls-62, .cls-63, .cls-64, .cls-65, .cls-66, .cls-67, .cls-68, .cls-69, .cls-70, .cls-71, .cls-72, .cls-73, .cls-74, .cls-75, .cls-76, .cls-77, .cls-78, .cls-79, .cls-80, .cls-81, .cls-82, .cls-83 {
        stroke-width: 0px;
      }

      .cls-2 {
        fill: url(#Degradado_sin_nombre_75-4);
      }

      .cls-3 {
        fill: url(#Degradado_sin_nombre_75-2);
      }

      .cls-4 {
        fill: url(#Degradado_sin_nombre_75-3);
      }

      .cls-5 {
        fill: url(#Degradado_sin_nombre_75-5);
      }

      .cls-6 {
        fill: url(#Degradado_sin_nombre_75-9);
      }

      .cls-7 {
        fill: url(#Degradado_sin_nombre_75-8);
      }

      .cls-8 {
        fill: url(#Degradado_sin_nombre_75-7);
      }

      .cls-9 {
        fill: url(#Degradado_sin_nombre_75-6);
      }

      .cls-10 {
        fill: url(#Degradado_sin_nombre_75-45);
      }

      .cls-11 {
        fill: url(#Degradado_sin_nombre_75-44);
      }

      .cls-12 {
        fill: url(#Degradado_sin_nombre_75-48);
      }

      .cls-13 {
        fill: url(#Degradado_sin_nombre_75-43);
      }

      .cls-14 {
        fill: url(#Degradado_sin_nombre_75-49);
      }

      .cls-15 {
        fill: url(#Degradado_sin_nombre_75-42);
      }

      .cls-16 {
        fill: url(#Degradado_sin_nombre_75-41);
      }

      .cls-17 {
        fill: url(#Degradado_sin_nombre_75-40);
      }

      .cls-18 {
        fill: url(#Degradado_sin_nombre_75-47);
      }

      .cls-19 {
        fill: url(#Degradado_sin_nombre_75-46);
      }

      .cls-20 {
        fill: url(#Degradado_sin_nombre_75-27);
      }

      .cls-21 {
        fill: url(#Degradado_sin_nombre_75-24);
      }

      .cls-22 {
        fill: url(#Degradado_sin_nombre_75-37);
      }

      .cls-23 {
        fill: url(#Degradado_sin_nombre_75-39);
      }

      .cls-24 {
        fill: url(#Degradado_sin_nombre_75-38);
      }

      .cls-25 {
        fill: url(#Degradado_sin_nombre_75-36);
      }

      .cls-26 {
        fill: url(#Degradado_sin_nombre_75-33);
      }

      .cls-27 {
        fill: url(#Degradado_sin_nombre_75-34);
      }

      .cls-28 {
        fill: url(#Degradado_sin_nombre_75-26);
      }

      .cls-29 {
        fill: url(#Degradado_sin_nombre_75-29);
      }

      .cls-30 {
        fill: url(#Degradado_sin_nombre_75-23);
      }

      .cls-31 {
        fill: url(#Degradado_sin_nombre_75-35);
      }

      .cls-32 {
        fill: url(#Degradado_sin_nombre_75-32);
      }

      .cls-33 {
        fill: url(#Degradado_sin_nombre_75-22);
      }

      .cls-34 {
        fill: url(#Degradado_sin_nombre_75-25);
      }

      .cls-35 {
        fill: url(#Degradado_sin_nombre_75-28);
      }

      .cls-36 {
        fill: url(#Degradado_sin_nombre_75-30);
      }

      .cls-37 {
        fill: url(#Degradado_sin_nombre_75-31);
      }

      .cls-38 {
        fill: url(#Degradado_sin_nombre_75-72);
      }

      .cls-39 {
        fill: url(#Degradado_sin_nombre_75-74);
      }

      .cls-40 {
        fill: url(#Degradado_sin_nombre_75-71);
      }

      .cls-41 {
        fill: url(#Degradado_sin_nombre_75-73);
      }

      .cls-42 {
        fill: url(#Degradado_sin_nombre_75-67);
      }

      .cls-43 {
        fill: url(#Degradado_sin_nombre_75-66);
      }

      .cls-44 {
        fill: url(#Degradado_sin_nombre_75-65);
      }

      .cls-45 {
        fill: url(#Degradado_sin_nombre_75-68);
      }

      .cls-46 {
        fill: url(#Degradado_sin_nombre_75-69);
      }

      .cls-47 {
        fill: url(#Degradado_sin_nombre_75-81);
      }

      .cls-48 {
        fill: url(#Degradado_sin_nombre_75-75);
      }

      .cls-49 {
        fill: url(#Degradado_sin_nombre_75-82);
      }

      .cls-50 {
        fill: url(#Degradado_sin_nombre_75-76);
      }

      .cls-51 {
        fill: url(#Degradado_sin_nombre_75-77);
      }

      .cls-52 {
        fill: url(#Degradado_sin_nombre_75-60);
      }

      .cls-53 {
        fill: url(#Degradado_sin_nombre_75-78);
      }

      .cls-54 {
        fill: url(#Degradado_sin_nombre_75-79);
      }

      .cls-55 {
        fill: url(#Degradado_sin_nombre_75-80);
      }

      .cls-56 {
        fill: url(#Degradado_sin_nombre_75-58);
      }

      .cls-57 {
        fill: url(#Degradado_sin_nombre_75-57);
      }

      .cls-58 {
        fill: url(#Degradado_sin_nombre_75-55);
      }

      .cls-59 {
        fill: url(#Degradado_sin_nombre_75-59);
      }

      .cls-60 {
        fill: url(#Degradado_sin_nombre_75-56);
      }

      .cls-61 {
        fill: url(#Degradado_sin_nombre_75-53);
      }

      .cls-62 {
        fill: url(#Degradado_sin_nombre_75-51);
      }

      .cls-63 {
        fill: url(#Degradado_sin_nombre_75-52);
      }

      .cls-64 {
        fill: url(#Degradado_sin_nombre_75-50);
      }

      .cls-65 {
        fill: url(#Degradado_sin_nombre_75-54);
      }

      .cls-66 {
        fill: url(#Degradado_sin_nombre_75-70);
      }

      .cls-67 {
        fill: url(#Degradado_sin_nombre_75-64);
      }

      .cls-68 {
        fill: url(#Degradado_sin_nombre_75-62);
      }

      .cls-69 {
        fill: url(#Degradado_sin_nombre_75-63);
      }

      .cls-70 {
        fill: url(#Degradado_sin_nombre_75-61);
      }

      .cls-71 {
        fill: url(#Degradado_sin_nombre_75-11);
      }

      .cls-72 {
        fill: url(#Degradado_sin_nombre_75-10);
      }

      .cls-73 {
        fill: url(#Degradado_sin_nombre_75-15);
      }

      .cls-74 {
        fill: url(#Degradado_sin_nombre_75-14);
      }

      .cls-75 {
        fill: url(#Degradado_sin_nombre_75-21);
      }

      .cls-76 {
        fill: url(#Degradado_sin_nombre_75-12);
      }

      .cls-77 {
        fill: url(#Degradado_sin_nombre_75-20);
      }

      .cls-78 {
        fill: url(#Degradado_sin_nombre_75-17);
      }

      .cls-79 {
        fill: url(#Degradado_sin_nombre_75-16);
      }

      .cls-80 {
        fill: url(#Degradado_sin_nombre_75-13);
      }

      .cls-81 {
        fill: url(#Degradado_sin_nombre_75-19);
      }

      .cls-82 {
        fill: url(#Degradado_sin_nombre_75-18);
      }

      .cls-83 {
        fill: #050505;
      }
    </style>
    <linearGradient id="Degradado_sin_nombre_75" data-name="Degradado sin nombre 75" x1="14.1" y1="12.1" x2="14.1" y2="12.1" gradientUnits="userSpaceOnUse">
      <stop offset=".2" stop-color="#cd9800"/>
      <stop offset=".5" stop-color="#ffe000"/>
      <stop offset=".8" stop-color="#cd9800"/>
    </linearGradient>
    <linearGradient id="Degradado_sin_nombre_75-2" data-name="Degradado sin nombre 75" x1="13.3" y1="10.3" x2="13.3" y2="10.3" xlink:href="#Degradado_sin_nombre_75"/>
    <linearGradient id="Degradado_sin_nombre_75-3" data-name="Degradado sin nombre 75" x1="15.2" y1="15.1" x2="15.2" y2="15.1" xlink:href="#Degradado_sin_nombre_75"/>
    <linearGradient id="Degradado_sin_nombre_75-4" data-name="Degradado sin nombre 75" x1="15.9" y1="11.7" x2="15.9" y2="11.7" xlink:href="#Degradado_sin_nombre_75"/>
    <linearGradient id="Degradado_sin_nombre_75-5" data-name="Degradado sin nombre 75" x1="13.2" y1="20.8" x2="13.2" y2="20.8" xlink:href="#Degradado_sin_nombre_75"/>
    <linearGradient id="Degradado_sin_nombre_75-6" data-name="Degradado sin nombre 75" x1="19.7" y1="26.2" x2="19.7" y2="26.2" xlink:href="#Degradado_sin_nombre_75"/>
    <linearGradient id="Degradado_sin_nombre_75-7" data-name="Degradado sin nombre 75" x1="9.9" y1="26.2" x2="9.9" y2="26.2" xlink:href="#Degradado_sin_nombre_75"/>
    <linearGradient id="Degradado_sin_nombre_75-8" data-name="Degradado sin nombre 75" x1="17.2" y1="16.5" x2="17.2" y2="16.5" xlink:href="#Degradado_sin_nombre_75"/>
    <linearGradient id="Degradado_sin_nombre_75-9" data-name="Degradado sin nombre 75" x1="15.7" y1="26.1" x2="15.7" y2="26.1" xlink:href="#Degradado_sin_nombre_75"/>
    <linearGradient id="Degradado_sin_nombre_75-10" data-name="Degradado sin nombre 75" x1="13.3" y1="10" x2="13.3" y2="10" xlink:href="#Degradado_sin_nombre_75"/>
    <linearGradient id="Degradado_sin_nombre_75-11" data-name="Degradado sin nombre 75" x1="16.2" y1="8" x2="16.2" y2="8" xlink:href="#Degradado_sin_nombre_75"/>
    <linearGradient id="Degradado_sin_nombre_75-12" data-name="Degradado sin nombre 75" x1="24.1" y1="10.9" x2="24.1" y2="10.9" xlink:href="#Degradado_sin_nombre_75"/>
    <linearGradient id="Degradado_sin_nombre_75-13" data-name="Degradado sin nombre 75" x1="24.1" y1="10.9" x2="24.1" y2="10.9" xlink:href="#Degradado_sin_nombre_75"/>
    <linearGradient id="Degradado_sin_nombre_75-14" data-name="Degradado sin nombre 75" x1="22.9" y1="15.4" x2="22.9" y2="15.4" xlink:href="#Degradado_sin_nombre_75"/>
    <linearGradient id="Degradado_sin_nombre_75-15" data-name="Degradado sin nombre 75" x1="13.5" y1="2.1" x2="14.4" y2="2.1" xlink:href="#Degradado_sin_nombre_75"/>
    <linearGradient id="Degradado_sin_nombre_75-16" data-name="Degradado sin nombre 75" x1="13.5" y1="4.1" x2="15" y2="4.1" xlink:href="#Degradado_sin_nombre_75"/>
    <linearGradient id="Degradado_sin_nombre_75-17" data-name="Degradado sin nombre 75" x1="11.1" y1="3.6" x2="12.6" y2="3.6" xlink:href="#Degradado_sin_nombre_75"/>
    <linearGradient id="Degradado_sin_nombre_75-18" data-name="Degradado sin nombre 75" x1="14.1" y1="5.9" x2="15.4" y2="5.9" xlink:href="#Degradado_sin_nombre_75"/>
    <linearGradient id="Degradado_sin_nombre_75-19" data-name="Degradado sin nombre 75" x1="10.6" y1="6.2" x2="13.1" y2="6.2" xlink:href="#Degradado_sin_nombre_75"/>
    <linearGradient id="Degradado_sin_nombre_75-20" data-name="Degradado sin nombre 75" x1="7.1" y1="5.1" x2="9.1" y2="5.1" xlink:href="#Degradado_sin_nombre_75"/>
    <linearGradient id="Degradado_sin_nombre_75-21" data-name="Degradado sin nombre 75" x1="7.1" y1="6.9" x2="9.2" y2="6.9" xlink:href="#Degradado_sin_nombre_75"/>
    <linearGradient id="Degradado_sin_nombre_75-22" data-name="Degradado sin nombre 75" x1="7.6" y1="8.4" x2="9.7" y2="8.4" xlink:href="#Degradado_sin_nombre_75"/>
    <linearGradient id="Degradado_sin_nombre_75-23" data-name="Degradado sin nombre 75" x1="5.8" y1="6.8" x2="6.8" y2="6.8" xlink:href="#Degradado_sin_nombre_75"/>
    <linearGradient id="Degradado_sin_nombre_75-24" data-name="Degradado sin nombre 75" x1="6.9" y1="8.9" x2="7.8" y2="8.9" xlink:href="#Degradado_sin_nombre_75"/>
    <linearGradient id="Degradado_sin_nombre_75-25" data-name="Degradado sin nombre 75" x1="10.2" y1="11.7" x2="11.1" y2="11.7" xlink:href="#Degradado_sin_nombre_75"/>
    <linearGradient id="Degradado_sin_nombre_75-26" data-name="Degradado sin nombre 75" x1="11.3" y1="11.2" x2="13.1" y2="11.2" xlink:href="#Degradado_sin_nombre_75"/>
    <linearGradient id="Degradado_sin_nombre_75-27" data-name="Degradado sin nombre 75" x1="11.5" y1="12.9" x2="12.4" y2="12.9" xlink:href="#Degradado_sin_nombre_75"/>
    <linearGradient id="Degradado_sin_nombre_75-28" data-name="Degradado sin nombre 75" x1="12.6" y1="12.7" x2="13.8" y2="12.7" xlink:href="#Degradado_sin_nombre_75"/>
    <linearGradient id="Degradado_sin_nombre_75-29" data-name="Degradado sin nombre 75" x1="13.2" y1="8.9" x2="13.9" y2="8.9" xlink:href="#Degradado_sin_nombre_75"/>
    <linearGradient id="Degradado_sin_nombre_75-30" data-name="Degradado sin nombre 75" x1="14.7" y1="7.4" x2="16" y2="7.4" xlink:href="#Degradado_sin_nombre_75"/>
    <linearGradient id="Degradado_sin_nombre_75-31" data-name="Degradado sin nombre 75" x1="14.5" y1="9.6" x2="15.8" y2="9.6" xlink:href="#Degradado_sin_nombre_75"/>
    <linearGradient id="Degradado_sin_nombre_75-32" data-name="Degradado sin nombre 75" x1="14.7" y1="11.2" x2="15.9" y2="11.2" xlink:href="#Degradado_sin_nombre_75"/>
    <linearGradient id="Degradado_sin_nombre_75-33" data-name="Degradado sin nombre 75" x1="15.6" y1="5.6" x2="16.6" y2="5.6" xlink:href="#Degradado_sin_nombre_75"/>
    <linearGradient id="Degradado_sin_nombre_75-34" data-name="Degradado sin nombre 75" x1="16.1" y1="1.8" x2="18.1" y2="1.8" xlink:href="#Degradado_sin_nombre_75"/>
    <linearGradient id="Degradado_sin_nombre_75-35" data-name="Degradado sin nombre 75" x1="16.5" y1="3.3" x2="17.6" y2="3.3" xlink:href="#Degradado_sin_nombre_75"/>
    <linearGradient id="Degradado_sin_nombre_75-36" data-name="Degradado sin nombre 75" x1="17.2" y1="4.7" x2="18.6" y2="4.7" xlink:href="#Degradado_sin_nombre_75"/>
    <linearGradient id="Degradado_sin_nombre_75-37" data-name="Degradado sin nombre 75" x1="18.7" y1="4.7" x2="19.7" y2="4.7" xlink:href="#Degradado_sin_nombre_75"/>
    <linearGradient id="Degradado_sin_nombre_75-38" data-name="Degradado sin nombre 75" x1="16.1" y1="13.2" x2="16.8" y2="13.2" xlink:href="#Degradado_sin_nombre_75"/>
    <linearGradient id="Degradado_sin_nombre_75-39" data-name="Degradado sin nombre 75" x1="18.9" y1="2.3" x2="20.3" y2="2.3" xlink:href="#Degradado_sin_nombre_75"/>
    <linearGradient id="Degradado_sin_nombre_75-40" data-name="Degradado sin nombre 75" x1="18" y1="2.9" x2="19.5" y2="2.9" xlink:href="#Degradado_sin_nombre_75"/>
    <linearGradient id="Degradado_sin_nombre_75-41" data-name="Degradado sin nombre 75" x1="20.6" y1="3.1" x2="22.1" y2="3.1" xlink:href="#Degradado_sin_nombre_75"/>
    <linearGradient id="Degradado_sin_nombre_75-42" data-name="Degradado sin nombre 75" x1="20.6" y1="5.3" x2="21.4" y2="5.3" xlink:href="#Degradado_sin_nombre_75"/>
    <linearGradient id="Degradado_sin_nombre_75-43" data-name="Degradado sin nombre 75" x1="19.3" y1="8.8" x2="20.4" y2="8.8" xlink:href="#Degradado_sin_nombre_75"/>
    <linearGradient id="Degradado_sin_nombre_75-44" data-name="Degradado sin nombre 75" x1="22.2" y1="5.9" x2="23.3" y2="5.9" xlink:href="#Degradado_sin_nombre_75"/>
    <linearGradient id="Degradado_sin_nombre_75-45" data-name="Degradado sin nombre 75" x1="23" y1="7" x2="25.4" y2="7" xlink:href="#Degradado_sin_nombre_75"/>
    <linearGradient id="Degradado_sin_nombre_75-46" data-name="Degradado sin nombre 75" x1="21.6" y1="9" x2="23.6" y2="9" xlink:href="#Degradado_sin_nombre_75"/>
    <linearGradient id="Degradado_sin_nombre_75-47" data-name="Degradado sin nombre 75" x1="18" y1="6.8" x2="18.8" y2="6.8" xlink:href="#Degradado_sin_nombre_75"/>
    <linearGradient id="Degradado_sin_nombre_75-48" data-name="Degradado sin nombre 75" x1="17.1" y1="6.8" x2="17.6" y2="6.8" xlink:href="#Degradado_sin_nombre_75"/>
    <linearGradient id="Degradado_sin_nombre_75-49" data-name="Degradado sin nombre 75" x1="16.5" y1="8.5" x2="17.3" y2="8.5" xlink:href="#Degradado_sin_nombre_75"/>
    <linearGradient id="Degradado_sin_nombre_75-50" data-name="Degradado sin nombre 75" x1="18" y1="9" x2="18.8" y2="9" xlink:href="#Degradado_sin_nombre_75"/>
    <linearGradient id="Degradado_sin_nombre_75-51" data-name="Degradado sin nombre 75" x1="16.8" y1="10.6" x2="17.6" y2="10.6" xlink:href="#Degradado_sin_nombre_75"/>
    <linearGradient id="Degradado_sin_nombre_75-52" data-name="Degradado sin nombre 75" x1="26" y1="7.2" x2="27.8" y2="7.2" xlink:href="#Degradado_sin_nombre_75"/>
    <linearGradient id="Degradado_sin_nombre_75-53" data-name="Degradado sin nombre 75" x1="24.5" y1="10.1" x2="26.5" y2="10.1" xlink:href="#Degradado_sin_nombre_75"/>
    <linearGradient id="Degradado_sin_nombre_75-54" data-name="Degradado sin nombre 75" x1="27.6" y1="10" x2="28.6" y2="10" xlink:href="#Degradado_sin_nombre_75"/>
    <linearGradient id="Degradado_sin_nombre_75-55" data-name="Degradado sin nombre 75" x1="26.9" y1="8.9" x2="27.8" y2="8.9" xlink:href="#Degradado_sin_nombre_75"/>
    <linearGradient id="Degradado_sin_nombre_75-56" data-name="Degradado sin nombre 75" x1="24" y1="9.3" x2="25.8" y2="9.3" xlink:href="#Degradado_sin_nombre_75"/>
    <linearGradient id="Degradado_sin_nombre_75-57" data-name="Degradado sin nombre 75" x1="26.1" y1="11" x2="27" y2="11" xlink:href="#Degradado_sin_nombre_75"/>
    <linearGradient id="Degradado_sin_nombre_75-58" data-name="Degradado sin nombre 75" x1="24.6" y1="12.4" x2="25.6" y2="12.4" xlink:href="#Degradado_sin_nombre_75"/>
    <linearGradient id="Degradado_sin_nombre_75-59" data-name="Degradado sin nombre 75" x1="23.6" y1="11.6" x2="25" y2="11.6" xlink:href="#Degradado_sin_nombre_75"/>
    <linearGradient id="Degradado_sin_nombre_75-60" data-name="Degradado sin nombre 75" x1="22.9" y1="13.2" x2="24.3" y2="13.2" xlink:href="#Degradado_sin_nombre_75"/>
    <linearGradient id="Degradado_sin_nombre_75-61" data-name="Degradado sin nombre 75" x1="27.2" y1="12.4" x2="29.3" y2="12.4" xlink:href="#Degradado_sin_nombre_75"/>
    <linearGradient id="Degradado_sin_nombre_75-62" data-name="Degradado sin nombre 75" x1="26.1" y1="13.4" x2="28.3" y2="13.4" xlink:href="#Degradado_sin_nombre_75"/>
    <linearGradient id="Degradado_sin_nombre_75-63" data-name="Degradado sin nombre 75" x1="25.1" y1="14.2" x2="26.2" y2="14.2" xlink:href="#Degradado_sin_nombre_75"/>
    <linearGradient id="Degradado_sin_nombre_75-64" data-name="Degradado sin nombre 75" x1="2.5" y1="14.9" x2="29.7" y2="14.9" xlink:href="#Degradado_sin_nombre_75"/>
    <linearGradient id="Degradado_sin_nombre_75-65" data-name="Degradado sin nombre 75" x1="26" y1="16.3" x2="27.9" y2="16.3" xlink:href="#Degradado_sin_nombre_75"/>
    <linearGradient id="Degradado_sin_nombre_75-66" data-name="Degradado sin nombre 75" x1="28.4" y1="17.4" x2="29.3" y2="17.4" xlink:href="#Degradado_sin_nombre_75"/>
    <linearGradient id="Degradado_sin_nombre_75-67" data-name="Degradado sin nombre 75" x1="23.7" y1="18.9" x2="25.8" y2="18.9" xlink:href="#Degradado_sin_nombre_75"/>
    <linearGradient id="Degradado_sin_nombre_75-68" data-name="Degradado sin nombre 75" x1="7.1" y1="12.4" x2="8.1" y2="12.4" xlink:href="#Degradado_sin_nombre_75"/>
    <linearGradient id="Degradado_sin_nombre_75-69" data-name="Degradado sin nombre 75" x1="4.5" y1="10.3" x2="6.8" y2="10.3" xlink:href="#Degradado_sin_nombre_75"/>
    <linearGradient id="Degradado_sin_nombre_75-70" data-name="Degradado sin nombre 75" x1="4.8" y1="8.4" x2="5.8" y2="8.4" xlink:href="#Degradado_sin_nombre_75"/>
    <linearGradient id="Degradado_sin_nombre_75-71" data-name="Degradado sin nombre 75" x1="4.7" y1="12" x2="6.4" y2="12" xlink:href="#Degradado_sin_nombre_75"/>
    <linearGradient id="Degradado_sin_nombre_75-72" data-name="Degradado sin nombre 75" x1="3.3" y1="11.6" x2="4.4" y2="11.6" xlink:href="#Degradado_sin_nombre_75"/>
    <linearGradient id="Degradado_sin_nombre_75-73" data-name="Degradado sin nombre 75" x1="4.1" y1="14.2" x2="6.2" y2="14.2" xlink:href="#Degradado_sin_nombre_75"/>
    <linearGradient id="Degradado_sin_nombre_75-74" data-name="Degradado sin nombre 75" x1="3.1" y1="16.9" x2="4.4" y2="16.9" xlink:href="#Degradado_sin_nombre_75"/>
    <linearGradient id="Degradado_sin_nombre_75-75" data-name="Degradado sin nombre 75" x1="24.6" y1="5.6" x2="27.1" y2="5.6" xlink:href="#Degradado_sin_nombre_75"/>
    <linearGradient id="Degradado_sin_nombre_75-76" data-name="Degradado sin nombre 75" x1="11" y1="2.1" x2="13.1" y2="2.1" xlink:href="#Degradado_sin_nombre_75"/>
    <linearGradient id="Degradado_sin_nombre_75-77" data-name="Degradado sin nombre 75" x1="6.4" y1="17.6" x2="8.4" y2="17.6" xlink:href="#Degradado_sin_nombre_75"/>
    <linearGradient id="Degradado_sin_nombre_75-78" data-name="Degradado sin nombre 75" x1="18.5" y1="26.7" x2="18.8" y2="26.7" xlink:href="#Degradado_sin_nombre_75"/>
    <linearGradient id="Degradado_sin_nombre_75-79" data-name="Degradado sin nombre 75" x1="19.1" y1="27" x2="19.3" y2="27" xlink:href="#Degradado_sin_nombre_75"/>
    <linearGradient id="Degradado_sin_nombre_75-80" data-name="Degradado sin nombre 75" x1="20.1" y1="28" x2="24.5" y2="28" xlink:href="#Degradado_sin_nombre_75"/>
    <linearGradient id="Degradado_sin_nombre_75-81" data-name="Degradado sin nombre 75" x1="8" y1="25.1" x2="15.2" y2="25.1" xlink:href="#Degradado_sin_nombre_75"/>
    <linearGradient id="Degradado_sin_nombre_75-82" data-name="Degradado sin nombre 75" x1="16.4" y1="23.9" x2="18.5" y2="23.9" xlink:href="#Degradado_sin_nombre_75"/>
  </defs>
  <g>
    <path class="cls-83" d="M62.1,28h-11v-1.3c1,0,1.8-.2,2.4-.4.6-.2,1-.4,1-.7s0-.2,0-.4c0-.2,0-.3-.1-.4l-2.2-5.9h-9.3c-.3.9-.6,1.6-.9,2.3-.2.6-.4,1.2-.6,1.8-.2.5-.3,1-.3,1.3,0,.3,0,.6,0,.8,0,.5.4.9,1.2,1.2s1.7.4,2.7.5v1.3h-10v-1.3c.3,0,.7,0,1.2-.2.5-.1.9-.3,1.2-.5.5-.3.9-.7,1.2-1,.3-.4.5-.9.8-1.5,1.3-3.3,2.8-7,4.4-11.1,1.6-4.1,3-7.8,4.3-11h1.5l8.8,22.7c.2.5.4.9.6,1.2.2.3.6.6,1,.9.3.2.7.3,1.1.4.5.1.8.2,1.2.2v1.3ZM51.5,17.2l-4-10.2-4,10.2h8Z"/>
    <path class="cls-83" d="M88.9,28h-7.1c-1.6-2.5-3-4.6-4.3-6.4-1.3-1.8-2.7-3.6-4.2-5.6h-2.7v8.4c0,.4,0,.8.2,1.1.1.3.4.6.9.8.2,0,.6.2,1.2.2.6,0,1,.1,1.4.1v1.3h-11.2v-1.3c.3,0,.7,0,1.3-.1.6,0,1-.1,1.2-.2.4-.2.6-.4.8-.7.2-.3.3-.7.3-1.2V5.3c0-.4,0-.8-.2-1.2-.1-.3-.4-.6-.9-.8-.3-.1-.7-.2-1.2-.3-.5,0-.9-.2-1.3-.2v-1.3h12.2c1.1,0,2.2.1,3.2.3,1,.2,1.9.6,2.7,1.1.8.5,1.4,1.1,1.9,1.9.5.8.7,1.8.7,2.9s-.2,1.9-.5,2.7c-.3.8-.8,1.5-1.4,2-.6.5-1.2,1-2,1.4-.8.4-1.7.7-2.6,1,1.3,1.7,2.4,3.2,3.3,4.3.9,1.2,1.9,2.6,3.2,4.3.5.7,1,1.3,1.5,1.6s.9.6,1.3.9c.3.2.7.3,1.2.4.5,0,.9.1,1.2.1v1.3ZM79.1,8.3c0-1.6-.5-2.9-1.4-3.8-.9-.9-2.2-1.4-3.9-1.4h-3.2v11.3h2.4c1.7,0,3.2-.5,4.3-1.6,1.1-1.1,1.7-2.6,1.7-4.5Z"/>
    <path class="cls-83" d="M111.5,8.8h-1.3c-.1-.4-.3-1-.6-1.6-.3-.6-.6-1.2-1-1.7-.4-.6-.8-1.1-1.2-1.5-.4-.4-.9-.7-1.3-.7-.4,0-.9,0-1.5-.1-.6,0-1.1,0-1.6,0h-1.1v21.1c0,.4,0,.8.3,1.1.2.3.5.6.9.8.2,0,.7.2,1.4.4.7.1,1.3.2,1.7.2v1.3h-12.5v-1.3c.3,0,.9,0,1.6-.1.7,0,1.2-.2,1.5-.3.4-.2.7-.4.9-.7.2-.3.3-.7.3-1.2V3.1h-1.1c-.4,0-.9,0-1.4,0-.6,0-1.1,0-1.6.1-.4,0-.8.3-1.3.7-.4.4-.9.9-1.2,1.5-.4.6-.7,1.1-1,1.8-.3.6-.5,1.1-.6,1.6h-1.3V1.6h23.1v7.1Z"/>
    <path class="cls-83" d="M141.1,28h-11v-1.3c.3,0,.7,0,1.3-.1.6,0,1-.1,1.2-.2.4-.1.6-.4.8-.7.2-.3.3-.7.3-1.2v-9.4h-12.5v9.2c0,.4,0,.8.2,1.1.1.3.4.6.9.8.2.1.6.2,1.1.3.5.1,1,.2,1.3.2v1.3h-11v-1.3c.3,0,.7,0,1.3-.1.6,0,1-.1,1.2-.2.4-.1.6-.4.8-.7.2-.3.3-.7.3-1.2V5.4c0-.4,0-.8-.2-1.1s-.4-.6-.8-.8c-.3-.2-.7-.3-1.2-.4-.5-.1-.9-.2-1.2-.2v-1.3h11v1.3c-.3,0-.8,0-1.3.2-.5,0-.9.2-1.1.3-.4.1-.7.4-.9.7-.1.3-.2.7-.2,1.1v8.2h12.5v-8c0-.4,0-.8-.2-1.1s-.4-.6-.8-.8c-.3-.2-.7-.3-1.2-.4-.5-.1-.9-.2-1.2-.2v-1.3h11v1.3c-.3,0-.8,0-1.3.2-.5,0-.9.2-1.1.3-.4.1-.7.4-.9.7-.1.3-.2.7-.2,1.1v19c0,.4,0,.8.2,1.1.1.3.4.6.9.8.2.1.6.2,1.1.3.5.1,1,.2,1.3.2v1.3Z"/>
    <path class="cls-83" d="M169.5,28h-11v-1.3c1,0,1.8-.2,2.4-.4.6-.2,1-.4,1-.7s0-.2,0-.4c0-.2,0-.3-.1-.4l-2.2-5.9h-9.3c-.3.9-.6,1.6-.9,2.3-.2.6-.4,1.2-.6,1.8-.2.5-.3,1-.3,1.3,0,.3,0,.6,0,.8,0,.5.4.9,1.2,1.2s1.7.4,2.7.5v1.3h-10v-1.3c.3,0,.7,0,1.2-.2.5-.1.9-.3,1.2-.5.5-.3.9-.7,1.2-1,.3-.4.5-.9.8-1.5,1.3-3.3,2.8-7,4.4-11.1,1.6-4.1,3-7.8,4.3-11h1.5l8.8,22.7c.2.5.4.9.6,1.2.2.3.6.6,1,.9.3.2.7.3,1.1.4.5.1.8.2,1.2.2v1.3ZM158.9,17.2l-4-10.2-4,10.2h8Z"/>
  </g>
  <g>
    <polygon class="cls-1" points="14.1 12.1 14.1 12.1 14.1 12.1 14.1 12.1"/>
    <polygon class="cls-3" points="13.3 10.3 13.3 10.3 13.3 10.3 13.3 10.3"/>
    <polygon class="cls-4" points="15.2 15.1 15.2 15.1 15.2 15.1 15.2 15.1"/>
    <path class="cls-2" d="M15.9,11.7s0,0,0,0c0,0,0,0,0,0,0,0,0,0,0,0Z"/>
    <polygon class="cls-5" points="13.2 20.8 13.2 20.8 13.2 20.8 13.2 20.8"/>
    <polygon class="cls-9" points="19.7 26.2 19.7 26.2 19.7 26.2 19.7 26.2"/>
    <polygon class="cls-8" points="9.9 26.2 9.9 26.2 9.9 26.2 9.9 26.2"/>
    <polygon class="cls-7" points="17.2 16.5 17.2 16.5 17.2 16.5 17.2 16.5"/>
    <polygon class="cls-6" points="15.7 26.1 15.7 26.1 15.7 26.1 15.7 26.1"/>
    <polygon class="cls-72" points="13.3 10 13.3 10 13.3 10 13.3 10"/>
    <polygon class="cls-71" points="16.2 8 16.2 8 16.2 8 16.2 8"/>
    <polygon class="cls-76" points="24.1 10.9 24.1 10.9 24.1 10.9 24.1 10.9"/>
    <polygon class="cls-80" points="24.1 10.9 24.1 10.9 24.1 10.9 24.1 10.9"/>
    <polygon class="cls-74" points="22.9 15.4 22.9 15.4 22.9 15.4 22.9 15.4"/>
    <path class="cls-73" d="M13.5,2.9s0,0,0,0c0,0,0,0,0,0,0,0,0,0,0,0,.2,0,.4-.2.6-.4,0,0,.1-.2.2-.3,0-.1,0-.3,0-.4,0-.2,0-.3,0-.5,0,0,0-.2-.1-.1,0,0-.1,0-.2,0-.2.2-.4.4-.5.6-.1.3-.2.7-.1,1,0,0,0,0,0,0ZM14.3,1.4c0,.1,0,.3,0,.4,0,.3,0,.5-.2.7-.1.2-.3.4-.6.4.1-.2.3-.4.4-.6.1-.2.2-.4.3-.6,0-.1,0-.2,0-.3ZM13.5,2.5c0-.1,0-.3,0-.4,0-.2.2-.4.4-.6,0,0,0,0,.1-.1,0,0,0,0,0,0,0,0,0,0,0,0-.1.4-.3.9-.5,1.3,0,0-.1.2-.2.3,0-.1,0-.3,0-.4Z"/>
    <path class="cls-79" d="M15,3.2c-.6.1-1.1.5-1.4,1.1,0,.2-.1.4,0,.6,0,0,0,0,0,0,.6-.3,1.2-.6,1.4-1.2,0-.2,0-.3,0-.5,0,0,0,0,0,0ZM14.7,4c-.2.2-.4.4-.7.6-.1,0-.2.1-.4.2.3-.5.7-.9,1-1.3,0,0,0,0,0,0-.4.4-.8.8-1.1,1.3,0-.2,0-.3,0-.5,0-.1.1-.3.2-.4.2-.2.4-.4.7-.6.1,0,.3-.1.4-.1,0,.3,0,.6-.2.8Z"/>
    <path class="cls-78" d="M12,4.4c.2,0,.3,0,.5,0,0,0,0,0,0,0,0,0,0,0,0,0,0-.4,0-.7-.2-1.1,0-.1-.2-.3-.3-.4-.1-.1-.3-.2-.4-.2-.2,0-.4-.1-.5-.1,0,0,0,0,0,0,0,0,0,0,0,0h0c.1.6.3,1.4.9,1.7ZM12,3c.3.2.4.5.5.8,0,.2,0,.4,0,.5-.3-.5-.6-1-1-1.4-.1-.1-.2-.2-.3-.3.3,0,.6.1.8.3ZM12.3,4.1c0,.1.1.2.2.4-.3,0-.6-.1-.8-.3-.2-.2-.4-.5-.4-.9,0-.2,0-.3,0-.5.5.4.8.8,1.1,1.3Z"/>
    <path class="cls-82" d="M15.2,5c-.3.1-.6.3-.8.5,0,.1-.2.2-.2.4,0,.2,0,.3,0,.5,0,.2,0,.4.1.5,0,0,0,0,0,0,0,0,0,0,0,0,.3,0,.6-.2.8-.4.2-.2.3-.5.4-.9,0-.2,0-.4-.1-.5,0,0,0,0,0,0ZM14.2,6.7c0-.1,0-.2,0-.3,0-.2,0-.3,0-.5.1-.3.3-.5.5-.7.1,0,.2-.1.3-.2-.2.1-.3.3-.4.5-.1.2-.3.5-.4.8,0,.1-.1.3-.2.4ZM15.2,5.9c0,.3-.3.5-.6.7-.1,0-.3.1-.4.2,0-.3.2-.5.3-.7.1-.2.2-.5.4-.7,0-.1.2-.2.3-.3,0,.3.1.6,0,.9Z"/>
    <path class="cls-81" d="M10.6,5.8c0,0,.1.1.2.2,0,0,0,.1.1.2.1.1.3.3.4.3.3.2.7.3,1.1.2.2,0,.5-.1.7-.2,0,0,0,0,0,0-.2-.3-.4-.6-.8-.8-.3-.2-.8-.3-1.1-.2-.2,0-.5.1-.6.2,0,0,0,0,0,0ZM11.8,5.6c.4,0,.7.2,1,.5.1.1.2.3.3.4-.4-.3-.9-.5-1.4-.6-.1,0-.3,0-.4,0,0,0,0,0,0,0,.5,0,1,.3,1.5.5.1,0,.2.1.3.2-.4.2-.8.2-1.2.2-.3,0-.7-.2-.9-.5,0,0-.1-.2-.2-.2,0,0,0-.1-.2-.2.3-.2.7-.3,1.1-.2Z"/>
    <path class="cls-77" d="M7.3,5.1c.1.1.3.2.4.3.3.1.6.2.9.1.2,0,.3-.1.4-.2,0,0,0,0,0,0,0,0,0,0,0,0-.1-.2-.3-.4-.6-.6-.3-.1-.6-.2-.9-.1-.2,0-.3,0-.5.2,0,0,0,0,0,0,0,.1.2.3.3.4ZM8,4.6c.3,0,.5.1.8.3,0,0,.1.1.2.2-.2-.1-.3-.2-.5-.3-.2,0-.5-.1-.8-.1,0,0,0,0,0,0,.3,0,.5,0,.7.1.2,0,.4.2.6.3-.2.2-.5.2-.7.2-.3,0-.6-.2-.8-.4-.1,0-.3-.2-.3-.4.3-.1.5-.2.8-.2Z"/>
    <path class="cls-75" d="M8.6,6.5c-.3-.1-.6-.1-.9,0-.2,0-.3,0-.5.1,0,0,0,0,0,0,0,0,0,0,0,0,0,0,0,0,0,0,.1.3.3.5.6.6.3.1.6.2.9,0,.2,0,.3-.1.5-.3,0,0,0,0,0,0,0,0,0,0,0,0-.1-.2-.3-.4-.5-.5ZM8.2,7.3c-.3,0-.6-.1-.8-.3-.1-.1-.2-.2-.2-.4,0,0,0,0,0,0,.5,0,1,.1,1.5.3.1,0,.2,0,.4.1-.2.2-.5.3-.8.3ZM7.6,6.6c0,0-.2,0-.3,0,.2,0,.5-.1.7-.1.3,0,.5,0,.7.2,0,0,.2.1.2.2-.4-.2-.9-.3-1.4-.3Z"/>
    <path class="cls-33" d="M8,8.1c0,0-.2,0-.2.1,0,0,0,0-.1,0,0,0,0,0,0,0,0,0,0,.1.1.2,0,0,0,0,.2.1.2.2.5.2.8.2.4,0,.7-.2,1-.5,0,0,0,0,0,0,0,0,0,0,0,0-.2-.2-.4-.4-.7-.4-.3,0-.7,0-1,.2ZM8,8.7c-.1,0-.2-.1-.3-.2,0,0,0,0,0,0,.5,0,1.1-.1,1.6,0,.1,0,.3,0,.4,0-.5.3-1.1.6-1.6.3ZM9.6,8.3c-.2,0-.5,0-.7,0-.3,0-.6,0-.8,0-.1,0-.3,0-.4,0,0,0,0,0,0,0,0,0,.1,0,.2-.1.3-.1.6-.2.9-.2.3,0,.6.1.8.3Z"/>
    <path class="cls-30" d="M6,7.8s0,0,0,0c0,0,0,0,0,0,0,0,0,0,0,0,0,0,0,0,0,0,0,0,0,0,0,0,0,0,0,0,0,0,0,0,0,0,0,0,.2-.2.4-.4.5-.6.2-.3.2-.6.1-.9,0-.2,0-.4,0-.6,0,0,0,0,0,0-.3.2-.5.4-.7.7-.2.3-.2.6-.1,1,0,.2,0,.3.2.5ZM5.9,6.9c0-.3.2-.6.4-.9.1-.1.2-.2.4-.3,0,.3.1.6,0,1,0,.2,0,.3-.1.5,0,.1-.1.2-.2.3,0,0-.2.2-.2.2,0,0,0-.2,0-.3,0-.1,0-.2,0-.4,0-.2.1-.5.2-.7,0-.1.1-.3.2-.4,0,0,0,0,0,0-.3.4-.4.9-.5,1.4,0,.1,0,.3,0,.4,0,0,0,0,0,0-.1-.3-.2-.6-.2-.9Z"/>
    <path class="cls-21" d="M7.4,9.9s0,0,0,0c-.4-.3-.6-.9-.5-1.4,0-.1,0-.3.1-.4.2.2.4.4.5.6.1.2.2.5.1.8,0,.1,0,.2-.2.4,0-.5-.2-1-.4-1.5,0,0,0,0,0,0,0,.3.2.5.2.8,0,.3.1.5.2.8,0,0,0,0,0,0,.1-.2.3-.5.2-.8,0-.3-.2-.5-.3-.7-.1-.1-.2-.2-.3-.4,0,0,0,0,0,0-.3.5-.2,1.1,0,1.5,0,.1.2.2.3.3Z"/>
    <path class="cls-34" d="M10.6,12.6s0,0,0,0c0,0,0,0,0,0,0,0,0,0,0,0,.2-.2.4-.4.5-.7,0-.3,0-.6-.1-.9,0-.2-.2-.3-.3-.4,0,0,0,0,0,0-.2.2-.3.4-.4.7,0,.3,0,.6,0,.8,0,.1.1.3.3.4ZM10.4,11.1c0-.1.1-.2.2-.3.2.2.3.4.4.7,0,.3,0,.6-.1.8,0,.1-.2.2-.3.3,0-.5,0-1,0-1.5,0,0,0,0,0,0-.1.5,0,1,0,1.5-.2-.2-.3-.4-.3-.7,0-.3,0-.5.1-.8Z"/>
    <path class="cls-28" d="M12.8,11.1c-.3-.2-.8-.3-1.2-.2-.1,0-.2,0-.3.1,0,0,0,0,0,0,.1.2.3.4.6.5.3.1.5.1.8,0,.1,0,.3-.1.4-.2,0,0,0,0,0,0,0,0-.1-.1-.2-.2,0,0,0,0,0,0ZM13,11.3c-.2.2-.4.3-.7.3-.3,0-.5,0-.7-.2,0,0-.2-.2-.3-.3.4-.2.9-.2,1.3,0,0,0,0,0-.1,0-.2,0-.5,0-.7,0,0,0,0,0,0,0,.4,0,.9,0,1.2.3Z"/>
    <path class="cls-20" d="M11.8,11.9s-.1,0-.2,0c0,0,0,0,0,0,0,0,0,0,0,.1,0,.3-.1.7,0,1,0,.3.3.6.6.7,0,0,0,0,0,0,0,0,0,0,0,0,0,0,0,0,0,0,.2-.2.3-.6.3-.9,0-.3,0-.6-.3-.9,0-.1-.2-.2-.3-.3ZM12.3,13.4c0,.1,0,.3-.2.3,0-.2,0-.5,0-.7,0-.2,0-.4-.1-.6,0-.1-.1-.2-.2-.3,0,0,0,0,0,0,.2.2.2.4.3.7,0,.3,0,.5,0,.8-.2-.1-.4-.3-.5-.6-.1-.3-.1-.6,0-.9,0,0,0-.2,0-.2,0,0,0,0,0-.1,0,0,0,0,0,0,0,0,0,0,0,0,.1,0,.2.1.3.2.2.2.3.5.3.8,0,.2,0,.3,0,.5Z"/>
    <path class="cls-35" d="M13.6,12.7c0-.1-.1-.3-.2-.4,0-.1-.2-.2-.3-.3-.1,0-.3-.2-.4-.2,0,0,0,0,0,0,0,.3,0,.6,0,.9,0,.3.3.6.6.7.2,0,.3,0,.5,0,0,0,0,0,0,0,0,0,0,0,0,0,0,0,0,0,0,0,0-.3,0-.5-.2-.8ZM12.8,12.1c0,.3.2.5.4.7,0,.1.2.2.3.3,0,0,.2.2.3.3-.1,0-.2,0-.4,0-.1,0-.3-.1-.4-.2-.2-.2-.3-.5-.3-.8,0-.2,0-.3,0-.5.1,0,.2.1.3.2.1,0,.2.1.3.2,0,.1.1.2.2.4,0,.1.1.2.1.4,0,.1,0,.2,0,.4,0,0-.2-.2-.2-.3,0-.1-.2-.2-.3-.3-.2-.2-.3-.4-.4-.7,0,0,0,0,0,0Z"/>
    <path class="cls-29" d="M13.3,9.5c0,.1.1.2.2.3,0,0,0,0,0,0,0,0,0,0,0,0,.1-.2.2-.4.3-.6,0-.2,0-.5,0-.7,0-.1,0-.3-.1-.4,0,0,0,0,0,0-.1.2-.3.5-.3.7,0,.2,0,.5,0,.7ZM13.4,8.4c0-.1.1-.2.2-.3,0,.3.2.5.2.8,0,.2,0,.5-.2.7,0,0,0,0,0,0,0,0,0-.1,0-.2,0-.1,0-.2,0-.3,0,0,0-.2,0-.3,0,0,0-.1,0-.2,0,0,0,0,0,0,0,0,0,0,0,0,0,0,0,0,0,0,0,0,0,0,0,0,0,0,0,0,0,0,0,0,0,0,0,0,0,0,0,0,0,0,0,0,0,.2,0,.3,0,.1,0,.2,0,.3,0,.1,0,.2,0,.3,0,0,0,.1,0,.2,0,0,0,.1,0,.2,0,0,0,0,0,0,0,0,0,0,0,0,0,0,0,0,0,0-.2-.1-.3-.3-.3-.5,0-.3,0-.5.2-.7Z"/>
    <path class="cls-36" d="M14.8,7.7c0,.2,0,.3,0,.5,0,0,0,0,0,0,0,0,0,0,0,0,.3,0,.6-.2.8-.4.2-.2.4-.4.4-.7,0-.2,0-.3,0-.5,0,0,0,0,0,0-.6.1-1,.5-1.2,1.1ZM16,6.7s0,0,0,0c0,.3,0,.6-.2.8-.1.2-.4.4-.6.5-.1,0-.2.1-.4.2.2-.4.5-.8.8-1.1,0,0,.2-.2.3-.3,0,0,0,0,0,0ZM15.6,6.8c.1,0,.2,0,.3-.1-.4.3-.7.7-.9,1.1,0,.1-.1.2-.2.4,0-.3,0-.5.2-.8.1-.2.3-.4.6-.6Z"/>
    <path class="cls-37" d="M14.6,10.5c.3,0,.7-.2.9-.4.1-.1.2-.2.2-.4,0-.2,0-.3,0-.5,0-.2,0-.4-.1-.5,0,0,0,0,0,0-.3,0-.6.2-.8.4-.2.2-.3.5-.4.8,0,.2,0,.3,0,.5,0,0,0,0,0,0,0,0,0,0,0,0ZM14.6,9.5c.1-.3.3-.5.6-.6.1,0,.3-.1.4-.2,0,.3.2.6.1.9,0,.3-.3.5-.6.6-.2,0-.3.1-.5.2,0-.4.2-.9.5-1.2,0,0,.2-.2.3-.3,0,0,0,0,0,0-.4.3-.7.7-.8,1.1,0,0,0,.1,0,.2,0-.3,0-.5,0-.8Z"/>
    <path class="cls-32" d="M14.8,12s0,0,0,0c0,0,0,0,0,0,0,0,0,0,.1,0,.1,0,.3-.2.4-.3.2-.2.3-.5.4-.8,0-.1,0-.3,0-.4,0,0,0,0,0-.1,0,0,0,0,0,0,0,0,0,0,0,0,0,0,0,0-.1,0-.3.1-.5.3-.7.6,0,0,0,0,0,0-.2.3-.2.6-.1,1,0,0,0,0,0,.1ZM15.8,10.3s0,0,0,0c0,0,0,0,0,0,0,0,0,0,0,0,0,.1,0,.3,0,.4,0,.3-.1.5-.3.7,0,.1-.2.2-.3.3,0,0-.1,0-.2.1,0,0,0,0,0,0,0,0,0,0,0,0,0,0,0-.1,0-.2,0,0,0-.1,0-.2,0-.1,0-.2.1-.3.1-.2.3-.4.4-.6,0-.1.2-.2.3-.3ZM14.9,11s0,0,0,0c.1-.2.3-.4.5-.5,0,0,.1,0,.2,0,0,0,0,0,0,0-.4.4-.7.8-.8,1.2,0,0,0,.1,0,.2,0,0,0,0,0,.1,0-.3,0-.7.1-1Z"/>
    <path class="cls-26" d="M16.5,5.6c0-.3-.2-.5-.4-.7-.1,0-.3-.2-.4-.3,0,0,0,0,0,0,0,.3,0,.6,0,.9,0,.3.2.5.4.7.1.1.2.2.4.3,0,0,0,0,0,0,0,0,0,0,0,0,0-.3,0-.6,0-.9ZM16.5,6.3c0-.5-.3-.9-.6-1.3,0,0,0,0,0,0,.3.4.5.9.6,1.4-.2-.1-.4-.3-.5-.5-.2-.2-.2-.5-.2-.8,0-.1,0-.3,0-.4.2.1.4.3.6.5.1.2.2.5.2.8,0,.1,0,.2,0,.3Z"/>
    <path class="cls-27" d="M16.2,2c0,0-.1.1-.1.2,0,0,0,0,0,0,.6,0,1.2-.2,1.7-.6.1-.1.2-.2.3-.4,0,0,0,0,0,0-.3,0-.6,0-.9,0-.3,0-.5.2-.7.3-.1,0-.2.2-.2.3,0,0,0,0,0,0ZM17.7,1.6c-.1.1-.2.2-.3.3-.2.2-.5.3-.8.3-.2,0-.3,0-.5,0,0-.1.1-.2.2-.3.1,0,.2-.2.4-.2.2-.1.5-.2.8-.3.2,0,.3,0,.5,0,0,.1-.1.2-.2.3ZM16.7,1.5c.3-.1.5-.2.8-.2.1,0,.2,0,.4,0-.6,0-1.1.2-1.6.6,0,0,0,0,0,0,0-.2.3-.4.5-.5Z"/>
    <path class="cls-31" d="M17.6,2.9c0-.2,0-.3-.1-.5,0,0,0,0,0,0-.3.1-.5.3-.7.6-.2.3-.2.6-.2.9,0,.2.1.3.2.4,0,0,0,0,0,0,0,0,0,0,0,0,.5-.3.8-.8.8-1.4ZM16.8,3.8c0,.1,0,.3,0,.4-.2-.2-.2-.5-.2-.8,0-.3.2-.5.5-.7.1,0,.2-.2.4-.2-.2.1-.3.4-.4.6-.1.3-.2.5-.3.8ZM17.1,4c0,0-.2.2-.3.2,0-.3,0-.5.1-.7,0-.2.2-.5.3-.7,0-.1.1-.2.2-.3.2.5,0,1.1-.3,1.5Z"/>
    <path class="cls-25" d="M18.6,4.5c0,0,0-.2,0-.2,0,0,0-.2,0-.3,0,0,0,0,0,0-.2,0-.3,0-.5,0-.1,0-.3.1-.4.2-.2.2-.4.4-.5.7,0,.1,0,.3,0,.5,0,0,0,0,0,0,0,0,0,0,0,0,.3,0,.6,0,.8-.3.2-.2.4-.4.5-.7ZM17.3,5.3c.2-.4.4-.7.7-1,0,0,.2-.1.3-.2,0,0,0,0,0,0-.4.2-.7.5-.9.9,0,0,0,.2-.1.2,0-.3,0-.5.2-.7.1-.2.4-.4.6-.5.2,0,.3,0,.5,0,0,.1,0,.2,0,.4,0,.1,0,.3-.1.4-.1.3-.4.4-.7.5-.1,0-.3,0-.4,0Z"/>
    <path class="cls-22" d="M19.4,5.1c0,0,.2-.2.2-.3,0-.1,0-.2,0-.4,0-.1,0-.3,0-.4,0,0,0,0,0,0-.2.1-.4.3-.6.5,0,0-.1.2-.2.3,0,.1,0,.2,0,.3,0,.1,0,.3,0,.4,0,0,0,0,0,0,0,0,0,0,0,0,.1,0,.2,0,.3-.2,0,0,.2-.1.3-.2ZM18.9,4.6c0-.1.2-.2.3-.3,0,0,.2-.1.2-.2,0,0-.1.1-.2.2,0,.1-.2.2-.2.3,0,.1-.1.2-.2.4,0,0,0,.1,0,.2,0,0,0,0,0,.1,0-.2,0-.5.1-.7ZM18.8,5.4s0,0,0,0c0,0,0-.1,0-.2,0,0,0-.1,0-.2,0-.1.1-.3.2-.4,0-.1.1-.2.2-.3,0-.1.2-.2.2-.3,0,.2,0,.5,0,.7,0,.1-.1.2-.2.3,0,0-.2.2-.3.2,0,0-.2.1-.3.2,0,0,0,0,0,0Z"/>
    <path class="cls-24" d="M16.8,12.5c-.4.1-.7.5-.6.9,0,.1,0,.2,0,.4,0,0,0,0,0,0,0,0,0,0,0,0,.1,0,.2-.2.3-.2,0,0,.1-.2.2-.3.1-.2.1-.5,0-.8,0,0,0,0,0,0ZM16.2,13.7c0-.2,0-.5,0-.7,0-.2.3-.3.4-.4-.2.3-.5.7-.5,1.1ZM16.7,13.3c0,.2-.3.4-.4.5,0-.5.2-.9.5-1.2,0,.2,0,.5,0,.7Z"/>
    <path class="cls-23" d="M19,1.9c0,0,0,.1,0,.2,0,.1.1.2.2.3.2.2.4.3.6.3.1,0,.3,0,.4,0,0,0,0,0,0,0,0,0,0,0,0,0,0-.2-.2-.4-.3-.6-.2-.2-.4-.3-.6-.4-.1,0-.3,0-.4,0,0,0,0,0,0,0,0,0,0,.1,0,.2ZM19.7,2c.2.1.3.3.5.5,0,0,0,.1,0,.2-.2-.3-.5-.5-.8-.7-.1,0-.2-.1-.3-.2,0,0,0,0,0,0,.5.2.9.5,1.2.9-.2,0-.4,0-.6-.2-.2,0-.4-.2-.5-.5,0,0,0-.1,0-.2,0,0,0-.1,0-.2.2,0,.5,0,.7.2Z"/>
    <path class="cls-17" d="M18,2.2c0,.3,0,.6.2.8.2.2.4.4.7.5.2,0,.3,0,.5,0,0,0,0,0,0,0,0,0,0,0,0,0,0-.1,0-.2-.1-.3,0-.1-.1-.2-.2-.3-.2-.2-.4-.4-.6-.5-.1,0-.3-.1-.4-.1,0,0,0,0,0,0ZM18.7,2.6c.2.2.4.4.5.6,0,0,0,.2.1.3-.3-.3-.6-.7-.9-1,0,0-.1-.1-.2-.2.2,0,.4.1.5.3ZM18.1,2.3c.2.1.4.3.6.5.2.2.3.4.5.5,0,0,.2.2.2.2-.3,0-.5,0-.7-.2-.2-.1-.4-.4-.5-.6,0-.1,0-.3,0-.4Z"/>
    <path class="cls-16" d="M20.6,3.6c.1,0,.3,0,.4,0,.1,0,.3,0,.4-.1.2-.1.4-.3.5-.5,0-.1.1-.2.1-.4,0,0,0,0,0,0-.5,0-1,.2-1.3.6,0,.1-.1.2-.2.4,0,0,0,0,0,0,.2-.5.5-.8,1-.9.1,0,.2,0,.3,0-.2,0-.4.2-.6.3-.2.1-.4.2-.5.4,0,0-.2.2-.2.3,0,0,0,0,0,0ZM21.2,3c.2-.2.5-.3.8-.4,0,0,0,0,0,0,0,0,0,0,0,0,0,.2-.2.4-.3.6-.2.2-.4.3-.6.3,0,0-.1,0-.2,0,0,0-.1,0-.2,0,.1-.2.3-.4.6-.6Z"/>
    <path class="cls-15" d="M20.7,6.1s0,0,0,0c0,0,0,0,0,0,.2-.1.4-.3.6-.5.1-.2.1-.5.1-.8,0-.2,0-.3,0-.5,0,0,0,0,0,0-.2.2-.4.4-.6.6,0,.1-.1.2-.1.4,0,.1,0,.3,0,.4,0,.1,0,.3.1.4ZM21.3,4.5c0,.2,0,.4,0,.7,0,.1,0,.3,0,.4,0,.1-.1.2-.2.3,0,0-.2.2-.3.2,0-.4.1-.9.3-1.3,0,0,.1-.2.2-.3ZM20.6,5.4c0-.1,0-.3.1-.4,0-.1.2-.2.2-.3,0,0,.2-.2.3-.3-.3.4-.5.8-.5,1.3,0,.1,0,.2,0,.3-.1-.2-.1-.4-.1-.6Z"/>
    <path class="cls-13" d="M19.9,7.5s0,0,0,0c-.2.1-.2.3-.3.5,0,.2-.2.4-.2.7,0,.2,0,.4,0,.6,0,.2.2.3.3.5.1.2.3.3.5.4,0,0,0,0,0,0,0,0,0,0,0,0,.2-.7.2-1.4,0-2.1,0-.2-.2-.4-.3-.5ZM19.5,9.3c-.2-.4,0-.8,0-1.2,0-.2.1-.4.3-.5,0,0,0,0,0,0,0,0,0,0,0,0,0,.7,0,1.3.2,2,0,.2,0,.3,0,.5-.3-.2-.5-.4-.7-.7ZM20.3,9.5c0,.2,0,.4-.1.6-.1-.6-.2-1.3-.3-1.9,0-.2,0-.4,0-.5.4.5.5,1.2.4,1.9Z"/>
    <path class="cls-11" d="M22.2,6.4c0,.2,0,.4,0,.6,0,0,0,0,0,0-.2-.7,0-1.5.5-2,.1-.1.3-.2.4-.3.1.7,0,1.4-.5,1.9-.1.1-.2.2-.4.3,0-.6.2-1.1.4-1.6,0-.1.2-.3.3-.4,0,0,0,0,0,0-.3.5-.6,1-.7,1.6,0,.2,0,.3,0,.5,0,0,0,0,0,0,.3-.1.5-.4.7-.7.2-.3.3-.7.3-1,0-.2,0-.4,0-.7,0,0,0,0,0,0-.6.3-1,1-1,1.7Z"/>
    <path class="cls-10" d="M24.5,7.4c.2-.1.3-.2.4-.4.1-.2.2-.3.3-.5,0,0,0,0,0,0,0,0,0,0,0,0,0,0,0,0,0,0,0,0,0,0,0,0,0,0,0,0,0,0-.2,0-.4,0-.6,0-.2,0-.4,0-.5.1-.3.1-.6.3-.8.5-.1.1-.3.3-.3.4,0,0,0,0,0,0,0,0,0,0,0,0,.3,0,.7,0,1,0,.2,0,.3-.1.5-.2ZM23.4,7.2c.1-.1.2-.2.4-.3.3-.2.6-.3.9-.3.2,0,.4,0,.6,0,0,0,0,0,0,0-.6.1-1.2.4-1.7.8-.1,0-.3.2-.4.3,0-.1.2-.2.3-.3ZM23.1,7.6c.5-.4,1.1-.7,1.7-.9.1,0,.3,0,.4-.1,0,.1-.2.2-.3.4-.1.1-.2.3-.4.4-.3.2-.6.3-.9.3-.2,0-.3,0-.5,0Z"/>
    <path class="cls-19" d="M22.4,8.4c-.3.2-.5.5-.6.8,0,.2-.1.4-.1.5,0,0,0,0,0,0,0,0,0,0,0,0,.3,0,.7,0,1-.3.2,0,.3-.2.4-.3.1-.1.2-.3.3-.5.1-.2.2-.4.3-.7,0,0,0,0,0,0-.4,0-.8,0-1.2.3ZM22,8.8c0-.1.2-.3.4-.4.2-.1.3-.2.5-.2.2,0,.3,0,.5,0-.1,0-.2,0-.3.1-.1,0-.3.2-.4.3-.2.2-.5.5-.7.7-.1.1-.2.3-.3.4,0-.3.2-.6.4-.8ZM23.3,8.7c0,.2-.2.3-.3.5-.1.1-.2.3-.4.3-.1,0-.3.1-.5.2-.2,0-.3,0-.5,0,.2-.3.4-.5.6-.8.2-.2.4-.5.7-.6.2,0,.3-.2.5-.2,0,0,0,0,0,0,0,.2-.1.4-.2.5Z"/>
    <path class="cls-18" d="M18.3,7.5c.1.1.3.2.4.2,0,0,0,0,0,0,.1-.3,0-.5,0-.8,0-.1,0-.3-.1-.4,0-.1,0-.2-.2-.3,0,0-.2-.2-.3-.3,0,0,0,0,0,0,0,0,0,0,0,0-.1.3-.2.6-.2.9,0,.3,0,.5.3.7ZM18.3,6.2c0,0,.2.2.2.3.1.2.2.5.2.8,0,.1,0,.3,0,.4-.1-.3-.2-.6-.3-.8,0-.3-.2-.5-.2-.8,0,0,0,.1.1.2ZM18,6.4c0-.1,0-.3.1-.4,0,.3.1.5.2.8,0,.3.2.6.3.9-.1,0-.2,0-.3-.2-.1,0-.2-.2-.2-.3-.1-.2-.1-.5,0-.8Z"/>
    <path class="cls-12" d="M17.6,6.8c0-.1,0-.2-.1-.3,0-.1-.1-.2-.2-.3,0,0,0,0,0,0-.1.2-.2.4-.1.6,0,.2.2.4.4.6,0,0,0,0,0,0,0,0,0,0,0,0,0-.2,0-.4,0-.6ZM17.2,6.8c0-.2,0-.4,0-.6,0,0,0,0,0,0,0,0,0,0,0,0,0,.3.1.7.2,1-.1-.2-.3-.3-.3-.5ZM17.5,7.4c0-.3-.1-.7-.2-1,0,0,0,0,0,.1,0,0,0,.2.1.3,0,.2,0,.4,0,.6Z"/>
    <path class="cls-14" d="M16.6,9.4s0,0,0,0c0,0,0,0,0,0,.2-.2.4-.2.5-.4,0,0,.2-.2.2-.3,0-.1,0-.3,0-.4,0-.2,0-.4,0-.5,0,0,0,0,0,0-.2.1-.4.3-.5.5-.1.2-.2.5-.2.7,0,.1,0,.3,0,.4,0,0,0,0,0,0,0,0,0,0,0,0ZM16.9,7.9c0,0,.2-.2.3-.2,0,.1,0,.3,0,.4,0,.1,0,.3,0,.4,0,.1,0,.2-.2.3,0,0-.2.1-.3.2,0,0-.1,0-.2.1.2-.4.4-.8.4-1.2,0,0,0,0,0,0,0,.2,0,.5-.2.7,0,.2-.2.4-.3.6-.1-.5,0-1,.4-1.3Z"/>
    <path class="cls-64" d="M18.8,9.9c0-.3,0-.6,0-.8,0-.3-.1-.5-.3-.7,0-.1-.2-.2-.2-.3,0,0,0,0,0,0,0,0,0,0,0,0,0,0,0,0,0,0,0,0,0,.2,0,.2,0,0,0,.1,0,.2,0,.1,0,.3,0,.5,0,.3.1.6.3.8.1.1.2.2.4.3,0,0,0,0,0,0,0,0,0,0,0,0,0,0,0,0,0,0ZM18.7,9.9c0-.5-.2-1-.3-1.6,0,0,0,0,0,0,.2.5.3,1,.3,1.6-.2-.1-.4-.4-.5-.6-.1-.3-.1-.6,0-.9,0,0,0-.2.1-.2,0,0,0,0,0,0,0,0,.1.1.2.2,0,.1.1.2.2.3,0,.1,0,.3.1.4,0,.1,0,.3,0,.4,0,.1,0,.3,0,.4Z"/>
    <path class="cls-62" d="M17,11.4s0,0,0,0c0,0,0,.1,0,.1,0,0,.1,0,.1,0,0,0,.2-.2.2-.3.1-.2.2-.5.2-.7,0-.3-.1-.6-.3-.9,0,0,0,0,0,0,0,0,0,0-.1.1,0,0,0,0-.1.1,0,.1-.1.2-.2.3,0,.2-.1.5,0,.8,0,.1,0,.3.2.4,0,0,0,0,0,0ZM17.3,9.6c.2.4.3.9.1,1.4,0,.1,0,.2-.2.3,0,0,0,0-.1.1,0,0,0,0,0,0,0,0,0,0,0,0,0-.3,0-.5,0-.8,0-.3.1-.6.2-.9,0,0,0,0,0,0,0,0,0,0,0,0ZM17,9.9c0,0,0-.1.1-.2,0,0,0,0,0,0,0,.3-.1.6-.2.9,0,.2,0,.5,0,.8-.2-.4-.2-1,0-1.4Z"/>
    <path class="cls-63" d="M26.5,6.9c-.2,0-.3,0-.4.2,0,0,0,0,0,0,0,0,0,0,0,0,0,0,0,0,0,0,0,0,0,0,0,0,0,0,0,0,0,0,.1,0,.2.1.3.2s.2.1.3.2c.2,0,.4.1.7,0,0,0,.1,0,.2,0,0,0,.2,0,.2,0,0,0,0,0,0,0,0-.1-.1-.2-.2-.3,0,0-.2-.2-.3-.2-.2-.1-.5-.2-.8-.1ZM27.5,7.2c0,0,.2.2.2.3,0,0,0,0-.1,0,0,0-.1,0-.2,0-.1,0-.2,0-.4,0-.2,0-.5,0-.6-.2,0,0-.1-.1-.2-.2,0,0,.1,0,.2,0,.1,0,.2,0,.4,0,.1,0,.2,0,.3,0,.1,0,.2,0,.3.1,0,0,0,0,0,0-.2-.1-.5-.2-.7-.2-.1,0-.2,0-.4,0,0,0-.2,0-.3,0,.4-.2,1-.2,1.3.2Z"/>
    <path class="cls-61" d="M26.1,10.2c0,0,.1-.1.2-.2,0,0,.1-.1.2-.2,0,0,0,0,0,0-.3-.1-.7-.2-1.1-.1-.3,0-.6.2-.7.4,0,.1-.2.3-.2.4,0,0,0,0,0,0,0,0,0,0,0,0,.3,0,.6,0,.8,0,.1,0,.3,0,.4-.1.1,0,.2-.2.3-.3ZM25.1,10.5c-.1,0-.3,0-.4,0,.3-.3.7-.5,1.2-.6,0,0,0,0,0,0-.5,0-.9.3-1.3.6,0-.3.2-.5.4-.6.3-.2.6-.2.9-.2.2,0,.3,0,.5.1-.2.2-.3.4-.6.5-.2.1-.5.2-.8.2Z"/>
    <path class="cls-65" d="M27.7,10.8c0,.1.2.2.4.3,0,0,0,0,0,0,.3-.2.4-.4.5-.7,0-.3,0-.6-.1-.9,0-.2-.2-.3-.3-.5,0,0,0,0,0,0,0,0,0,0,0,0,0,.3-.1.7-.3.9-.1.2-.3.6-.1.8ZM28.1,9.5c0-.1,0-.2,0-.4.1.4.1.8,0,1.2,0,.1,0,.2-.1.4,0,0,0,0,0,0,.2-.4.3-.9.2-1.4,0,0,0-.1,0-.2.1.2.2.4.3.7,0,.3,0,.6-.1.8,0,.1-.2.2-.3.3-.1,0-.2-.1-.3-.2,0-.1,0-.3,0-.4,0-.2.1-.3.2-.4,0-.1.1-.3.2-.4Z"/>
    <path class="cls-58" d="M27.2,8.4c-.2.2-.2.5-.2.8,0,.2,0,.3,0,.5,0,0,0,0,0,0,0,0,0,0,0,0,0,0,.2-.1.3-.2,0,0,.2-.2.2-.3.1-.2.2-.5.2-.7,0-.2,0-.3,0-.5,0,0,0,0,0,0-.2,0-.5.2-.6.4ZM27.3,9.4c0,0-.1,0-.2.1.2-.4.2-.9.5-1.2,0,0,0,0,0,0-.3.3-.3.7-.4,1.1,0,0,0,.2-.1.3,0-.3,0-.5,0-.8,0-.3.2-.5.4-.6.1,0,.2-.1.3-.2,0,.5,0,1-.5,1.4Z"/>
    <path class="cls-60" d="M24,9.7s0,0,0,0c0,0,0,0,0,0,.3,0,.6,0,.9,0,.2,0,.4-.3.6-.4.1-.1.2-.2.3-.3,0,0,0,0,0,0-.6-.1-1.3,0-1.6.5,0,0-.1.2-.2.3,0,0,0,0,0,0,0,0,0,0,0,0,0,0,0,0,0,0,0,0,0,0,0,0ZM24.5,9.1c.2-.2.5-.2.8-.2.1,0,.3,0,.4,0-.2.1-.3.3-.5.4,0,0-.2.2-.3.2-.1,0-.3,0-.4,0-.1,0-.3,0-.4,0,.3-.3.6-.4.9-.5,0,0,0,0,0,0-.4,0-.7.3-1,.5.1-.2.3-.3.4-.4Z"/>
    <path class="cls-57" d="M26.2,11.7c0,0,.1.1.1.2,0,0,0,0,0,0,0,0,0,0,0,0,0,0,0,0,0,0,.4-.3.7-.9.6-1.4,0-.2,0-.3-.2-.5,0,0,0,0,0,0-.2.2-.5.4-.6.6-.1.3-.2.6-.1.9,0,0,0,.2.1.2ZM26.5,10.3c.1-.1.2-.2.4-.3.2.5.2,1.1-.2,1.5,0,.1-.2.2-.3.3,0-.2.2-.4.2-.7,0-.2.2-.5.1-.8,0,0,0,0,0,0,0,.3,0,.5-.1.8,0,.2-.2.4-.2.6,0,0-.1-.2-.2-.3,0-.1,0-.3,0-.4,0-.3.2-.6.4-.8Z"/>
    <path class="cls-56" d="M24.8,13.3c.3,0,.5-.2.7-.5.2-.3.2-.6.2-.9,0-.2,0-.4-.1-.6,0,0,0,0,0,0-.4.3-.8.8-.8,1.4,0,.2,0,.3.1.4,0,0,0,0,0,0,0,0,0,0,0,0ZM24.7,12.5c0-.3.2-.5.4-.7,0-.1.2-.2.3-.3.1.3.2.6.1.9,0,.3-.2.5-.4.7,0,0-.2.1-.3.2.2-.4.4-.9.5-1.4,0,0,0,0,0,0,0,.5-.3.9-.5,1.4,0-.2,0-.5,0-.8Z"/>
    <path class="cls-59" d="M24.8,11.5c0-.1.1-.2.2-.4,0,0,0,0,0,0-.5,0-.9.3-1.2.7,0,.1-.1.2-.2.3,0,0,0,0,0,0,0,0,0,0,0,0,.1,0,.3,0,.4,0,.1,0,.2,0,.3-.1.2-.1.4-.3.5-.5ZM23.7,12.1c.3-.2.5-.4.8-.6,0,0,0,0,0,0-.2.2-.5.4-.8.6.2-.4.5-.7,1-.9.1,0,.2,0,.3,0-.2.4-.5.8-.9.9,0,0-.2,0-.3,0Z"/>
    <path class="cls-52" d="M24.2,12.4c-.5.2-1,.6-1.2,1.1,0,.1-.1.3-.1.4,0,0,0,0,0,0,0,0,0,0,0,0,0,0,0,0,0,0,0,0,0,0,0,0,.3,0,.6,0,.8-.2.2-.2.4-.4.5-.7,0-.2,0-.4,0-.6,0,0,0,0,0,0ZM24.2,12.9c0,.1,0,.3-.2.4-.2.2-.4.4-.7.5-.1,0-.3,0-.4,0,.3-.2.6-.5.9-.8,0,0,.1-.2.2-.3,0,0,0,0,0,0-.3.4-.6.8-1.1,1.1,0-.2.2-.5.3-.7.2-.2.4-.4.6-.5.1,0,.3-.1.4-.2,0,.2,0,.3,0,.4Z"/>
    <path class="cls-70" d="M27.6,12c-.2,0-.3.2-.5.3,0,0,0,0,0,0,0,0,0,0,0,0,.1,0,.3.1.4.2.1,0,.2.1.4.2.3,0,.6,0,.8,0,0,0,.2,0,.3,0,0,0,.2,0,.3,0,0,0,0,0,0,0-.1-.3-.4-.6-.7-.7-.3-.1-.7-.1-1,0ZM29,12.3c.1.1.2.2.3.4-.1,0-.3,0-.4.1-.1,0-.3,0-.4,0-.3,0-.6,0-.8-.3-.1,0-.2-.2-.4-.2.2-.1.5,0,.8,0,.3,0,.6.2.9.3,0,0,0,0,0,0-.3,0-.5-.1-.8-.2-.2,0-.5-.1-.7,0-.1,0-.2,0-.3,0,.2-.2.5-.4.9-.4.3,0,.6.1.9.3Z"/>
    <path class="cls-68" d="M26.9,13.7c.1,0,.3,0,.4,0,.2,0,.3,0,.4-.1.2,0,.3-.1.5-.2,0,0,0,0,0,0-.5-.3-1.1-.5-1.6-.4-.1,0-.3,0-.4.1,0,0,0,0,0,0,0,0,0,0,0,.1,0,0,0,0,.1.1.1,0,.2.1.4.2.1,0,.3,0,.4.1ZM26.3,13.3s-.1,0-.1-.1c0,0,0,0,0,0,0,0,0,0,0,0,0,0,0,0,0,0,0,0,0,0,0,0,0,0,.1,0,.2,0,.1,0,.2,0,.3,0,.3,0,.5,0,.8.2,0,0,0,0,0,0-.2-.1-.5-.2-.7-.2-.1,0-.3,0-.4,0,0,0,0,0,0,0,.4-.2.9,0,1.3.1.1,0,.3.1.4.2-.2,0-.5.2-.7.3-.1,0-.2,0-.4,0-.1,0-.2,0-.3-.1-.1,0-.2,0-.3-.1,0,0-.1,0-.2,0Z"/>
    <path class="cls-69" d="M25.1,14.8c.5,0,.9-.3,1.1-.7,0-.1,0-.2,0-.4,0,0,0,0,0,0-.4,0-.8.3-1,.7,0,.1-.1.2-.1.3,0,0,0,0,0,0,0,0,0,0,0,0,0,0,0,0,0,0ZM25.5,14c.2-.2.4-.3.7-.3,0,.2,0,.4-.2.6-.1.2-.3.3-.5.4,0,0-.2,0-.2,0,.3-.2.6-.4.7-.7,0,0,0,0,0,0-.2.3-.5.6-.8.8.1-.2.2-.5.4-.7Z"/>
    <path class="cls-67" d="M29.7,14.1c-.2-.2-.5-.4-.8-.4-.3,0-.7,0-1,.2-.1,0-.3.2-.4.3-.4.1-.8.3-1.1.5-.4.2-.8.3-1.3.4-.5,0-.9.1-1.4.1-.3,0-.5,0-.8,0-.1,0-.3,0-.4,0,0,0-.1,0-.2,0,0,0,0,0,0,0,0,0,0,0,0,0,0,0,0,0-.1,0,0,0,0,0,0,0-.1,0-.3,0-.4,0,0,0,0,0,0,0,0,0,0,0,0,0-.2,0-.3,0-.5.2,0,0-.1,0-.2.1,0,0,0,0,0,0,0,0,0,0-.1,0-.1,0-.3.2-.4.3,0,0,0,0-.1.1,0,0,0,0,0,0,0,0,0,0,0,0,0,0,0,0-.1,0,0,0-.2.1-.3.2-.2.1-.4.3-.6.4-.2.2-.4.3-.6.5,0,0,0,0-.1.1,0-.1,0-.3.1-.4,0,0,0,0,0,0,0,0,0,0,0,0,0,0,0,0,0-.1,0-.1.2-.2.3-.3.1,0,.2,0,.3,0,0,0,.2,0,.3-.1.3-.2.6-.4.8-.8,0-.2.2-.4.2-.6,0,0,0,0,0,0-.5.1-1,.3-1.4.7-.2.2-.3.4-.4.6,0,.2-.1.5-.2.8,0,.2,0,.3-.1.5,0,0,0,0,0,0,0,0-.2.2-.2.3-.1.2-.2.4-.3.6,0,0,0,.1,0,.2,0-.1,0-.2-.2-.3,0-.1,0-.2,0-.3,0-.3,0-.6,0-.9,0-.3.1-.5.2-.8,0-.2.2-.4.3-.6.2-.2.3-.4.6-.5,0,0,.2-.1.3-.2.1,0,.2-.1.4-.2.3-.1.5-.2.8-.4,0,0,0,0,0,0,.5,0,1,0,1.5,0,.7,0,1.4,0,2-.2.6-.1,1.2-.4,1.7-.8.3-.2.5-.4.7-.6.2-.2.4-.5.7-.7.4-.4,1-.9,1.6-.8,0,0,.2,0,.2,0,0,0,0,0,0,0-.6-.2-1.2.1-1.7.5-.3.2-.5.5-.7.7-.2.2-.4.5-.7.7-.5.4-1.1.7-1.6.9-.6.2-1.3.2-2,.2-.4,0-.8,0-1.2,0,.3,0,.6-.2.9-.3.2-.1.4-.2.6-.4.1-.1.2-.2.4-.3.1,0,.2-.2.3-.3,0-.1.2-.2.2-.3,0-.1.1-.2.2-.4,0-.1.1-.3.2-.4,0,0,0-.1,0-.2,0,0,0-.1.1-.2,0-.1.1-.2.2-.3,0,0,0,0,0,0,0-.1.2-.2.3-.3,0,0,0,0,0,0,0,0,0,0,0,0,0,0,0,0,0,0,0,0,.1,0,.2-.1,0,0,0,0,0,0,0,0,0,0,0,0,0,0,0,0,0,0-.1,0-.2.1-.3.2,0,0-.2.2-.3.3,0,.1-.2.2-.2.3,0,0,0,.1-.1.2,0,0,0,.1-.1.2,0,0,0,.2-.1.2,0,0,0-.1,0-.2.1-.4.2-.9.3-1.3,0-.5.2-.9.3-1.4.1-.4.3-.8.6-1.1.2.2.5.4.8.3.2,0,.3,0,.5-.1.2,0,.3,0,.5,0,.2,0,.4,0,.5.1,0,0,0,0,0,0-.2-.3-.5-.5-.8-.6-.3-.1-.7,0-1.1,0,0,0-.2,0-.2.1.3-.3.7-.6,1.1-.8,0,0,.1,0,.2,0,0,0,0,0,0,0-.4.2-.9.4-1.2.8-.3.3-.6.7-.8,1.2-.2.4-.3.9-.3,1.3,0,.5-.2.9-.3,1.4-.1.4-.3.9-.5,1.2,0,0,0,0,0,0,0,0,0,0,0,0,0,0-.1.1-.2.2.1-.1.2-.3.2-.5,0-.3,0-.5-.2-.8,0-.1-.2-.2-.3-.3,0,0,0,0,0,0,0,.1,0,.3-.1.4,0,.1,0,.2-.1.4,0,.3,0,.5.2.8,0,0,.1.2.2.3,0,0-.1,0-.2,0,0,0-.2,0-.2,0-.3,0-.7.1-1,.2,0,0,0,0,0,0-.5,0-.9.1-1.4.2,0,0-.2,0-.2,0-.1,0-.3,0-.4,0,0,0,.1,0,.2,0,.2,0,.5-.2.7-.3.1,0,.2-.1.3-.2,0,0,0,0,0,0,0,0,0,0,0,0,.2-.2.6-.2.8-.3.3-.1.4-.4.5-.7,0-.2,0-.4,0-.6,0,0,0,0,0,0-.2.2-.5.3-.7.5-.1,0-.2.2-.3.3,0,.1-.1.3-.2.4,0,.1-.1.3-.2.4,0,0-.2.2-.3.2-.2.1-.4.2-.7.3-.1,0-.2.1-.3.2,0,0-.2,0-.3.1-.2,0-.3.2-.4.3,0-.3.1-.5.2-.7.1-.2.3-.4.5-.6.3-.2.6-.4.9-.5.5-.3,1-.8,1.3-1.3.2,0,.3,0,.5,0,.2,0,.4,0,.6,0,.3,0,.6-.1.9-.4.1-.1.3-.3.3-.5,0,0,0,0,0,0-.6-.1-1.4,0-1.9.3,0,0,0,0,0,0,0,0,0,0,0,0,.1-.3.3-.6.3-.8.1-.4.2-.9.2-1.3,0,0,0,0,0,0,.1-.5.5-.9.9-1.3.4-.4.9-.8,1.3-1.2,0,0,0-.1.1-.2,0,0,0,0,0,0,0,0,0,0,0,0,.2,0,.5-.3.6-.5.2-.2.3-.5.3-.8,0,0,0-.2,0-.2,0,0,0-.1,0-.2,0,0,0,0,0,0,0,0,0,0,0,0,0,0,0,0,0,0,0,0,0,0,0,0,0,0,0,0-.1,0,0,0-.1,0-.2.1-.2.2-.5.3-.6.6-.1.3,0,.7,0,1-.2.3-.5.6-.7.8-.4.4-.9.8-1.3,1.3-.1.1-.2.3-.3.4,0-.7,0-1.5.2-2.2,0-.3.2-.6.4-.9,0,0,0,0,0,0,0,0,0,0,0,0,.2-.3.4-.6.7-.7,0,0,.1,0,.2-.1,0,0,0,0,0,0-.3,0-.5.3-.7.4,0,0,.1-.2.2-.3.2-.2.3-.5.4-.8,0-.2,0-.4,0-.6,0,0,0,0,0,0-.3.1-.5.3-.7.6,0,.1-.1.3-.2.4,0,.2,0,.3,0,.5,0,.2,0,.4,0,.6-.1.2-.2.4-.3.5-.2.5-.3,1.1-.3,1.6,0-.2-.3-.5-.5-.6,0,0,0,0,0,0,0,.2,0,.5,0,.7.1.2.3.3.4.5,0,0,0,.2,0,.3,0,.5,0,.9-.1,1.4,0,.3-.1.6-.2.8,0-.1,0-.3,0-.4,0-.3,0-.6,0-.9,0-.3-.2-.6-.2-.9,0-.3-.1-.6-.2-.9,0-.2,0-.3,0-.5,0-.2,0-.3.1-.5,0,0,0,0,0,0,0,.1,0,.3-.1.4,0,.1,0,.3,0,.4,0,.3,0,.6.1.8,0,.3.1.6.2.9,0,.3,0,.6.1.9,0,.3,0,.5,0,.8,0,0,0,0,0,0-.3.7-.8,1.3-1.4,1.7-.3.2-.6.4-.9.6-.1,0-.2.2-.3.3,0,0,0,0,0,0,0,0,0,0,0-.1,0-.1.1-.2.2-.3.4-.3.7-.6,1-1,0,0,0-.1.1-.2.2,0,.5-.1.7-.3.2-.2.3-.5.4-.7,0-.2,0-.3,0-.5,0,0,0,0,0,0,0,0,0,0,0,0,0,0,0,0,0,0,0,0,0,0,0,0,0,0,0,0,0,0-.5.1-.9.5-1.1,1.1,0,.1,0,.3,0,.4,0,0,0,0,0,0,0,0,0,0,0,0-.2.4-.5.7-.8.9,0,0,0,0,0,0,0-.1.1-.3.2-.4,0-.1.2-.3.2-.5,0-.2.1-.3.1-.5,0-.2,0-.3,0-.5,0,0,0-.2,0-.3,0,0,0,0,0,0,0,0,0-.1,0-.2,0,0,0-.1,0-.2,0-.1,0-.3,0-.4,0-.3,0-.5,0-.8,0-.5,0-1,.2-1.6.1-.5.3-1,.5-1.4.2-.5.4-.9.5-1.4.1-.5.2-1,0-1.4,0,0,0-.1,0-.2,0,0,0,0,0,0,0,.2,0,.5,0,.7,0,.2,0,.5-.1.7-.1.5-.3,1-.5,1.4-.2.5-.4.9-.5,1.4,0,.2-.1.5-.2.8,0,0,0,.2,0,.3,0,.2,0,.3,0,.5,0,.3,0,.6,0,.9,0,0,0,0,0,.1,0,0,0,0,0,0,0,0,0,0,0,0,0,0,0,0,0,.1,0,0,0,.2,0,.3,0,.2,0,.4,0,.5,0,0,0,.2,0,.3,0,0,0,0,0,0,0,.1,0,.2-.1.4,0,.2-.2.4-.3.6-.2.2-.3.4-.5.6-.2.2-.4.4-.6.6,0,0-.2.2-.2.3,0-.1.2-.3.2-.4.2-.4.4-.8.5-1.2.1-.4.2-.9.2-1.3,0-.4,0-.9,0-1.3,0-.4-.1-.9-.2-1.3,0,0,0-.1,0-.2,0,0,0,0,0,0,.1.4.2.9.2,1.3,0,.4,0,.9,0,1.3,0,.4,0,.9-.2,1.3-.1.4-.2.8-.4,1.2,0,.2-.2.4-.3.6,0,.2-.2.3-.3.5,0,0,0,0-.1.1,0,0-.1.1-.2.2,0,.1-.2.3-.2.4,0,0,0,.2,0,.2,0-.2-.1-.4-.1-.6,0-.3,0-.5,0-.8,0,0,0-.2,0-.3,0,0,0-.2,0-.2,0-.2,0-.3.1-.5,0-.3.2-.6.3-1,0-.1,0-.2,0-.3,0-.2,0-.5,0-.7,0-.2,0-.4-.1-.5,0,0,0-.1,0-.2,0,0,0-.1,0-.2,0,0,0-.1,0-.2,0-.2,0-.4,0-.5,0-.3,0-.6.2-.9,0-.1.1-.3.2-.4,0,0,0,0,0,0,0,0,0,0,0,0,0-.1.1-.2.2-.3.1-.3.2-.6.2-.8,0-.5,0-1-.2-1.5-.2-.5-.5-1-.6-1.5-.2-.5-.3-1.1,0-1.6,0,0,0-.1,0-.2,0,0,0,0,0,0-.2.4-.3.8-.2,1.3,0,0,0,0,0-.1-.1-.2-.3-.4-.6-.5-.1,0-.3,0-.4,0,0,0,0,0,0,0,0,.1,0,.2,0,.3,0,.1,0,.2.2.3.1.2.3.3.6.4.1,0,.3,0,.4.1.1.5.4.9.6,1.4.2.5.3,1,.3,1.5,0,.3,0,.6-.2.8,0,.3-.2.5-.3.7,0,0-.1.2-.2.3,0,.1-.1.2-.1.4,0,.1,0,.3,0,.4,0,0,0,0,0,0,0,.2,0,.3,0,.5,0,0,0,0,0,.1,0,0,0,0,0,0,0,0,0,0,0,0,0,0,0,0,0,0,0,0,0,0,0,0,0,0,0,0,0,.1,0,0,0,.2,0,.3,0,.1,0,.2,0,.4,0,.1,0,.3,0,.4,0,.2,0,.4-.1.6,0,.1-.1.3-.2.4,0,0,0,0,0,0,0,0,0,0,0,0,0,0,0,0,0,0,0,0,0,0,0,0-.3.6-.6,1.1-.8,1.7,0,.3-.2.6-.2.9,0,.1,0,.3,0,.4,0,0,0,0,0,0,0,0,0,0,0,0,0-.2-.1-.3-.2-.5,0-.2,0-.4,0-.5,0-.3,0-.6,0-1,0,0,0-.2,0-.3,0,0,0-.2,0-.2,0-.2,0-.3,0-.5,0,0,0-.1,0-.2,0-.4,0-.9,0-1.3,0-.6,0-1.2,0-1.8,0-.3,0-.6-.2-.9-.1-.3-.2-.6-.4-.9-.3-.5-.6-1.1-.7-1.7-.1-.5-.1-1.1.2-1.6,0,0,0-.1.1-.2,0,0,0,0,0,0-.2.2-.3.5-.4.7,0,.3,0,.6,0,.8,0,.3.1.6.2.8.1.3.2.6.4.9.3.6.6,1.2.7,1.8,0,.6,0,1.2,0,1.7,0,.3,0,.6,0,.9,0,0,0,.1,0,.2,0,0,0,0,0-.1,0-.2-.2-.3-.3-.4,0-.1-.2-.2-.3-.3,0,0-.2-.2-.3-.2,0,0,0,0,0,0,0,0,0,0,0,0,0,0,0,0,0,0,0,0,0,0,0,0,0,0,0,0,0,0,0,0-.2-.2-.3-.3,0,0,0,0,0,0,0-.2-.1-.4-.1-.6,0,0,0,0,0,0,0-.2,0-.3,0-.5,0,0,0,0,0,0,0,0,0,0,0,0,0,0,0-.1,0-.2,0,0,0-.1,0-.2.2-.1.3-.4.4-.6,0-.2,0-.5-.1-.7,0,0,0,0,0,0,0,0-.1.2-.2.3,0,.1-.1.2-.1.3,0,.1,0,.2,0,.3,0,0,0,.1,0,.2,0,0,0,0,0,.1,0,0,0,0,0,0,0,0,0,0,0,0,0,0,0,.1-.1.2,0,0,0,.1,0,.2,0,.1,0,.3,0,.4,0,.2,0,.3,0,.5,0,.1,0,.3.1.4,0,0,0,0,0,.1,0,0,0,0,0,0,0,0,0,0,0,0,0,.1.1.2.2.4,0,.1.2.2.2.3,0,.1.2.2.2.3,0,0,0,.1.1.2,0,0,0,.1,0,.2.1.3.2.5.2.8,0,0,0,0,0,0,0,0,0,0,0,0,0,0,0,0,0,0,0,0,0,0,0,0,0,0,0,0,0,0,0,.1,0,.2,0,.3,0-.3-.2-.6-.4-.8-.3-.3-.6-.6-.9-.9-.2-.1-.4-.3-.5-.4-.2-.3-.4-.6-.5-.9.4-.5.4-1.2.2-1.7,0-.2-.1-.3-.3-.5,0,0,0,0,0,0-.3.2-.4.5-.5.8,0,.3,0,.7.1,1,0,.2.2.3.3.4,0,0,0,0,0,0,0,0,0,0,0,0,0,.2.2.5.3.7,0,0,0,0,0,0-.3-.2-.6-.4-.9-.7-.2-.2-.3-.3-.4-.6-.1-.2-.2-.5-.2-.7,0,0,0-.2,0-.2,0,0,0,0,0,0,.3-.4.4-.9.2-1.3,0-.1-.1-.2-.2-.3,0,0,0,0,0,0-.2.2-.3.4-.4.6,0,.2,0,.5,0,.7,0,.1.1.3.2.4,0,0,0,0,0,0,0,.4.1.8.3,1.1,0,0,0,0-.1-.1-.3-.4-.5-.7-.7-1.2,0,0,0,0,0-.1,0-.2,0-.5,0-.7,0-.4,0-.7.1-1.1,0-.2,0-.3,0-.5.3,0,.5-.2.7-.4.2-.2.3-.5.3-.8,0-.2,0-.4-.1-.6,0,0,0,0,0,0-.1,0-.2.1-.3.2,0,0-.2.2-.3.3-.2.2-.3.5-.3.7,0,.2,0,.3,0,.5,0,0,0,0,0,0,0,0,0,0,0,0,0,0,0,0,0,0,0,.3-.1.6-.2.9,0,.4,0,.7,0,1.1,0,0,0,0,0,0-.1-.3-.2-.7-.2-1-.2-1-.1-2,.1-2.9,0-.1,0-.2,0-.3,0,0,0,0,0,0-.3.9-.4,1.9-.3,2.9,0,.5.1,1,.3,1.4,0,.2.1.3.2.5,0,0,0,0,0,0,0,0,0,0,0,0,.1.2.2.5.4.7.3.4.6.7.9,1,.2.1.3.3.5.4,0,0-.2,0-.3,0-.1,0-.3,0-.4-.1,0,0-.1,0-.2,0-.3-.2-.5-.3-.9-.4-.2,0-.4,0-.6,0-.2,0-.4,0-.5.2-.2,0-.4.2-.6.3,0,0,0,0,0,0,.1.2.3.3.4.4.2,0,.4.1.6.2.4,0,.8,0,1.2-.1.2,0,.4-.2.6-.3,0,0,0,0,0,0,0,0,0,0,0,0,0,0,0,0,0,0,0,0,0,0,0,0,.1,0,.3,0,.4.1.1,0,.3,0,.4.1,0,0,0,0,0,0,.1,0,.3.2.4.3.7.5,1.4,1.1,1.6,2,0,.2.1.5.1.7,0,.3,0,.7,0,1,0,.2,0,.4.1.6,0,.1,0,.2,0,.3,0-.1-.2-.2-.3-.3-.1,0-.3-.2-.4-.2-.1,0-.3-.1-.4-.2-.2,0-.5-.2-.7-.2-.1,0-.2,0-.4-.1-.1,0-.2,0-.3-.1-.3-.1-.5-.3-.7-.4-.1,0-.2-.2-.3-.3-.1-.1-.2-.2-.3-.4,0,0,0,0,0,0,0,0-.1-.2-.2-.3,0,0,0,0,0,0,0-.2-.1-.3-.2-.5,0-.1-.2-.3-.2-.4,0-.1-.2-.2-.3-.4-.1-.1-.3-.2-.5-.3,0,0,0,0,0,0,0,0,0,0,0,0,0,0,0,0,0,0,0,0,.2.1.3.2.1.1.3.2.4.4.1.2.2.4.3.6,0,0,0,0,0,0-.3-.3-.7-.6-1-.8-.4-.3-.8-.5-1.1-.8-.2-.1-.3-.3-.5-.5-.2-.2-.3-.4-.4-.6-.1-.2-.2-.4-.4-.6-.1-.2-.2-.4-.3-.7,0,0,0-.1,0-.2,0,0,0,0,0,0,0,.2,0,.5.2.7.1.2.2.4.3.6.2.4.5.8.9,1.1.3.3.7.6,1.1.8.4.2.7.5,1.1.8.2.1.3.3.4.5,0,0,0,0,0,0,0,0,0,.1,0,.2,0,0,0,0,0,.1,0,0,0,.1,0,.2,0,0,0,0,0,0,.2.4.4.7.7,1,.2.2.5.3.8.4.3.1.6.2.9.3,0,0,0,0,0,0,0,0,0,0,0,0,0,0,.2,0,.3.1,0,0,.2.1.2.2,0,0,.1.1.2.2-.3-.2-.6-.2-.9-.3-.4,0-.8,0-1.3,0-.2,0-.4,0-.6,0-.4-.3-.4-.8-.5-1.2-.2-.4-.5-.8-.9-1.1-.2-.2-.5-.3-.7-.3,0,0,0,0,0,0,.3.3.4.8.5,1.2,0,.2.1.4.2.6.1.2.3.4.4.5.1,0,.2.2.4.2-.3,0-.7-.2-1-.4-.3-.2-.6-.4-1-.6-.3-.2-.6-.4-.9-.6-.3-.2-.7-.3-1-.4-.7-.1-1.5,0-2.1.2,0,0-.2,0-.2.1,0,0,0,0,0,0-.5.3-.9.8-1,1.4,0,.1,0,.2,0,.4,0-.3,0-.6,0-.8.1-.3.3-.6.6-.8.2-.1.3-.2.5-.2,0,0,0,0,0,0-.2,0-.3,0-.5.2-.1,0-.3.2-.4.3-.2.3-.4.6-.4,1,0,.2,0,.4.1.6,0,0,0,0,0,0,.3,0,.6-.3.7-.5.2-.3.2-.6.3-1,0-.2,0-.4.2-.6,0,0,0,0,0,0,.6-.3,1.3-.3,2-.3.4,0,.7.2,1,.3.3.2.6.4.9.6.2.2.5.3.7.5,0,0,0,0,0,0-.2,0-.3,0-.5,0-.3,0-.5,0-.8,0-.5,0-1,.2-1.3.7-.1.2-.2.5-.2.7,0,0,0,0,0,0,.2-.4.7-.5,1-.5.2,0,.5,0,.7-.1.1,0,.2,0,.3-.1,0,0,.2-.2.3-.2,0,0,.2-.2.3-.3,0,0,0,0,0,0,0,0,.2,0,.3,0,0,0,0,0,0,0,0,0,0,0,0,0,.3.2.7.3,1,.5.4.1.7.2,1.1.2.4,0,.8,0,1.2,0,.4,0,.7,0,1.1.2.2,0,.4.2.6.4,0,.2.1.4.1.6,0,.2,0,.4,0,.6,0,.2,0,.3,0,.5,0-.3-.2-.6-.3-.8-.1-.2-.3-.4-.5-.6-.2-.2-.4-.3-.6-.4-.2,0-.4-.1-.7,0,0,0,0,0,0,0,0,0,0,0,0,0,0,0,0,0-.1,0,0,0,0,0,0,0,.2.1.4.3.6.5.1.2.2.4.3.7,0,.1.1.2.2.3,0,0,.2.2.3.2.2,0,.5,0,.7.2,0,0,0,0,.1.1,0,0,0,.2,0,.3,0,0,0,0,0,0,0,0,0,0,0,.1,0,0,0,0,0,0,0,0,0,0,0-.1,0-.1-.2-.2-.3-.3-.1,0-.2-.1-.3-.2-.2-.1-.5-.2-.8-.3,0,0,0,0,0,0-.1,0-.2,0-.3-.2,0,0,0,0,0,0-.2-.1-.3-.3-.5-.4,0-.1-.2-.3-.3-.4,0,0-.1-.1-.2-.2,0,0-.1-.1-.2-.2-.1-.1-.3-.2-.5-.2-.2,0-.3,0-.5-.1,0,0-.2,0-.3,0,0,0-.2,0-.2,0h0c0,0-.2,0-.2,0-.2,0-.4-.1-.5-.1-.2,0-.4,0-.6,0-.2,0-.4,0-.6.2-.2,0-.4.2-.5.4-.2.2-.4.4-.6.6,0,0,0,0,0,0,.4.2.9.2,1.3,0,.4-.1.7-.4,1-.7.1-.1.3-.2.4-.3.2,0,.4,0,.6,0,0,0,.1,0,.2,0,0,0,.2,0,.2,0,.2,0,.3,0,.5.2.1,0,.2.1.3.2,0,0,0,0,0,0,0,0,0,0,.1.1,0,0,0,.1,0,.2,0,.2.2.4.4.6,0,0,.1,0,.2.1,0,0,0,0,0,0-.1,0-.3-.2-.4-.3-.2-.2-.5-.3-.8-.4-.5-.2-1.1-.2-1.6,0-.3.1-.6.3-.8.5,0,0,0,0,0,0,.2,0,.4,0,.6,0,.2,0,.4.1.6.1.2,0,.4,0,.6,0,.2,0,.4-.1.6-.2.2,0,.4-.1.6,0,.1,0,.2.1.3.2-.3,0-.7,0-1,.1-.3,0-.6.2-.9.3,0,0-.2,0-.3,0,0,0,0,0,0,0,0,0,0,0-.1,0-.2,0-.3.2-.4.2-.3.1-.6.2-1,.3-.3,0-.6,0-.9,0-.3-.1-.5-.4-.7-.6-.3-.4-.7-.8-1.1-1.1-.2-.1-.5-.2-.8-.2,0,0,0,0,0,0,0,.4.3.7.5,1,.1.1.3.3.5.3,0,0,.2,0,.3.1-.5,0-1,0-1.4.3,0,0-.1,0-.1.2,0,0,0,0,0,0,.4-.4,1-.5,1.6-.4.3,0,.6.2.8.2,0,0,0,0-.1,0,0,0,0,0,0,0,0,0,0,0-.1,0,0,0,0,0-.1,0-.2,0-.5,0-.7,0-.4,0-.7.3-.9.7-.1.2-.2.4-.3.6,0,0,0,0,0,0,.4.2.8,0,1.1-.2.2-.1.3-.3.4-.4,0-.1.2-.3.3-.4,0-.1.2-.2.3-.2,0,0,0,0,0,0,0,0,.1,0,.2,0,0,0,.1,0,.2,0,0,0,0,0,0,0,.2,0,.5.1.7.1,0,0,0,0,.1,0,0,0,0,0,0,0,0,0,.1,0,.2,0,0,0,0,0,.1,0-.1,0-.3.1-.4.3-.2.1-.3.3-.4.5-.1.2-.2.5-.2.7,0,0,0,0,0,0,.4,0,.8,0,1.2-.3.3-.2.5-.6.6-.9,0-.2,0-.4.2-.5.3-.1.6-.2.9-.3.6-.3,1.3-.6,2-.5.3,0,.5,0,.8.2,0,0,0,0,0,.1,0,.1.2.2.2.4,0,.1,0,.3.1.4,0,0,0-.1-.1-.2-.1-.2-.3-.4-.6-.4-.3,0-.5,0-.8,0-.3,0-.5.1-.8.2-.3.1-.5.3-.7.5,0,0,0,0,0,0,.4,0,.9.2,1.3.2.2,0,.4,0,.6,0,.2,0,.4-.1.6-.1.1,0,.3,0,.4.1,0,0,0,0,0,0,0,.2,0,.5,0,.7,0,.2,0,.3,0,.5,0,0,0,.2,0,.2,0,.2,0,.5,0,.7,0,.5-.1,1.1-.3,1.6-.2.5-.3.9-.5,1.4-.2.5-.4,1-.8,1.4,0,0,0,0,0,0-.2.1-.3.2-.5.3,0,0-.1,0-.2,0,0,0-.2,0-.2,0-.1,0-.2,0-.3,0,0,0-.2,0-.3,0-.1,0-.3.1-.4.2-.1,0-.3.2-.4.3-.2.2-.4.5-.6.7-.1.1-.2.2-.4.3-.2,0-.3.1-.5.2-.2,0-.4,0-.6,0-.2,0-.4,0-.6.1-.4,0-.7.2-1.1.2,0,0-.2,0-.3,0,0,0-.1,0,0,.1.4,0,.8,0,1.1,0,.2,0,.4-.1.6-.1.1,0,.2,0,.3,0,.3,0,.6,0,.9-.1.3-.1.6-.3.8-.5.2-.1.3-.3.4-.4,0,0,.1-.1.2-.2,0,0,.1-.1.2-.2.1,0,.2-.1.4-.2,0,0,0,0,0,0,0,0,0,0,0,0,0,0,0,0,0,0,0,0,0,0,0,0,.1,0,.3,0,.4-.1.2,0,.3,0,.5-.1,0,0,0,0,0,0,.2,0,.5-.1.7-.3.1,0,.2-.2.3-.3,0,0,0,0,0,0,0,0,0,0,0-.1,0-.1.1-.2.2-.3,0,0,.1-.1.1-.2.2-.3.3-.7.4-1,0-.2,0-.3.1-.5,0,0,0,0,0,0,0,0,0,0,0,.1,0,.2,0,.4,0,.6,0,.2,0,.4,0,.7,0,.1,0,.2,0,.3,0,.1,0,.2,0,.3,0,0,0,.1-.1.2-.1.2-.3.3-.5.4-.2.1-.4.1-.7.2-.2,0-.5,0-.7.2-.2,0-.4.2-.6.4,0,0,0,0-.1.1,0,0,0,.1,0,0,.2-.2.4-.3.6-.4.2-.1.4-.2.7-.2.2,0,.5,0,.7-.2.2,0,.4-.2.5-.4,0,0,0,0,0,0,0,0,0,0,0,0,0,0,0-.1,0-.2.2-.3.2-.7.2-1.1,0-.3,0-.6,0-.9,0-.3,0-.6,0-.8.1-.5.3-1,.2-1.5,0,0,0,0,0-.1,0,0,0,0,0,0,.1.2.2.4.4.6,0,0,0,0,0,0,0,0,0,0,0,0,0,0,0,0,0,0,0-.1-.2-.2-.2-.3,0-.1-.1-.2-.2-.3,0,0,0,0,0,0,0,0,0,0,0,0,0,0,0,0,0,0,0,0,0,0,0,0,0,0,0-.1,0-.2,0-.3,0-.5,0-.8,0,0,0-.2,0-.3,0,0,0-.2,0-.2,0-.2,0-.3,0-.5,0,0,0-.1,0-.2,0-.2-.1-.4-.3-.6,0,0,0,0,0,0,0,0-.1-.2-.2-.2,0,0,0,0,0,0,0,0,0,0,0,0,0,0,0,0,0,0,.1,0,.2.1.3.2,0,0,0,0,0,0,.3.1.5.2.7.4.1,0,.2.2.3.3,0,.1.2.2.2.4,0,0,0,0,0,0,0,0,0,0,0,0,0,.2,0,.3,0,.5,0,.3-.2.7-.2,1,0,.2,0,.3,0,.5,0,0,0,0,0,0,0,.2,0,.5.2.7,0,.3,0,.5,0,.8,0,.1,0,.2-.1.4,0,0,0,.2-.1.3,0,.2,0,.4-.1.5,0,0,0,0,0,0,0,0,0,0,0,0,0,0,0,0,0,0,0,.3,0,.5-.1.8,0,.3-.1.5-.2.8,0,.2-.2.4-.3.6-.2.2-.4.4-.6.6-.3.2-.6.4-1,.6-.3.2-.7.3-1,.5,0,0,0,0,0,0,0,0,0,0,0,0,.4-.1.7-.3,1.1-.4.3-.2.7-.3,1-.6.2-.1.3-.2.4-.4.1-.1.3-.3.4-.4.1-.2.2-.4.3-.6,0-.2.1-.4.2-.7,0-.3,0-.6.1-.9,0-.2,0-.3.1-.5,0-.1,0-.3.1-.4,0-.1,0-.2.2-.3,0,0,0,0,0-.1,0,0,0,0,0-.1.1-.2.2-.4.3-.6,0-.2.2-.4.3-.6,0-.2.1-.4.1-.7,0-.3,0-.5,0-.8,0,0,0,0,0,0,0,0,0,0,0,0,0,0,0,0,0,0,0,0,0,.1,0,.2,0,.2,0,.4,0,.7,0,.3-.1.6-.2.8,0,.2-.2.4-.3.6,0,0-.1.2-.2.3,0,0,0,0,0,0,0-.2,0-.4,0-.7,0-.3-.3-.6-.2-1,0-.4.2-.7.2-1,0-.2,0-.4-.1-.5,0-.2,0-.4,0-.6,0,0,0,0,0,0,0,0,0-.1,0-.2,0-.1,0-.3,0-.4,0-.3,0-.6,0-.9,0-.3,0-.6-.2-.8,0-.1-.1-.2-.2-.3,0,0,0,0,0,0,.2.2.4.3.5.5.2.2.3.5.4.8.1.3.2.6.2.9,0,.4,0,.7,0,1.1,0,0,0,0,0,0,0-.3,0-.7,0-1,0-.3,0-.7-.2-1-.2-.6-.6-1.1-1.1-1.4-.2-.2-.5-.3-.8-.4,0,0-.2,0-.3-.1-.3-.1-.6-.2-1-.4-.2,0-.4-.2-.5-.3,0,0,0,0,0,0,0,0,0,0,0,0,0,0,0,0,0,0,0,0,0,0,0,0,0,0,0,0,0,0-.1-.1-.2-.2-.3-.4-.1-.1-.2-.3-.3-.4,0,0,0,0,0,0,0-.1,0-.2-.1-.3.2.3.4.5.7.7.1,0,.2.2.3.2.1,0,.2.1.4.2.1,0,.3.1.4.2.1,0,.3,0,.4.1.2,0,.4.1.6.2.1,0,.3.1.4.2.1,0,.2.2.4.2,0,0,.2.1.2.2,0,0,.2.2.2.2,0,0,0,0,0,0,0,0,0,0,0,0,0,0,0,0,0,0,0,0,0,0,0,0,0,0,0,0,0,0,0,0,0-.1,0-.2,0,0,0,0,0,0-.2-.4-.2-.9-.3-1.3,0-.4,0-.7,0-1.1,0-.2,0-.4,0-.7,0-.4,0-.7-.2-1,0,0,0-.2-.1-.3,0,0,0-.2-.1-.2,0-.1-.2-.3-.3-.4,0,0,0,0,0,0h0s0,0,0,0c0,0,0,0,0,0,0,0,0,0,0,0,0,0,0,0,0,0,0,0,0,0,0,0,0,0,0,0,0,0,0,0,0,0,0,0h0s0,0-.1-.1c0,0,0,0,0,0,0,0,.2.1.3.2.1.1.2.2.3.4.2.2.3.5.4.8,0,0,0,.2.1.3,0,.1,0,.2,0,.4,0,.2,0,.3,0,.5,0,.2,0,.3,0,.5,0,.3,0,.7,0,1,0,.1,0,.2,0,.3,0,.1,0,.2.1.4,0,0,0,.1.1.2,0,0,0,0,0,0,0,0,0,0,0,0,0,0,0,0,0,0,0,0,0,.1,0,.2,0,.1.1.2.2.4,0,0,0,.1.1.2,0,0,0,.1,0,.2,0,0,0,.1,0,.2,0,0,0,.1,0,.2,0,0,0,0,0,0,0,0,0,0,0,0,0,0,0,.1,0,.2,0,.2.1.4.1.6,0,.2,0,.4,0,.6,0,.2,0,.4,0,.6,0,.2,0,.4,0,.6,0,0,0,.1,0,.2,0,.3,0,.6,0,.9,0,.5.1.9.1,1.3,0,.8-.2,1.6-.3,2.5,0,0,0,0,0,0,0,.2,0,.3,0,.5,0,0,0,.2,0,.3,0,.1,0,.2,0,.3,0,.3.2.7.3,1,0,0,0,0,0,0,0,0,0,0,0,.1,0,0,0,0,0,0,0,0,0,0,0,0,0,0,0,0,0,0,0,0,0,0,0,0,0,0,0,.2,0,.3,0,.1-.1.2-.2.3-.1.1-.3.3-.4.4-.4.3-.8.5-1.3.7,0,0-.2,0-.3.1,0,0,0,0-.1,0,0,0,0,0-.1,0,0,0,0,0,0,0,0,0,0,0,0,0,0,0,0,0,0,0,0,0,.2,0,.3-.1.1,0,.2,0,.3-.1.2,0,.4-.2.7-.3.2-.1.4-.2.6-.4.2-.1.3-.3.5-.5,0,0,0-.2.1-.3,0,0,0,0,0-.1,0,0,0,.1,0,.2,0,.2,0,.3.1.5,0,0,0,0,0,0,0,0,0,.2,0,.3,0,0,0,0,0,.1,0,0,0,0,0,.1,0,0,0,0,0,0,0,0,0,0,0,0,0,0,0,0,0-.1,0,0,0-.1,0-.2,0,0,0-.2,0-.3,0-.2,0-.4,0-.5,0-.2,0-.3-.1-.5,0,0,0-.2,0-.2,0,0,0,0,0,0,0,0,0,0,0,0,0,0,0,0,0,0,0,0,0-.1,0-.2,0,0,0,.1.1.2,0,.1.2.2.3.3,0,0,.1,0,.2.1,0,0,.1,0,.2.1.4.3.8.7,1.2.9.2.1.4.3.7.4.1,0,.2.1.4.1.1,0,.3,0,.4.1,0,0,0,0,0,0,0,0,0,0,0,0,0,0,0,0,0,0-.2,0-.4-.1-.6-.2,0,0,0,0,0,0,0,0,0,0,0,0,0,0,0,0,0,0,0,0,0,0,0,0,0,0,0,0,0,0,0,0,0,0,0,0,0,0,0,0,0,0,0,0,0,0,0,0-.2,0-.4-.2-.7-.4-.2-.1-.4-.3-.6-.4-.3-.2-.5-.4-.7-.6,0,0-.1-.1-.2-.2,0,0-.1-.1-.2-.2-.1,0-.2-.2-.3-.3,0,0,0-.1-.1-.2,0,0,0-.1,0-.2,0-.2-.1-.3-.1-.5,0,0,0-.2,0-.2,0,0,0-.2,0-.3,0-.2,0-.4,0-.6,0-.2,0-.5.1-.7,0-.2,0-.5,0-.7,0-.2,0-.5,0-.7,0-.1,0-.2,0-.4,0,0,0-.1,0-.2,0,0,0-.1,0-.2,0-.4,0-.9,0-1.3,0-.1,0-.2,0-.3,0-.2,0-.3,0-.5,0-.4,0-.8,0-1.1,0,0,0-.2,0-.3,0,0,0-.1,0-.2,0,0,0-.1,0-.2,0,0,0-.2,0-.2,0,0,0-.2,0-.2,0-.2-.1-.3-.2-.5,0,0,0,0,0,0,0,0,0-.2,0-.2,0,0,0-.2-.1-.3,0,0,0,0,0,0,0,0,0,0,0,0,0,0,0,0,0,0,0,0,0,0,0,0,0,0,0,0,0,0,0,0,0,0,0,0,0-.1,0-.3-.1-.4,0-.2,0-.4,0-.5,0-.3.2-.7.3-1,.1-.3.3-.6.4-.9.1-.3.3-.6.4-.8,0-.2,0-.3.1-.5,0-.2,0-.3,0-.5,0-.2,0-.3,0-.5,0,0,0,0,0,0,0,0,0,0,0,0,0,0,0,0,0,0,0,.2.1.3.1.5,0,.2,0,.5,0,.7,0,.6-.4,1.3-.5,1.9,0,0,0,.2,0,.3,0,0,0,.2,0,.3,0,.2,0,.4,0,.6,0,.2,0,.4,0,.6,0,.2,0,.4.1.5,0,0,0,.1,0,.2,0,0,0,.2,0,.2,0,0,0,0,0,0,0,0,0,0,0,0,0,0,0,0,0,0,0,0,0,0,0,0,0-.2,0-.3,0-.5,0-.2,0-.4.1-.5.1-.2.2-.5.4-.7.2-.2.4-.4.5-.6.2-.2.4-.4.6-.6.2-.2.4-.4.5-.6.1-.1.2-.3.3-.4,0,0,0-.1,0-.2,0,.3-.2.6-.4.8-.3.5-.8.9-1.2,1.4-.2.3-.4.6-.4.9,0,0,0,0,0,0,0-.3.2-.6.4-.8.2-.2.4-.5.6-.7.2-.2.4-.5.6-.7.2-.3.3-.6.4-.9.1-.3.2-.6.2-.9,0,.2,0,.4,0,.5,0,.2-.1.5-.2.7,0,.2-.1.3-.2.4,0,.1-.2.3-.3.4-.2.3-.4.6-.6.9,0,.1-.2.3-.3.4,0,.2-.2.3-.2.5,0,.2,0,.3-.1.5,0,0,0,.2,0,.3,0,0,0,.2,0,.3,0,0,0,0,0,0,0,0,0,0,0,.1,0,0,0,.1,0,.2,0,0,0,.1,0,.2,0,0,0,0,0,0,0,0,0,0,0,0,0,0,0,0,0,0,0,0,0,0,0,.1,0,0,0,.1,0,.2,0,0,0,0,0,0,0,0,0,0,0,0,0,0,0,0,0,0h0c0,0,0,.2,0,.3,0,.1,0,.2-.1.3,0,0-.1.2-.2.3,0,0-.1.2-.2.3,0,0-.1.2-.2.3,0,.1,0,.2,0,.3,0,0,0,0,0,0,0,0,0,0,0,0,0,0,0,0,0,0,0,0,0-.1,0-.2,0,0,0-.1,0-.2,0-.1.2-.3.2-.4,0-.1.2-.3.3-.4,0-.1.1-.3.2-.5,0-.2,0-.3,0-.5,0-.3,0-.5,0-.8,0-.2,0-.3.2-.5,0,0,0,0,0,0,0,0,0,0,0,0,0,0,0,0,0,0,0,0,0,0,0,0,0,0,0,0,0,0,0,0,0,0,0-.1,0,0,0,0,0,0,0,0,.1,0,.2-.1.2-.1.3-.2.5-.3.4-.2.9-.3,1.3-.3.2,0,.5,0,.7,0,.2,0,.4,0,.6,0,.2,0,.3,0,.5-.1,0,0,.1,0,.2,0,0,0,0,0,0,0-.5.2-1,.5-1.5.7h0c-.1,0-.2,0-.3.1-.2,0-.3.1-.5.2-.3.1-.5.3-.8.4,0,0,0,0,0,0-.2.1-.5.3-.6.5-.2.2-.3.5-.4.7,0,.1,0,.2-.1.4,0,.2,0,.3,0,.5,0,0,0,0,0,0,0,.3,0,.6,0,.9,0,0,0,.1,0,.2,0,0,0,0,0,0,0,0,0,0,0,0,0,0,0,0,0,0,0,.2,0,.4.2.6,0,0,0,.2.1.3,0,.2,0,.3,0,.5,0,.2-.2.4-.3.7-.1.2-.2.5-.2.7,0,0,0,.2,0,.2,0,0,0-.1-.1-.2,0,0,0-.2,0-.3,0,0,0-.2,0-.3,0-.2,0-.4,0-.6,0-.2,0-.4,0-.6,0,0,0,0,0,0,0,0,0,0,0,0,0,.2,0,.4,0,.6,0,.2,0,.4,0,.6,0,.2,0,.4.1.5,0,0,0,.2.1.3,0,0,0,0,0,.1,0,0,0,0,0,.1,0,.3.2.7.2,1,0,.3,0,.5.2.8,0,.3.1.5.3.7.2.3.4.6.6.9,0,.1.2.2.3.4.1.2.2.3.4.4.1.1.3.3.4.4.3.2.6.4.9.6.3.2.7.3,1,.3,0,0,0,0,0,0,0,0,0,0,0,0-.1,0-.3,0-.4,0-.1,0-.3,0-.4-.1-.3-.2-.7-.4-1-.6,0,0,0,0,0,0,0,0,0,0,0,0,0,0,0,0,0,0,0,0,0,0,0,0-.2-.1-.3-.3-.5-.4-.2-.2-.3-.3-.4-.5-.2-.2-.3-.4-.4-.6-.1-.2-.2-.4-.3-.6,0,0,0,0,0,0,0-.1,0-.2-.1-.3,0-.1,0-.2,0-.3,0,0,0,0,0-.1,0-.2,0-.4,0-.6-.1-.5-.4-1-.4-1.5,0-.5.4-.9.5-1.4,0,0,0-.2,0-.2,0,0,0,0,0,.1,0,0,0,.1.1.2,0,0,0,.2.1.2,0,0,.1,0,.1,0-.1-.3-.3-.6-.3-.9,0-.3,0-.6.1-.8.1-.3.3-.5.5-.7.2-.2.4-.4.7-.6.1,0,.2-.2.4-.3.2,0,.3-.2.5-.3-.1.1-.3.2-.4.3-.1.1-.2.2-.4.3-.1.1-.2.3-.3.4-.2.3-.3.6-.4.9,0,.2,0,.3-.1.5,0,0,0,.1,0,.2,0,0,0,0,0,0,0,0,0,.2,0,.3,0,.3,0,.7,0,1,0,.1,0,.3,0,.4,0,.1,0,.3-.1.4,0,.1,0,.2-.1.3,0,0,0,0,0,0,0,0,0,0,0,0,0,0,0,0,0,0,0,0,.1-.2.2-.2,0,0,0-.2.1-.2,0,0,0-.2,0-.2,0,.3,0,.6,0,.9,0,.2,0,.3,0,.5,0,.1,0,.2,0,.3,0,.1,0,.2,0,.3,0,.2,0,.4,0,.7,0,.2,0,.4.1.6,0,0,0,.2,0,.3,0,0,0,.2.1.3,0,0,0,0,0,0,0,0,0,0,0,0,0,0,0,0,0,0,0,0,0-.2,0-.3,0,0,0-.2,0-.3,0-.2,0-.4,0-.6,0-.2,0-.4,0-.6,0,0,0,.1,0,.2,0,.1.1.2.2.3,0,.1.2.2.3.3,0,0,.2.1.2.2,0,0,0,0,.1.1,0,0,0,0,.1.1.1.1.3.3.4.5,0,0,0,0,0,0,.2.3.4.5.6.8,0,.1.2.2.3.4.1.1.2.2.4.3,0,0,.1,0,.2.1,0,0,.2,0,.2.1,0,0,0,0,.1,0,0,0,0,0,0,0,.3.2.7.4,1.1.6.2,0,.4.2.6.3.2.1.4.3.6.4.2,0,.4.2.6.3.1,0,.2,0,.3.1,0,0,0,0,0,0,0,0,0,0,0,0,.2,0,.4.2.6.2.2,0,.4,0,.6,0,0,0,0,0,0,0,0,0-.2,0-.3,0,0,0-.2,0-.3,0-.2,0-.4-.1-.5-.2-.2,0-.4-.2-.5-.3-.2,0-.4-.2-.6-.3-.4-.2-.7-.3-1.1-.5,0,0,0,0-.1,0-.1,0-.2-.1-.4-.2-.1,0-.3-.2-.4-.2,0,0,0,0-.1,0,0,0,0,0,0,0-.2,0-.4-.2-.6-.4-.2-.2-.3-.4-.5-.6-.2-.2-.3-.4-.5-.6-.2-.2-.4-.4-.6-.6-.4-.4-.8-.7-.9-1.3,0-.3-.1-.6-.1-.9,0-.3,0-.7,0-1,0-.4,0-.8,0-1.2,0-.2,0-.4,0-.5,0,0,0,0,0-.1.3-.1.6-.1.9-.1.2,0,.5,0,.7,0,.1,0,.2,0,.3,0,.1,0,.2-.1.3-.2.2-.1.5-.2.7-.1,0,0,0,0,0,0-.5-.3-1-.4-1.5-.3-.5,0-1,.2-1.3.5,0,0,0,0-.1.1,0,0,0-.1,0-.2.1-.3.3-.5.6-.7.6-.4,1.3-.6,2-.7,0,0,0,0,0,0,0,0,0,0,0,0,0,0,.1,0,.2,0,0,0,0,0,0,0,.1,0,.2.2.3.4,0,.1.1.3.2.4,0,.1.2.3.3.4.1.1.3.2.5.3,0,0,0,0,0,0,0,0,0,0,0,0,0,0,0,0,0,0,0,0,0,0,0,0,0-.2,0-.3,0-.5,0-.1,0-.3-.2-.4-.1,0-.2-.2-.4-.2-.1,0-.3-.2-.4-.3-.1,0-.2-.1-.4-.2,0,0,0,0,0,0,.7,0,1.3,0,2,.3.3.1.7.3,1,.4.2,0,.3.2.5.3.2.1.3.2.5.3.2.1.3.2.5.3.2,0,.3.1.5.1.3,0,.6,0,.8,0,.2,0,.3,0,.5.1.1,0,.3,0,.4,0,.3,0,.6,0,.8-.1.1,0,.3-.2.4-.3,0,0,0,0,0,0-.1,0-.3-.1-.4-.1-.1,0-.3,0-.4,0-.3,0-.6.1-.8.2-.1,0-.2,0-.3.1-.3,0-.5,0-.8,0-.4,0-.7-.1-1-.4-.2-.1-.3-.2-.5-.3,0,0,0,0-.1,0,0,0,0,0,0,0,.2,0,.4,0,.6.2.2,0,.5.2.7.2.2,0,.4,0,.7,0,.2,0,.4-.2.5-.3.2-.1.4-.3.6-.3,0,0,0,0,0,0-.4-.1-.9-.2-1.3,0-.2,0-.4.1-.7.2-.2,0-.4.2-.7.2-.2,0-.5,0-.7,0,0,0,0,0-.1,0-.3-.2-.6-.3-1-.5-.7-.2-1.4-.3-2.1-.3-.7,0-1.5.2-2.1.6-.2.1-.4.3-.5.5,0-.1,0-.2.1-.3.1-.3.3-.5.5-.7.2-.2.4-.5.7-.7,0,0,0,0,0,0,.1,0,.2,0,.4,0,.3,0,.6.1.8.2.2,0,.4,0,.6,0,.2,0,.4,0,.6-.1.2,0,.4-.2.7-.2,0,0,0,0,0,0,0,0-.2-.1-.2-.2,0,0-.2-.1-.3-.1-.2,0-.4-.1-.6-.1-.2,0-.4,0-.6,0-.2,0-.4.1-.6.2-.2,0-.4.2-.6.2,0,0,0,0,0,0,0,0,.1-.2.2-.2.3-.2.6-.4,1-.5.2,0,.4-.1.6-.2.1,0,.3,0,.4,0,.1,0,.2,0,.4.1,0,0,0,0,0,0,0,0,0,0,0,0,0,0,0,0,0,0,0,0,0,0,0,0,.1,0,.2.1.3.2,0,0,.2.1.3.2,0,0,.2.1.2.1,0,0,0,0,0,0,.2.3.4.7.7,1,.1.1.3.2.4.3.2,0,.4,0,.5,0,.2,0,.4-.1.7,0,0,0,0,0,0,0-.1-.3-.4-.6-.6-.8-.1-.1-.3-.2-.4-.3-.2,0-.3-.1-.5-.1-.2,0-.4,0-.6,0,0,0,0,0,0,0,0,0,0,0,0,0,0,0,0,0,0,0,0,0-.2-.1-.2-.2-.1-.1-.2-.2-.4-.3,0,0-.1,0-.2-.1.2,0,.4,0,.6,0,.5,0,.9,0,1.4,0,.3,0,.7-.1,1-.3,0,0,0,0,0,0,.1,0,.2,0,.4,0,.1,0,.3,0,.4,0,0,0,0,0,.1,0,0,0,.2,0,.3.1,0,0,0,0,0,0,.3,0,.5.3.7.5.3.2.6.4.9.4.2,0,.5,0,.7,0,0,0,0,0,0,0-.1-.2-.3-.4-.5-.6-.2-.2-.4-.3-.6-.4-.1,0-.2,0-.4,0-.1,0-.3,0-.4,0-.1,0-.3,0-.4,0-.1,0-.2,0-.3,0,0,0,0,0,0,0,0,0,0,0,0,0-.1,0-.2,0-.3,0,0,0,0,0-.1,0,0,0,0,0,0,0,.4-.2.8-.4,1.1-.5,0,0,0,0,.1,0,0,0,0,0,0,0,.2,0,.3,0,.5.1.1,0,.3,0,.4,0,.3,0,.6,0,.8-.1.1,0,.3-.1.4-.2,0,0,0,0,0,0ZM19.8,15.9c-.1.1-.3.2-.4.3-.2,0-.4.1-.6.2,0,0,0,0-.1,0,.3-.5.8-.8,1.2-1.1.1-.1.3-.2.4-.3,0,.3-.2.6-.5.9ZM19,15.8c.2-.2.4-.4.6-.5.2-.1.5-.2.7-.3-.5.5-1.1.7-1.5,1.2,0,0-.1.1-.1.2,0-.2.2-.4.3-.6ZM25.2,7.8c.3,0,.7,0,1,.3,0,0,.2.1.2.2-.2-.1-.4-.2-.6-.3-.3,0-.5,0-.8,0-.2,0-.3,0-.5.1,0,0,0,0,0,0,.3,0,.5-.2.8-.1.3,0,.5,0,.8.2.1,0,.3.1.4.2,0,0,0,0,0,0,0,0,0,0,0,0-.3-.1-.5-.1-.8,0-.2,0-.3.1-.5.1-.2,0-.3,0-.5,0-.1,0-.3-.2-.4-.3.2-.2.5-.3.8-.3ZM21.8,12.8c0-.3,0-.5,0-.8,0-.1.1-.2.1-.4.4.3.6.9.4,1.3,0,0,0,.2-.1.2,0-.4,0-.8-.1-1.2,0,0,0,0,0,0,.2.4.2.8.1,1.2,0,0,0,0,0,0-.1-.2-.3-.3-.3-.6ZM20.9,12.9c0,.1-.2.2-.3.3-.1,0-.3,0-.4.1,0,0-.2,0-.3,0,.2-.2.4-.3.5-.5.2-.2.4-.4.5-.6,0-.1.1-.2.2-.4,0,.3,0,.6-.2.9ZM21.1,12s0,0,0,0c0,0,0,0,0,0,0,0,0,0,0,0ZM19.9,13.3c0-.1.1-.3.2-.4,0-.1.2-.2.3-.3.2-.2.5-.3.7-.5-.1.2-.2.4-.4.6-.2.2-.4.3-.6.5,0,0-.2.1-.2.2,0,0,0,0,0,0ZM24.6,4.4s0,0,0,.1c0,0,0,.1,0,.2,0,.3,0,.6-.2.8,0,.1-.2.2-.3.3,0,0-.2.1-.3.2.2-.4.4-.9.6-1.3,0-.1.1-.2.2-.3,0,0,0,0,0,0ZM23.8,5.2c0-.3.2-.5.4-.6.1,0,.2-.2.3-.2,0,0,0,0,0,0-.1.2-.2.4-.3.6,0,.1-.1.3-.2.4,0,0,0,0,0,0,0,0,0,0,0,0,0,0,0,.2-.1.2,0,0,0,.2-.1.2,0,0,0,0,0,0,0-.3,0-.5,0-.8ZM22.9,3.8c0,.1,0,.3-.2.4-.1.3-.3.5-.5.7,0,0,0,.1-.1.2,0-.5.2-.9.5-1.3,0-.1.2-.2.3-.3,0,.1,0,.2,0,.3ZM22.1,4.4c0-.3.2-.6.4-.8.1-.1.2-.2.4-.3,0,0,0,0,0,.1,0,0,0,0,0,0-.4.3-.6.9-.8,1.4,0,.1,0,.3,0,.4,0-.3,0-.6,0-.9ZM21,7.3c.1.2.3.5.4.7-.2-.1-.3-.2-.4-.4-.1-.2-.1-.4,0-.6.2.1.3.3.4.5,0,0,0,.1,0,.2,0,0,0,.1,0,.2,0-.2-.2-.4-.3-.6,0,0,0,0,0,0ZM20.9,11.1s0,0,0,0c0,0,0,0,0,0,0,0,0,0,0,0ZM22.2,10.7c-.5,0-.9.2-1.3.5,0,0,0,0-.1,0,.4-.5,1-.7,1.6-.6.2,0,.4,0,.5,0,0,.1-.2.2-.3.4-.1.1-.2.2-.4.3-.1,0-.3.1-.5.1-.2,0-.4,0-.6,0-.1,0-.3,0-.4,0,.3-.2.7-.4,1.1-.5.1,0,.3,0,.4,0,0,0,0,0,0,0ZM20.6,10.2c0,.3,0,.5-.1.8-.1.2-.3.4-.5.5-.1,0-.2,0-.3,0,0,0,0,0,0-.1,0,0,0,0,0,0,0-.2.2-.3.3-.5,0-.1.1-.2.2-.3,0,0,.1-.2.2-.3,0,0,.1-.2.2-.2ZM19.7,10.9c.1-.2.3-.4.5-.5,0,0,.1,0,.2,0,0,0-.2.2-.3.3-.2.2-.3.4-.4.7,0,0-.1.2-.1.3,0-.2,0-.4.2-.6ZM14.9,2.4c0-.1,0-.2,0-.3.1,0,.2,0,.3,0,.1,0,.2.1.3.2.2.1.3.3.4.6,0,0,0,0,0,.1-.2-.3-.5-.5-.8-.7,0,0,0,0,0,0,.3.2.6.4.8.7-.4,0-.8-.3-1-.7ZM16.1,8.2c0,0,0-.1,0-.1,0,0,0,0,0,0,0,0,0,0,0,0,0,0,0,0,0,0,0,0,0,0,0,0,0,0,0,0,0,0,0,0,0,0,0,0,0,0,0,0,0,0,0,0,0,0,0,0,0,0,0,0,0,0,0,0,0-.1,0-.2,0,0,0,0,0,.1,0,0,0,.1-.1.2ZM13,7.9s0,0,0-.2c0-.1,0-.2,0-.3,0-.1,0-.2.1-.3,0,0,0-.2.2-.2.1.2.2.4.1.6,0,.2-.1.4-.2.5,0,0,0-.2,0-.3,0-.2,0-.3,0-.5,0,0,0,0,0,0,0,.1,0,.3,0,.4,0,0,0,.1,0,.2,0,0,0,.1,0,.2,0,0,0,0,0,0,0,0,0,0,0,0,0,0,0,0,0,0,0,0,0,0,0,0,0,0,0,0,0-.1ZM12.8,9.1s0,0,0,0c0,0,0,0,0,0,0,0,0,0,0,0ZM11.6,8.8s0,0,0,0c0,0,0-.2,0-.3,0-.3,0-.6,0-.8,0,0,0,0,0,0,0,.3,0,.6,0,.9,0,.3,0,.5.1.8-.2-.2-.4-.5-.4-.7,0-.3,0-.6.1-.9,0-.1.2-.3.3-.4.4.5.4,1.1.2,1.7,0,.1-.1.3-.2.4,0-.2,0-.3,0-.5ZM10.4,7.9c-.1-.2-.2-.4-.3-.6,0-.1,0-.2,0-.3,0-.1,0-.2.1-.3,0,0,.1-.2.2-.3,0,.2,0,.5,0,.8,0,.3,0,.5,0,.8ZM10.5,6.4s0,0,0,0c0,0,0,0,0,0,.3.4.3.9.1,1.3,0,0,0,.2-.2.3,0-.5,0-1,0-1.5ZM10,4.9c0-.1,0-.2.1-.4,0-.2.2-.4.4-.6,0,0,.2-.2.3-.2,0,.3.2.6,0,.9,0,.2-.3.4-.5.6-.1,0-.2.1-.4.1,0-.4.3-.9.6-1.2,0,0,0,0,0,0-.3.4-.5.8-.6,1.2,0-.1,0-.3,0-.4ZM8.9,10.3c-.2,0-.4-.2-.5-.4.3-.2.6-.4,1-.4.4,0,.8,0,1.1.2,0,0,.2.1.3.2,0,0,0,0-.1,0,0,0,0,0,0,0-.4-.1-.8-.2-1.3-.1-.2,0-.3,0-.5.1,0,0,0,0,0,0,.5-.2,1.1-.2,1.7,0,.1,0,.3,0,.4.1-.6.4-1.4.5-2.1.3ZM3.5,14.4c0,.2,0,.3-.2.5,0,.1-.2.2-.3.3-.1.1-.3.2-.4.2,0,0,0,0,0,0,0-.6.3-1.3.8-1.7.1,0,.2-.2.4-.2-.1.3-.1.6-.2.9ZM8.1,14.7c0,0-.2.2-.3.3,0,0-.2.1-.3.2-.4.2-.9.2-1.3.3-.2,0-.4.2-.5.3,0,0,0,0,0-.1,0,0,0,0,0,0,.2-.3.6-.6.9-.7.4-.2.8-.3,1.2-.3,0,0,.2,0,.2,0,0,0,0,0,0,0ZM8.3,14.6c-.3,0-.7,0-1,.1-.4,0-.8.3-1.1.5-.2.1-.3.3-.5.5,0-.4.3-.7.6-.8.2-.1.5-.2.7-.2.3,0,.5,0,.8,0,.1,0,.3,0,.4,0,0,0,0,0,0,0ZM9.2,14.3c-.2-.4-.3-.8-.4-1.2,0-.1-.1-.3-.2-.4.3.3.5.6.7,1,.2.4.4.8.6,1.1,0,0,.1.2.2.3-.4-.1-.7-.4-1-.8ZM10,14.8c-.1-.2-.2-.4-.3-.5-.2-.4-.4-.8-.6-1.1-.1-.2-.3-.4-.5-.5,0,0,0,0,0,0,0,0,0,0,0,0,.4.1.8.4,1.1.7.1.2.3.4.4.6,0,.2.1.5.2.7,0,.2.1.4.3.5-.2,0-.3-.2-.4-.4ZM13.1,17.5c-.1,0-.3,0-.4-.2,0,0-.2-.2-.2-.3-.1-.2-.2-.5-.3-.7-.1-.2-.3-.4-.6-.6,0,0,0,0,.1,0,.4.1.8.4,1.1.6.3.3.6.7.8,1.1,0,0,0,.2,0,.3-.2-.1-.4-.2-.6-.2ZM13.4,16.9c-.3-.4-.6-.7-1-.9-.2-.1-.4-.2-.6-.3.1,0,.3,0,.4,0,.2,0,.4.2.6.4.3.3.6.7.8,1.2,0,0,0,.1,0,.2,0-.2-.2-.5-.4-.7ZM9,15.7c-.2,0-.3,0-.5.1-.2,0-.3.1-.5.2,0,0,0,0-.1,0,0,0,0,0,0,0-.2,0-.4.2-.7.3-.2,0-.4.2-.6.3,0,0,0,0,0,0,.7-.3,1.3-.6,2-.8,0,0,.2,0,.3,0-.2.2-.4.4-.7.5-.2.1-.3.2-.5.3-.2,0-.4.1-.6.1-.2,0-.5,0-.7-.1.2-.2.3-.3.5-.5.2-.2.3-.3.5-.4.3-.2.8-.3,1.1-.2.2,0,.3,0,.5,0,0,0-.1,0-.2,0ZM9.7,16.6c.3,0,.5,0,.8,0,.2,0,.3.1.5.2-.7-.2-1.4-.2-2.1,0-.1,0-.3,0-.4.1.4-.2.8-.4,1.2-.4ZM10.8,17.1c-.2,0-.4.1-.6.2-.2,0-.4,0-.6,0-.2,0-.4,0-.6-.1-.2,0-.4,0-.6,0,.7-.3,1.6-.4,2.4-.2.2,0,.3,0,.5.1-.1,0-.3,0-.4,0ZM5.6,19c-.2.3-.5.6-.8.7-.2,0-.4,0-.6,0,0-.2.1-.3.2-.5.1-.2.2-.3.4-.4.2-.1.3-.2.5-.3.2,0,.4,0,.6,0-.4,0-.8.3-1.1.6,0,.1-.2.2-.2.3,0,0,0,0,0,0,.2-.5.7-.7,1.2-.9,0,0,0,0,.1,0-.1.1-.2.3-.3.4ZM6.7,18.4c-.2,0-.4-.2-.5-.4-.2-.2-.4-.5-.6-.6-.1-.1-.3-.2-.4-.3,0,0,0,0,0,0,.5.2.8.8,1.3,1.1,0,0-.1,0-.2,0-.2,0-.5-.1-.7-.2-.4-.1-.7-.4-.9-.7-.1-.2-.2-.4-.2-.6.5,0,1,.3,1.3.6.4.4.6.8,1.1,1.1,0,0,0,0,0,0,0,0,0,0-.1,0ZM8.5,18.8c0,.2-.1.4-.2.5-.2.3-.5.6-.9.7-.2,0-.4,0-.6,0,0-.4.3-.8.6-1.1.2-.2.4-.3.6-.3,0,0,0,0,.1,0,0,0,0,0,.1,0-.1,0-.3.2-.4.3-.2.2-.4.5-.6.7-.1.1-.2.2-.4.3,0,0,0,0,0,0,.2-.1.4-.4.6-.6.2-.2.4-.5.6-.6.1,0,.2-.1.3-.2,0,0,0,.2-.1.3ZM12.6,18.7c-.2,0-.4,0-.6,0-.2,0-.4.1-.7.1-.2,0-.5,0-.7,0-.2,0-.5,0-.7,0,.3-.3.8-.5,1.3-.6.3,0,.5,0,.8,0,.1,0,.3,0,.4.1,0,0,.2.1.2.2,0,0,0,.1.1.2-.1,0-.3-.2-.4-.2-.3-.1-.7-.2-1-.1-.2,0-.4,0-.6.1,0,0,0,0,0,0,.6-.2,1.3-.2,1.9.2,0,0,0,0,.1,0,0,0,0,0-.1,0ZM8.9,26.9s0,0,0,0c0,0,.2-.2.3-.3,0,0-.2.2-.3.3ZM12.5,23.7c0,.1,0,.2-.1.3,0,0,0,0,0,0,0,0,0,0,0,0,0,0,0,0,0,0,0-.2.1-.3.2-.5,0,0,0,0,0,0,0,0,0,.2,0,.3ZM12,17.5s0,0,0,0c0,0,0,0,0,0,0,0,0,0,0,0,0,0,0,0,0,0ZM16.2,14.7c0,0,0-.1,0-.2,0,0,0,0,0,0,0,0,0,.1,0,.2ZM19.1,10.3s0,0,0,0c0,0,0,0,0,0,0,0,0,0,0,0ZM17.5,14.9s0,0,0,0c0,0,0,0,0,0,0,0,0,0,0,0,0,0,0,0,0,0,0,0,0,0,0,0ZM17.6,14.7s0,0,0,0c0,0,0,0,0,0,0,0,0,0,0,0,0,0,0,0,0,0ZM18.2,14.3c0,0-.2,0-.3.2,0,0-.1,0-.2.1,0-.1.2-.2.3-.2,0,0,0,0,.1,0,0,0,0,0,0,0ZM21.6,13.9c0,0-.2,0-.3.1,0,0,0,0,0,0,0,0,0,0,0,0,.1,0,.2,0,.3-.1ZM21,18.3c-.4,0-.8,0-1.2.1-.3,0-.6.1-.9.3,0,0,0,0,0,0,.2-.2.4-.3.6-.4.5-.2,1-.2,1.4-.1.2,0,.4,0,.5.2-.1,0-.2,0-.3,0-.2.1-.4.2-.6.3-.2,0-.5,0-.7,0-.2,0-.4,0-.6,0-.1,0-.2,0-.3,0,.2-.1.3-.2.5-.2.3-.1.7-.2,1-.2.2,0,.5,0,.7,0,0,0,0,0,0,0ZM22.2,17.8c.1,0,.3.1.4.2,0,0,.1,0,.1.1,0,0,0,.1,0,.2,0,0,0,.2,0,.3,0-.1-.1-.2-.2-.3-.2-.2-.3-.4-.5-.5,0,0-.1,0-.2-.1,0,0,.1,0,.2.1ZM22.3,18c.2.2.3.3.4.5,0,0,0,.1,0,.2-.3-.2-.5-.4-.7-.6,0-.1-.2-.3-.3-.4,0,0,0,0,0-.1.2.1.4.3.5.5ZM21.7,17.5s0,0,0,0c0,0,0,0,0,0,0,0,0,0,0,0ZM28,18.7c.3,0,.6-.1.9,0,.1,0,.2,0,.3,0-.5,0-1,0-1.5.1.1,0,.2,0,.3-.1ZM27.4,18.9c0,0,.2,0,.3,0,.4,0,.7-.1,1.1-.1.1,0,.3,0,.4,0,0,0-.2.1-.2.2-.1,0-.2.1-.4.2-.3,0-.6,0-.8,0-.1,0-.3,0-.4,0,0,0,0,0,.1,0ZM26,18c.2,0,.4-.2.7-.2.2,0,.4,0,.7,0,.2,0,.4,0,.5,0-.4,0-.8.1-1.1.2-.4,0-.8.2-1.2.2,0,0,0,0,0,0,.2,0,.4,0,.5-.1ZM27.2,17.9c.2,0,.5,0,.7-.1,0,0,0,0,0,0,0,0,0,0,0,0-.3.1-.6.4-1,.6-.2,0-.4.1-.6.1-.3,0-.5-.1-.7-.2,0,0-.2,0-.2,0,.6,0,1.2-.2,1.8-.3ZM22.1,16.6c-.4,0-.8-.2-1.2-.2.6,0,1.1-.2,1.7-.2.2,0,.4,0,.5.1-.3,0-.6.3-1,.3ZM21.6,15.9c.4-.1.8,0,1.2,0,.2,0,.4.2.5.3,0,0,0,0,0,0-.3-.2-.7-.2-1.1-.2-.4,0-.8.1-1.2.2,0,0-.2,0-.3,0,0,0,0,0-.1,0,.3,0,.6-.3,1-.4ZM21.4,15.5c-.1,0-.2.1-.3.2,0,0-.1,0-.2.1,0,0,0,0,0,0,.2-.2.4-.3.7-.4,0,0,0,0,.2,0-.1,0-.2,0-.3.1ZM24.4,16c0,0,.2,0,.3,0,0,0,.2,0,.3,0,.3.1.6.3.8.6,0,0,.2.2.2.3-.2-.2-.5-.4-.8-.6-.3-.2-.6-.3-.9-.3,0,0-.1,0-.2,0,0,0,0,0,0,0,0,0,.2,0,.2,0ZM23.9,16s0,0,0,0c.2.1.5.2.7.2.1,0,.3.1.4.2.1,0,.3.2.4.3.2.1.3.2.5.3,0,0,0,0,0,0-.4,0-.7.2-1,0-.4,0-.6-.4-.8-.7-.1-.2-.2-.3-.3-.5,0,0,0,0,0,0ZM29.4,16s0,0,0,0c-.2,0-.3,0-.5,0-.2,0-.4,0-.5,0-.2,0-.3-.2-.4-.3-.1-.1-.2-.2-.3-.3,0,0-.1,0-.2-.1.1,0,.2,0,.3,0,.2,0,.4,0,.6.1.2,0,.4.2.5.3.2.1.4.2.6.3,0,0,0,0,0,0ZM27.5,15.1c.3,0,.5-.1.8,0,.2,0,.5.2.6.3.1,0,.2.2.3.3,0,0,.1.2.2.2-.2,0-.3-.2-.5-.3-.2-.1-.3-.2-.5-.3-.2,0-.3-.1-.5-.2-.2,0-.4,0-.5,0,0,0,0,0-.1,0,0,0,.2,0,.3,0ZM28.1,14.4c-.1,0-.2,0-.3-.1.3-.1.7-.2,1.1-.2,0,0,0,0,0,0-.4,0-.7,0-1.1.2.2-.2.4-.3.7-.4.3,0,.6,0,.9,0,.1,0,.3.2.4.3-.4.3-1.1.4-1.6.2Z"/>
    <path class="cls-44" d="M27.4,16.2c0-.1-.2-.2-.3-.3-.1-.1-.3-.2-.5-.2-.2,0-.4,0-.6,0,0,0,0,0,0,0,0,.3.2.6.4.9,0,.1.2.2.4.3.2,0,.3.1.5.2.2,0,.4,0,.6.1,0,0,0,0,0,0-.1-.1-.2-.3-.3-.4,0-.1-.1-.3-.2-.4ZM27.8,17s0,0,0,0c0,0,0,0,0,0,0,0,0,0,0,0ZM26.9,16.8c-.1,0-.3-.1-.4-.3,0-.1-.2-.3-.2-.4,0-.1-.1-.3-.2-.4.3,0,.5.2.7.4.2.2.4.4.6.7.1.1.2.2.4.3-.3,0-.6-.1-.9-.2ZM26.5,15.7s0,0-.1,0c.2,0,.4,0,.6.2.3.2.4.5.6.7,0,.1.1.2.2.3-.5-.3-.7-.9-1.2-1.2Z"/>
    <path class="cls-43" d="M28.4,17.2c0,.1.1.3.2.4,0,.1.2.2.3.3.1.1.2.2.3.3,0,0,0,0,0,0,0-.1,0-.2,0-.4,0-.1,0-.2,0-.4,0-.2-.2-.4-.4-.6-.1,0-.2-.2-.4-.2,0,0,0,0,0,0,0,0,0,0,0,0,0,.1,0,.3,0,.4ZM28.6,17c0,0,0,.2.1.3,0,0,.1.2.2.3,0,.1.1.2.2.3,0,0,0,0,0,0,0-.1,0-.2-.2-.3,0,0-.2-.2-.2-.3,0,0,0-.2-.1-.3,0,0,0-.1-.1-.2,0,0,.2,0,.2.2,0,0,.2.2.2.2.1.2.2.4.3.6,0,.1,0,.2,0,.3-.2-.2-.4-.4-.6-.6,0-.1-.2-.2-.2-.4,0-.1,0-.3,0-.4,0,0,.1.1.1.2Z"/>
    <path class="cls-42" d="M25.6,19.4c0,0-.1-.1-.2-.2,0-.1-.2-.3-.3-.4,0-.1-.2-.3-.3-.4-.1-.1-.3-.2-.5-.2-.2,0-.4,0-.6-.1,0,0,0,0,0,0,0,0,0,0,0,0,0,0,0,0,0,0,0,0,0,.2.1.3,0,0,0,.2.1.3,0,.2.2.3.3.4.1.1.3.2.4.3.2,0,.3.1.5.2.2,0,.4,0,.6,0,0,0,0,0,0,0,0,0-.1-.1-.2-.2ZM24.8,19.3c-.1,0-.3-.1-.4-.2-.1,0-.2-.2-.3-.4,0-.2-.2-.3-.2-.5.2,0,.3,0,.5.1.1,0,.3.2.4.3.2.2.3.5.6.7.1.1.2.2.4.2-.3,0-.6-.1-.8-.2ZM25.3,19.3c-.1-.1-.2-.2-.3-.3-.2-.2-.4-.5-.6-.6,0,0-.2,0-.3-.1.3,0,.5.1.7.3.3.2.4.5.6.8,0,0,.1.1.2.2,0,0,0,0,0,0-.1,0-.3-.1-.4-.2Z"/>
    <path class="cls-45" d="M8.1,12.4c0-.3-.2-.6-.5-.8-.1-.1-.3-.2-.4-.3,0,0,0,0,0,0,0,.3-.1.7,0,1.1,0,.3.2.6.4.8.1.1.3.2.4.3,0,0,0,0,0,0,0,0,0,0,0,0,0-.2,0-.4,0-.6,0-.2,0-.3,0-.5ZM7.6,13.1c-.1,0-.2-.2-.3-.3-.2-.3-.2-.6-.2-.9,0-.2,0-.4,0-.6,0,0,0,0,0,0,.2.5.4,1.1.6,1.7,0,.1,0,.2.1.3-.1,0-.2-.1-.3-.2ZM8.1,12.8c0,.1,0,.3,0,.4,0-.2-.1-.4-.2-.6,0-.3-.2-.6-.3-.8,0-.1-.1-.3-.2-.4.5.3.8.9.7,1.4Z"/>
    <path class="cls-46" d="M5.4,10.7c.3,0,.6,0,.9-.1.2,0,.3-.2.5-.3,0,0,0,0,0,0,0,0,0,0,0,0-.2-.2-.5-.3-.8-.4-.3,0-.6,0-.9.1-.1,0-.3.1-.4.2,0,0,0,0,0,0,0,0,0,0,0,0,0,0,0,0,0,0,.2.2.5.3.8.4ZM6.3,10.1c0,0,.2,0,.3.1-.5-.1-1-.1-1.5,0-.1,0-.2,0-.3,0,.5-.3,1-.3,1.5-.1ZM4.6,10.3c.5-.1,1.1-.1,1.7,0,.1,0,.3,0,.4,0-.5.3-1.1.4-1.7.2-.1,0-.3-.1-.4-.2,0,0,0,0,0,0Z"/>
    <path class="cls-66" d="M5.2,9.2c.1,0,.2.2.4.2,0,0,0,0,0,0,0,0,0,0,0,0,.1-.3.1-.6,0-.9,0-.3-.3-.5-.5-.8-.1-.1-.3-.2-.4-.3,0,0,0,0,0,0,0,.3,0,.7,0,1,0,.3.2.5.4.7ZM4.9,7.5c.5.3.9.8.9,1.4,0,.1,0,.3,0,.4-.3-.4-.5-.9-.6-1.3,0-.1,0-.3-.1-.4,0,0,0,0,0,0,0,0,0,0,0,0ZM4.9,7.7c.1.5.3.9.5,1.4,0,0,.1.2.2.3-.2,0-.4-.2-.5-.4-.2-.3-.2-.6-.2-.9,0-.1,0-.2,0-.3Z"/>
    <path class="cls-40" d="M6.2,12.2c0,.2,0,.4,0,.6,0,0,0,0,0,0,0-.4,0-.8-.3-1.1-.2-.3-.5-.5-.8-.7-.2,0-.4,0-.6,0,0,0,0,0,0,0,0,.7.4,1.4,1,1.7.2,0,.4.1.6.2,0,0,0,0,0,0-.3-.6-.6-1.2-1.1-1.6-.1,0-.2-.2-.3-.2.3,0,.5,0,.7.3.3.2.5.5.5.9ZM6,12.4c0,.1.1.3.2.4-.3,0-.6-.2-.8-.4-.3-.2-.5-.5-.6-.8,0-.2,0-.4,0-.5,0,0,0,0,0,0,0,0,0,0,0,0,.6.2.9.8,1.2,1.3Z"/>
    <path class="cls-38" d="M3.4,11.8c.1.4.4.7.7.9,0,0,0,0,0,0,0,0,0,0,0,.1,0,0,0,0,0,0,.2-.3.2-.7.1-1.1,0-.4-.2-.7-.4-1-.1-.1-.2-.3-.4-.4,0,0,0,0,0,0,0,0,0,0,0,0,0,.1,0,.2,0,.3,0,.2,0,.4,0,.6,0,.2,0,.3.1.5ZM3.5,10.4s0,0,0,0c0,0,0,0,0,0,0,0,0,0,0,0,0,0,.1.1.2.2.2.2.4.5.4.9,0,.4,0,.8,0,1.1-.1-.3-.2-.5-.3-.8-.1-.3-.2-.6-.2-.9,0-.2,0-.4,0-.5,0,0,0,0,0,0,0,0,0,0,0,0ZM3.4,11c0,0,0-.2,0-.3,0,0,0,0,0-.1,0,0,0,0,0,0,0,0,0,0,0,0,0,.6.2,1.2.5,1.8,0,0,0,.2.1.3-.2-.2-.4-.4-.5-.7-.1-.3-.2-.6-.2-1Z"/>
    <path class="cls-41" d="M5.2,14.8c.3-.1.6-.4.7-.7.1-.2.2-.3.2-.5,0,0,0,0,0,0,0,0,0,0,0,0-.3-.2-.7-.2-1,0-.3.2-.6.5-.8.8,0,.2-.1.4-.2.6,0,0,0,0,0,0,.4,0,.7,0,1.1-.3ZM5.5,13.5c.2,0,.3,0,.5,0-.6,0-1.1.4-1.5.9,0,.1-.2.2-.3.4.1-.7.6-1.3,1.3-1.4ZM4.2,14.9s0,0,0,0c.3-.5.8-1,1.4-1.2.2,0,.3,0,.5,0,0,.3-.2.6-.5.8-.2.2-.6.4-.9.5-.2,0-.4,0-.6,0,0,0,0,0,0,0Z"/>
    <path class="cls-39" d="M4.4,17.8c0,0,0,0,0,0,0,0,0,0,0,0,0,0,0,0,0-.1,0,0,0-.2,0-.2,0-.2,0-.3-.1-.5-.1-.3-.3-.6-.5-.7-.1,0-.3-.1-.5-.1,0,0,0,0,0,0,0,0,0,0,0,0,0,.2,0,.3,0,.5,0,.2,0,.3.1.5,0,.1.1.3.2.4.1.1.2.2.4.2.1,0,.3,0,.4,0,0,0,0,0,0,0ZM3.6,17.5c-.1,0-.2-.2-.2-.4,0-.2-.1-.3-.1-.5,0-.1,0-.2,0-.4,0,.2.1.3.2.5.1.2.3.4.5.6,0,0,0,0,0,0-.4-.3-.6-.7-.8-1.2,0,0,0,0,0,0,.3,0,.5.2.7.4.2.3.3.6.3.9,0,0,0,.2,0,.2-.2,0-.5,0-.6-.2Z"/>
    <path class="cls-48" d="M24.7,5.7s0,0,.1,0c.1,0,.2,0,.3.1,0,0,.1.1.2.2,0,0,.1,0,.2,0,.3,0,.6,0,.9,0,.2,0,.4,0,.5,0,0,0,0,0,0,0-.2-.2-.5-.5-.8-.6-.3-.1-.6-.1-.9,0-.2,0-.3.2-.4.3,0,0,0,0,0,0,0,0,0,0-.1,0,0,0-.1,0-.2,0,0,0,0,0,0,0ZM25.7,5.3c.3,0,.6.1.9.3,0,0,.2.1.3.2-.5-.3-1.1-.3-1.7-.3,0,0-.1,0-.2,0,.2-.2.4-.3.7-.3ZM26.4,5.7c.1,0,.3,0,.4.2-.3,0-.5,0-.8.1-.2,0-.3,0-.5,0,0,0-.1,0-.2,0,0,0-.2-.1-.2-.2,0,0-.1,0-.2-.1.5-.1,1-.1,1.5,0Z"/>
    <path class="cls-50" d="M11.1,1.8c0,0,.1.1.2.2.2.2.5.3.8.4.3.1.7.2,1,.3,0,0,0,0,0,0,0-.1-.1-.2-.2-.3,0-.3-.3-.5-.6-.6-.3-.2-.6-.2-1-.2,0,0-.2,0-.2,0,0,0-.1,0-.1.1,0,0,0,.1.1.2ZM11,1.6s0,0,.1,0c0,0,0,0,.1,0,.3,0,.6,0,.9.1.3.1.6.3.7.6,0,0,0,0,0,0-.2-.1-.4-.2-.6-.2-.2,0-.3-.1-.5-.2,0,0,0,0,0,0,.2,0,.5.2.7.3.2,0,.4.1.5.3,0,0,.1.1.1.2-.3,0-.5-.1-.8-.2-.3,0-.5-.2-.8-.4-.1,0-.2-.2-.3-.3,0,0-.2-.1,0-.2Z"/>
    <path class="cls-51" d="M7.8,17.9c0,0,.1,0,.2,0,0,0,.2,0,.3,0,0,0,0,0,0,0,0,0,0,0-.1,0-.4-.3-.8-.6-1.3-.5-.1,0-.3,0-.4.1,0,0,0,0,0,0,.3.4.9.6,1.4.5ZM7.9,17.5c0,0,.1,0,.2.1-.5-.2-1-.3-1.5-.3.4-.2.9,0,1.3.2ZM8.1,17.7c0,0-.2,0-.2,0-.1,0-.2,0-.4,0-.3,0-.5,0-.7-.2,0,0-.2-.1-.3-.2.5,0,1.1.1,1.6.3Z"/>
    <path class="cls-53" d="M18.5,26.7s0,0,0,0c0,0,0,0,0,0,0,0,0,0,0,0,0,0,0,0,0,0,0,0,0,0,0,0,0,0,0,0,0,0,0,0,0,0,0,0,0,0,0,0,0,0,0,0,0,0,0,0,0,0,0,0,0,0,0,0,0,0,0,0,0,0,0,0,0,0Z"/>
    <path class="cls-54" d="M19.3,27s0,0,0,0c0,0,0,0-.1,0,0,0,0,0,0,0,0,0,0,0,0,0,0,0,0,0,0,0,0,0,0,0,0,0t0,0s0,0,0,0c0,0,0,0,0,0,0,0,0,0,0,0,0,0,0,0,0,0,0,0,0,0,0,0,0,0,0,0,0,0,0,0,0,0,0,0,0,0,0,0,0,0,0,0,0,0,0,0Z"/>
    <path class="cls-55" d="M24.5,28.5c-.6,0-1.1-.4-1.6-.6-.6-.2-1.2-.2-1.8-.2-.2,0-.3,0-.5,0-.2,0-.3,0-.5-.1,0,0,0,0,0,0,.3.2.6.2.8.3.3,0,.6,0,.9,0,.3,0,.6,0,.9.1.3,0,.6.2.8.3.3.1.6.3.9.3,0,0,0-.1,0-.1Z"/>
    <path class="cls-47" d="M14.2,26.3c.2-.3.4-.7.5-1.1.1-.4.2-.8.2-1.2,0-.2,0-.5,0-.7,0-.2,0-.4,0-.7,0-.1,0-.3,0-.4,0,0,0-.1,0-.2,0-.2.2-.4.2-.6,0,0,0,0,0,0,0,0,0,0,0,0,0,0,0,0,0,0-.3.2-.4.6-.4,1,0,0,0,.1,0,.2,0,.1,0,.2,0,.4,0,.2,0,.4,0,.6,0,.4,0,.8-.1,1.2,0,.4-.2.7-.4,1.1-.2.3-.3.6-.6.9-.2.3-.5.5-.8.7-.6.4-1.2.6-1.9.8-.4.1-.8.2-1.1.3-.5.1-1,.2-1.5.1-.2,0-.2.2,0,.2.4,0,.9,0,1.3,0,.4,0,.7-.2,1.1-.3.7-.2,1.4-.4,2-.7.3-.2.6-.3.9-.5.3-.2.6-.4.8-.7Z"/>
    <path class="cls-49" d="M16.5,22.4c0,.4-.1.8-.1,1.2,0,.3,0,.6,0,.8,0,.1,0,.3.1.4,0,.2.2.5.5.6,0,0,0,0,0,0,0,.1.2.2.3.3.2.2.3.3.5.5,0,0,0,0,.1.1,0,0,0,0,0,0,0,0,0,0,.1.1,0,0,0,0,0,0,0,0,.2.1.3.2,0,0,0,0,0,0-.2-.1-.3-.3-.4-.5-.2-.1-.3-.3-.4-.4-.3-.3-.6-.6-.8-1-.3-.5-.2-1-.2-1.6,0-.2,0-.4,0-.6,0,0,0-.2,0-.3,0-.3,0-.7-.2-1,0,0,0,0,0,0,0,.1,0,.2,0,.3,0,0,0,0,0,0,0,0,0,.2,0,.3,0,.2,0,.4,0,.5Z"/>
  </g>
</svg>